%TF.GenerationSoftware,KiCad,Pcbnew,9.0.6*%
%TF.CreationDate,2025-12-02T11:08:12-05:00*%
%TF.ProjectId,InterConnect,496e7465-7243-46f6-9e6e-6563742e6b69,0*%
%TF.SameCoordinates,Original*%
%TF.FileFunction,Drillmap*%
%TF.FilePolarity,Positive*%
%FSLAX45Y45*%
G04 Gerber Fmt 4.5, Leading zero omitted, Abs format (unit mm)*
G04 Created by KiCad (PCBNEW 9.0.6) date 2025-12-02 11:08:12*
%MOMM*%
%LPD*%
G01*
G04 APERTURE LIST*
%ADD10C,0.050000*%
%ADD11C,0.200000*%
G04 APERTURE END LIST*
D10*
X12546000Y-8504000D02*
X13695000Y-8504000D01*
X12244902Y-8504000D02*
X12245000Y-8510000D01*
X12400000Y-8504000D02*
X12244902Y-8504000D01*
X12546000Y-8504000D02*
X12400000Y-8504000D01*
X13695000Y-8504000D02*
X13653000Y-11510000D01*
X12294000Y-11510000D02*
X12245000Y-8510000D01*
X12294000Y-11510000D02*
X13653000Y-11510000D01*
D11*
X12503179Y-11823984D02*
X12503179Y-11623984D01*
X12503179Y-11623984D02*
X12550798Y-11623984D01*
X12550798Y-11623984D02*
X12579369Y-11633508D01*
X12579369Y-11633508D02*
X12598417Y-11652555D01*
X12598417Y-11652555D02*
X12607941Y-11671603D01*
X12607941Y-11671603D02*
X12617464Y-11709698D01*
X12617464Y-11709698D02*
X12617464Y-11738269D01*
X12617464Y-11738269D02*
X12607941Y-11776365D01*
X12607941Y-11776365D02*
X12598417Y-11795412D01*
X12598417Y-11795412D02*
X12579369Y-11814460D01*
X12579369Y-11814460D02*
X12550798Y-11823984D01*
X12550798Y-11823984D02*
X12503179Y-11823984D01*
X12703179Y-11823984D02*
X12703179Y-11690650D01*
X12703179Y-11728746D02*
X12712703Y-11709698D01*
X12712703Y-11709698D02*
X12722226Y-11700174D01*
X12722226Y-11700174D02*
X12741274Y-11690650D01*
X12741274Y-11690650D02*
X12760322Y-11690650D01*
X12826988Y-11823984D02*
X12826988Y-11690650D01*
X12826988Y-11623984D02*
X12817464Y-11633508D01*
X12817464Y-11633508D02*
X12826988Y-11643031D01*
X12826988Y-11643031D02*
X12836512Y-11633508D01*
X12836512Y-11633508D02*
X12826988Y-11623984D01*
X12826988Y-11623984D02*
X12826988Y-11643031D01*
X12950798Y-11823984D02*
X12931750Y-11814460D01*
X12931750Y-11814460D02*
X12922226Y-11795412D01*
X12922226Y-11795412D02*
X12922226Y-11623984D01*
X13055560Y-11823984D02*
X13036512Y-11814460D01*
X13036512Y-11814460D02*
X13026988Y-11795412D01*
X13026988Y-11795412D02*
X13026988Y-11623984D01*
X13284131Y-11823984D02*
X13284131Y-11623984D01*
X13284131Y-11623984D02*
X13350798Y-11766841D01*
X13350798Y-11766841D02*
X13417464Y-11623984D01*
X13417464Y-11623984D02*
X13417464Y-11823984D01*
X13598417Y-11823984D02*
X13598417Y-11719222D01*
X13598417Y-11719222D02*
X13588893Y-11700174D01*
X13588893Y-11700174D02*
X13569845Y-11690650D01*
X13569845Y-11690650D02*
X13531750Y-11690650D01*
X13531750Y-11690650D02*
X13512703Y-11700174D01*
X13598417Y-11814460D02*
X13579369Y-11823984D01*
X13579369Y-11823984D02*
X13531750Y-11823984D01*
X13531750Y-11823984D02*
X13512703Y-11814460D01*
X13512703Y-11814460D02*
X13503179Y-11795412D01*
X13503179Y-11795412D02*
X13503179Y-11776365D01*
X13503179Y-11776365D02*
X13512703Y-11757317D01*
X13512703Y-11757317D02*
X13531750Y-11747793D01*
X13531750Y-11747793D02*
X13579369Y-11747793D01*
X13579369Y-11747793D02*
X13598417Y-11738269D01*
X13693655Y-11690650D02*
X13693655Y-11890650D01*
X13693655Y-11700174D02*
X13712703Y-11690650D01*
X13712703Y-11690650D02*
X13750798Y-11690650D01*
X13750798Y-11690650D02*
X13769845Y-11700174D01*
X13769845Y-11700174D02*
X13779369Y-11709698D01*
X13779369Y-11709698D02*
X13788893Y-11728746D01*
X13788893Y-11728746D02*
X13788893Y-11785888D01*
X13788893Y-11785888D02*
X13779369Y-11804936D01*
X13779369Y-11804936D02*
X13769845Y-11814460D01*
X13769845Y-11814460D02*
X13750798Y-11823984D01*
X13750798Y-11823984D02*
X13712703Y-11823984D01*
X13712703Y-11823984D02*
X13693655Y-11814460D01*
X13874607Y-11804936D02*
X13884131Y-11814460D01*
X13884131Y-11814460D02*
X13874607Y-11823984D01*
X13874607Y-11823984D02*
X13865084Y-11814460D01*
X13865084Y-11814460D02*
X13874607Y-11804936D01*
X13874607Y-11804936D02*
X13874607Y-11823984D01*
X13874607Y-11700174D02*
X13884131Y-11709698D01*
X13884131Y-11709698D02*
X13874607Y-11719222D01*
X13874607Y-11719222D02*
X13865084Y-11709698D01*
X13865084Y-11709698D02*
X13874607Y-11700174D01*
X13874607Y-11700174D02*
X13874607Y-11719222D01*
M02*
