%TF.GenerationSoftware,KiCad,Pcbnew,9.0.6*%
%TF.CreationDate,2025-12-02T12:47:50-05:00*%
%TF.ProjectId,ControlBoard,436f6e74-726f-46c4-926f-6172642e6b69,rev?*%
%TF.SameCoordinates,Original*%
%TF.FileFunction,Drillmap*%
%TF.FilePolarity,Positive*%
%FSLAX45Y45*%
G04 Gerber Fmt 4.5, Leading zero omitted, Abs format (unit mm)*
G04 Created by KiCad (PCBNEW 9.0.6) date 2025-12-02 12:47:50*
%MOMM*%
%LPD*%
G01*
G04 APERTURE LIST*
%ADD10C,0.050000*%
%ADD11C,0.200000*%
%ADD12C,0.100000*%
%ADD13C,0.101600*%
%ADD14C,0.111760*%
%ADD15C,0.130000*%
%ADD16C,0.300000*%
G04 APERTURE END LIST*
D10*
X17809000Y-11323000D02*
X16671000Y-12982000D01*
X17204410Y-7489000D02*
X17809000Y-8103000D01*
X11199000Y-12982000D02*
X11237500Y-7489000D01*
X16671000Y-12982000D02*
X11199000Y-12982000D01*
X17809000Y-8103000D02*
X17809000Y-11323000D01*
X11237500Y-7489000D02*
X17204410Y-7489000D01*
D11*
D12*
X11833000Y-10654000D02*
X11883000Y-10704000D01*
X11883000Y-10654000D02*
X11833000Y-10704000D01*
X11908000Y-10654000D02*
X11808000Y-10654000D01*
X11808000Y-10704000D02*
G75*
G02*
X11808000Y-10654000I0J25000D01*
G01*
X11808000Y-10704000D02*
X11908000Y-10704000D01*
X11908000Y-10704000D02*
G75*
G03*
X11908000Y-10654000I0J25000D01*
G01*
X11833000Y-11014000D02*
X11883000Y-11064000D01*
X11883000Y-11014000D02*
X11833000Y-11064000D01*
X11908000Y-11014000D02*
X11808000Y-11014000D01*
X11808000Y-11064000D02*
G75*
G02*
X11808000Y-11014000I0J25000D01*
G01*
X11808000Y-11064000D02*
X11908000Y-11064000D01*
X11908000Y-11064000D02*
G75*
G03*
X11908000Y-11014000I0J25000D01*
G01*
X12043000Y-10834000D02*
X12093000Y-10884000D01*
X12093000Y-10834000D02*
X12043000Y-10884000D01*
X12043000Y-10809000D02*
X12043000Y-10909000D01*
X12093000Y-10909000D02*
G75*
G02*
X12043000Y-10909000I-25000J0D01*
G01*
X12093000Y-10909000D02*
X12093000Y-10809000D01*
X12093000Y-10809000D02*
G75*
G03*
X12043000Y-10809000I-25000J0D01*
G01*
X14048000Y-10808000D02*
G75*
G02*
X13977000Y-10808000I-35500J0D01*
G01*
X13977000Y-10808000D02*
G75*
G02*
X14048000Y-10808000I35500J0D01*
G01*
X14048000Y-11062000D02*
G75*
G02*
X13977000Y-11062000I-35500J0D01*
G01*
X13977000Y-11062000D02*
G75*
G02*
X14048000Y-11062000I35500J0D01*
G01*
X14048000Y-11316000D02*
G75*
G02*
X13977000Y-11316000I-35500J0D01*
G01*
X13977000Y-11316000D02*
G75*
G02*
X14048000Y-11316000I35500J0D01*
G01*
X17472000Y-9216000D02*
X17472000Y-9316000D01*
X17422000Y-9266000D02*
X17522000Y-9266000D01*
X17472000Y-9470000D02*
X17472000Y-9570000D01*
X17422000Y-9520000D02*
X17522000Y-9520000D01*
X17472000Y-9724000D02*
X17472000Y-9824000D01*
X17422000Y-9774000D02*
X17522000Y-9774000D01*
X17472000Y-9978000D02*
X17472000Y-10078000D01*
X17422000Y-10028000D02*
X17522000Y-10028000D01*
X17472000Y-10232000D02*
X17472000Y-10332000D01*
X17422000Y-10282000D02*
X17522000Y-10282000D01*
D13*
X11455921Y-7968421D02*
X11455921Y-7896579D01*
X11384079Y-7896579D01*
X11384079Y-7968421D01*
X11455921Y-7968421D01*
X11455921Y-10254421D02*
X11455921Y-10182579D01*
X11384079Y-10182579D01*
X11384079Y-10254421D01*
X11455921Y-10254421D01*
X11709921Y-7968421D02*
X11709921Y-7896579D01*
X11638079Y-7896579D01*
X11638079Y-7968421D01*
X11709921Y-7968421D01*
X11709921Y-10254421D02*
X11709921Y-10182579D01*
X11638079Y-10182579D01*
X11638079Y-10254421D01*
X11709921Y-10254421D01*
X11963921Y-7968421D02*
X11963921Y-7896579D01*
X11892079Y-7896579D01*
X11892079Y-7968421D01*
X11963921Y-7968421D01*
X11963921Y-10254421D02*
X11963921Y-10182579D01*
X11892079Y-10182579D01*
X11892079Y-10254421D01*
X11963921Y-10254421D01*
X12217921Y-7968421D02*
X12217921Y-7896579D01*
X12146079Y-7896579D01*
X12146079Y-7968421D01*
X12217921Y-7968421D01*
X12217921Y-10254421D02*
X12217921Y-10182579D01*
X12146079Y-10182579D01*
X12146079Y-10254421D01*
X12217921Y-10254421D01*
X12471921Y-7968421D02*
X12471921Y-7896579D01*
X12400079Y-7896579D01*
X12400079Y-7968421D01*
X12471921Y-7968421D01*
X12471921Y-10254421D02*
X12471921Y-10182579D01*
X12400079Y-10182579D01*
X12400079Y-10254421D01*
X12471921Y-10254421D01*
X12725921Y-7968421D02*
X12725921Y-7896579D01*
X12654079Y-7896579D01*
X12654079Y-7968421D01*
X12725921Y-7968421D01*
X12725921Y-10254421D02*
X12725921Y-10182579D01*
X12654079Y-10182579D01*
X12654079Y-10254421D01*
X12725921Y-10254421D01*
X12979921Y-7968421D02*
X12979921Y-7896579D01*
X12908079Y-7896579D01*
X12908079Y-7968421D01*
X12979921Y-7968421D01*
X12979921Y-10254421D02*
X12979921Y-10182579D01*
X12908079Y-10182579D01*
X12908079Y-10254421D01*
X12979921Y-10254421D01*
X13233921Y-7968421D02*
X13233921Y-7896579D01*
X13162079Y-7896579D01*
X13162079Y-7968421D01*
X13233921Y-7968421D01*
X13233921Y-10254421D02*
X13233921Y-10182579D01*
X13162079Y-10182579D01*
X13162079Y-10254421D01*
X13233921Y-10254421D01*
X13487921Y-7968421D02*
X13487921Y-7896579D01*
X13416079Y-7896579D01*
X13416079Y-7968421D01*
X13487921Y-7968421D01*
X13487921Y-10254421D02*
X13487921Y-10182579D01*
X13416079Y-10182579D01*
X13416079Y-10254421D01*
X13487921Y-10254421D01*
X13741921Y-7968421D02*
X13741921Y-7896579D01*
X13670079Y-7896579D01*
X13670079Y-7968421D01*
X13741921Y-7968421D01*
X13741921Y-10254421D02*
X13741921Y-10182579D01*
X13670079Y-10182579D01*
X13670079Y-10254421D01*
X13741921Y-10254421D01*
X13995921Y-7968421D02*
X13995921Y-7896579D01*
X13924079Y-7896579D01*
X13924079Y-7968421D01*
X13995921Y-7968421D01*
X13995921Y-10254421D02*
X13995921Y-10182579D01*
X13924079Y-10182579D01*
X13924079Y-10254421D01*
X13995921Y-10254421D01*
X14249921Y-7968421D02*
X14249921Y-7896579D01*
X14178079Y-7896579D01*
X14178079Y-7968421D01*
X14249921Y-7968421D01*
X14249921Y-10254421D02*
X14249921Y-10182579D01*
X14178079Y-10182579D01*
X14178079Y-10254421D01*
X14249921Y-10254421D01*
X14503921Y-7968421D02*
X14503921Y-7896579D01*
X14432079Y-7896579D01*
X14432079Y-7968421D01*
X14503921Y-7968421D01*
X14503921Y-10254421D02*
X14503921Y-10182579D01*
X14432079Y-10182579D01*
X14432079Y-10254421D01*
X14503921Y-10254421D01*
X14757921Y-7968421D02*
X14757921Y-7896579D01*
X14686079Y-7896579D01*
X14686079Y-7968421D01*
X14757921Y-7968421D01*
X14757921Y-10254421D02*
X14757921Y-10182579D01*
X14686079Y-10182579D01*
X14686079Y-10254421D01*
X14757921Y-10254421D01*
X15011921Y-7968421D02*
X15011921Y-7896579D01*
X14940079Y-7896579D01*
X14940079Y-7968421D01*
X15011921Y-7968421D01*
X15011921Y-10254421D02*
X15011921Y-10182579D01*
X14940079Y-10182579D01*
X14940079Y-10254421D01*
X15011921Y-10254421D01*
X15265921Y-7968421D02*
X15265921Y-7896579D01*
X15194079Y-7896579D01*
X15194079Y-7968421D01*
X15265921Y-7968421D01*
X15265921Y-10254421D02*
X15265921Y-10182579D01*
X15194079Y-10182579D01*
X15194079Y-10254421D01*
X15265921Y-10254421D01*
D14*
X11947500Y-11417380D02*
X12003380Y-11361500D01*
X11947500Y-11305620D01*
X11891620Y-11361500D01*
X11947500Y-11417380D01*
X11947500Y-12179380D02*
X12003380Y-12123500D01*
X11947500Y-12067620D01*
X11891620Y-12123500D01*
X11947500Y-12179380D01*
X12201500Y-11417380D02*
X12257380Y-11361500D01*
X12201500Y-11305620D01*
X12145620Y-11361500D01*
X12201500Y-11417380D01*
X12201500Y-12179380D02*
X12257380Y-12123500D01*
X12201500Y-12067620D01*
X12145620Y-12123500D01*
X12201500Y-12179380D01*
X12455500Y-11417380D02*
X12511380Y-11361500D01*
X12455500Y-11305620D01*
X12399620Y-11361500D01*
X12455500Y-11417380D01*
X12455500Y-12179380D02*
X12511380Y-12123500D01*
X12455500Y-12067620D01*
X12399620Y-12123500D01*
X12455500Y-12179380D01*
X12709500Y-11417380D02*
X12765380Y-11361500D01*
X12709500Y-11305620D01*
X12653620Y-11361500D01*
X12709500Y-11417380D01*
X12709500Y-12179380D02*
X12765380Y-12123500D01*
X12709500Y-12067620D01*
X12653620Y-12123500D01*
X12709500Y-12179380D01*
X12963500Y-11417380D02*
X13019380Y-11361500D01*
X12963500Y-11305620D01*
X12907620Y-11361500D01*
X12963500Y-11417380D01*
X12963500Y-12179380D02*
X13019380Y-12123500D01*
X12963500Y-12067620D01*
X12907620Y-12123500D01*
X12963500Y-12179380D01*
X13217500Y-11417380D02*
X13273380Y-11361500D01*
X13217500Y-11305620D01*
X13161620Y-11361500D01*
X13217500Y-11417380D01*
X13217500Y-12179380D02*
X13273380Y-12123500D01*
X13217500Y-12067620D01*
X13161620Y-12123500D01*
X13217500Y-12179380D01*
X13471500Y-11417380D02*
X13527380Y-11361500D01*
X13471500Y-11305620D01*
X13415620Y-11361500D01*
X13471500Y-11417380D01*
X13471500Y-12179380D02*
X13527380Y-12123500D01*
X13471500Y-12067620D01*
X13415620Y-12123500D01*
X13471500Y-12179380D01*
D15*
X16608000Y-7697000D02*
X16738000Y-7827000D01*
X16738000Y-7697000D02*
X16608000Y-7827000D01*
X16738000Y-7762000D02*
G75*
G02*
X16608000Y-7762000I-65000J0D01*
G01*
X16608000Y-7762000D02*
G75*
G02*
X16738000Y-7762000I65000J0D01*
G01*
X16608000Y-8157000D02*
X16738000Y-8287000D01*
X16738000Y-8157000D02*
X16608000Y-8287000D01*
X16738000Y-8222000D02*
G75*
G02*
X16608000Y-8222000I-65000J0D01*
G01*
X16608000Y-8222000D02*
G75*
G02*
X16738000Y-8222000I65000J0D01*
G01*
X16608000Y-9287000D02*
X16738000Y-9417000D01*
X16738000Y-9287000D02*
X16608000Y-9417000D01*
X16738000Y-9352000D02*
G75*
G02*
X16608000Y-9352000I-65000J0D01*
G01*
X16608000Y-9352000D02*
G75*
G02*
X16738000Y-9352000I65000J0D01*
G01*
X16608000Y-9747000D02*
X16738000Y-9877000D01*
X16738000Y-9747000D02*
X16608000Y-9877000D01*
X16738000Y-9812000D02*
G75*
G02*
X16608000Y-9812000I-65000J0D01*
G01*
X16608000Y-9812000D02*
G75*
G02*
X16738000Y-9812000I65000J0D01*
G01*
X17047000Y-8459000D02*
X17177000Y-8589000D01*
X17177000Y-8459000D02*
X17047000Y-8589000D01*
X17177000Y-8524000D02*
G75*
G02*
X17047000Y-8524000I-65000J0D01*
G01*
X17047000Y-8524000D02*
G75*
G02*
X17177000Y-8524000I65000J0D01*
G01*
X17097000Y-10959000D02*
X17227000Y-11089000D01*
X17227000Y-10959000D02*
X17097000Y-11089000D01*
X17227000Y-11024000D02*
G75*
G02*
X17097000Y-11024000I-65000J0D01*
G01*
X17097000Y-11024000D02*
G75*
G02*
X17227000Y-11024000I65000J0D01*
G01*
X17507000Y-8459000D02*
X17637000Y-8589000D01*
X17637000Y-8459000D02*
X17507000Y-8589000D01*
X17637000Y-8524000D02*
G75*
G02*
X17507000Y-8524000I-65000J0D01*
G01*
X17507000Y-8524000D02*
G75*
G02*
X17637000Y-8524000I65000J0D01*
G01*
X17557000Y-10959000D02*
X17687000Y-11089000D01*
X17687000Y-10959000D02*
X17557000Y-11089000D01*
X17687000Y-11024000D02*
G75*
G02*
X17557000Y-11024000I-65000J0D01*
G01*
X17557000Y-11024000D02*
G75*
G02*
X17687000Y-11024000I65000J0D01*
G01*
D16*
X15433000Y-10636000D02*
X15733000Y-10936000D01*
X15733000Y-10636000D02*
X15433000Y-10936000D01*
X15583000Y-10636000D02*
X15583000Y-10936000D01*
X15433000Y-10786000D02*
X15733000Y-10786000D01*
X15433000Y-11136000D02*
X15733000Y-11436000D01*
X15733000Y-11136000D02*
X15433000Y-11436000D01*
X15583000Y-11136000D02*
X15583000Y-11436000D01*
X15433000Y-11286000D02*
X15733000Y-11286000D01*
X15433000Y-12575500D02*
X15733000Y-12875500D01*
X15733000Y-12575500D02*
X15433000Y-12875500D01*
X15583000Y-12575500D02*
X15583000Y-12875500D01*
X15433000Y-12725500D02*
X15733000Y-12725500D01*
X16083000Y-10636000D02*
X16383000Y-10936000D01*
X16383000Y-10636000D02*
X16083000Y-10936000D01*
X16233000Y-10636000D02*
X16233000Y-10936000D01*
X16083000Y-10786000D02*
X16383000Y-10786000D01*
X16083000Y-11136000D02*
X16383000Y-11436000D01*
X16383000Y-11136000D02*
X16083000Y-11436000D01*
X16233000Y-11136000D02*
X16233000Y-11436000D01*
X16083000Y-11286000D02*
X16383000Y-11286000D01*
X16083000Y-12575500D02*
X16383000Y-12875500D01*
X16383000Y-12575500D02*
X16083000Y-12875500D01*
X16233000Y-12575500D02*
X16233000Y-12875500D01*
X16083000Y-12725500D02*
X16383000Y-12725500D01*
D11*
X11457277Y-13295984D02*
X11457277Y-13095984D01*
X11457277Y-13095984D02*
X11504896Y-13095984D01*
X11504896Y-13095984D02*
X11533467Y-13105508D01*
X11533467Y-13105508D02*
X11552515Y-13124555D01*
X11552515Y-13124555D02*
X11562039Y-13143603D01*
X11562039Y-13143603D02*
X11571562Y-13181698D01*
X11571562Y-13181698D02*
X11571562Y-13210269D01*
X11571562Y-13210269D02*
X11562039Y-13248365D01*
X11562039Y-13248365D02*
X11552515Y-13267412D01*
X11552515Y-13267412D02*
X11533467Y-13286460D01*
X11533467Y-13286460D02*
X11504896Y-13295984D01*
X11504896Y-13295984D02*
X11457277Y-13295984D01*
X11657277Y-13295984D02*
X11657277Y-13162650D01*
X11657277Y-13200746D02*
X11666801Y-13181698D01*
X11666801Y-13181698D02*
X11676324Y-13172174D01*
X11676324Y-13172174D02*
X11695372Y-13162650D01*
X11695372Y-13162650D02*
X11714420Y-13162650D01*
X11781086Y-13295984D02*
X11781086Y-13162650D01*
X11781086Y-13095984D02*
X11771562Y-13105508D01*
X11771562Y-13105508D02*
X11781086Y-13115031D01*
X11781086Y-13115031D02*
X11790610Y-13105508D01*
X11790610Y-13105508D02*
X11781086Y-13095984D01*
X11781086Y-13095984D02*
X11781086Y-13115031D01*
X11904896Y-13295984D02*
X11885848Y-13286460D01*
X11885848Y-13286460D02*
X11876324Y-13267412D01*
X11876324Y-13267412D02*
X11876324Y-13095984D01*
X12009658Y-13295984D02*
X11990610Y-13286460D01*
X11990610Y-13286460D02*
X11981086Y-13267412D01*
X11981086Y-13267412D02*
X11981086Y-13095984D01*
X12238229Y-13295984D02*
X12238229Y-13095984D01*
X12238229Y-13095984D02*
X12304896Y-13238841D01*
X12304896Y-13238841D02*
X12371562Y-13095984D01*
X12371562Y-13095984D02*
X12371562Y-13295984D01*
X12552515Y-13295984D02*
X12552515Y-13191222D01*
X12552515Y-13191222D02*
X12542991Y-13172174D01*
X12542991Y-13172174D02*
X12523943Y-13162650D01*
X12523943Y-13162650D02*
X12485848Y-13162650D01*
X12485848Y-13162650D02*
X12466801Y-13172174D01*
X12552515Y-13286460D02*
X12533467Y-13295984D01*
X12533467Y-13295984D02*
X12485848Y-13295984D01*
X12485848Y-13295984D02*
X12466801Y-13286460D01*
X12466801Y-13286460D02*
X12457277Y-13267412D01*
X12457277Y-13267412D02*
X12457277Y-13248365D01*
X12457277Y-13248365D02*
X12466801Y-13229317D01*
X12466801Y-13229317D02*
X12485848Y-13219793D01*
X12485848Y-13219793D02*
X12533467Y-13219793D01*
X12533467Y-13219793D02*
X12552515Y-13210269D01*
X12647753Y-13162650D02*
X12647753Y-13362650D01*
X12647753Y-13172174D02*
X12666801Y-13162650D01*
X12666801Y-13162650D02*
X12704896Y-13162650D01*
X12704896Y-13162650D02*
X12723943Y-13172174D01*
X12723943Y-13172174D02*
X12733467Y-13181698D01*
X12733467Y-13181698D02*
X12742991Y-13200746D01*
X12742991Y-13200746D02*
X12742991Y-13257888D01*
X12742991Y-13257888D02*
X12733467Y-13276936D01*
X12733467Y-13276936D02*
X12723943Y-13286460D01*
X12723943Y-13286460D02*
X12704896Y-13295984D01*
X12704896Y-13295984D02*
X12666801Y-13295984D01*
X12666801Y-13295984D02*
X12647753Y-13286460D01*
X12828705Y-13276936D02*
X12838229Y-13286460D01*
X12838229Y-13286460D02*
X12828705Y-13295984D01*
X12828705Y-13295984D02*
X12819182Y-13286460D01*
X12819182Y-13286460D02*
X12828705Y-13276936D01*
X12828705Y-13276936D02*
X12828705Y-13295984D01*
X12828705Y-13172174D02*
X12838229Y-13181698D01*
X12838229Y-13181698D02*
X12828705Y-13191222D01*
X12828705Y-13191222D02*
X12819182Y-13181698D01*
X12819182Y-13181698D02*
X12828705Y-13172174D01*
X12828705Y-13172174D02*
X12828705Y-13191222D01*
D12*
X11146500Y-13599500D02*
X11196500Y-13649500D01*
X11196500Y-13599500D02*
X11146500Y-13649500D01*
D11*
X11495372Y-13515984D02*
X11514420Y-13515984D01*
X11514420Y-13515984D02*
X11533467Y-13525508D01*
X11533467Y-13525508D02*
X11542991Y-13535031D01*
X11542991Y-13535031D02*
X11552515Y-13554079D01*
X11552515Y-13554079D02*
X11562039Y-13592174D01*
X11562039Y-13592174D02*
X11562039Y-13639793D01*
X11562039Y-13639793D02*
X11552515Y-13677888D01*
X11552515Y-13677888D02*
X11542991Y-13696936D01*
X11542991Y-13696936D02*
X11533467Y-13706460D01*
X11533467Y-13706460D02*
X11514420Y-13715984D01*
X11514420Y-13715984D02*
X11495372Y-13715984D01*
X11495372Y-13715984D02*
X11476324Y-13706460D01*
X11476324Y-13706460D02*
X11466801Y-13696936D01*
X11466801Y-13696936D02*
X11457277Y-13677888D01*
X11457277Y-13677888D02*
X11447753Y-13639793D01*
X11447753Y-13639793D02*
X11447753Y-13592174D01*
X11447753Y-13592174D02*
X11457277Y-13554079D01*
X11457277Y-13554079D02*
X11466801Y-13535031D01*
X11466801Y-13535031D02*
X11476324Y-13525508D01*
X11476324Y-13525508D02*
X11495372Y-13515984D01*
X11647753Y-13696936D02*
X11657277Y-13706460D01*
X11657277Y-13706460D02*
X11647753Y-13715984D01*
X11647753Y-13715984D02*
X11638229Y-13706460D01*
X11638229Y-13706460D02*
X11647753Y-13696936D01*
X11647753Y-13696936D02*
X11647753Y-13715984D01*
X11838229Y-13515984D02*
X11742991Y-13515984D01*
X11742991Y-13515984D02*
X11733467Y-13611222D01*
X11733467Y-13611222D02*
X11742991Y-13601698D01*
X11742991Y-13601698D02*
X11762039Y-13592174D01*
X11762039Y-13592174D02*
X11809658Y-13592174D01*
X11809658Y-13592174D02*
X11828705Y-13601698D01*
X11828705Y-13601698D02*
X11838229Y-13611222D01*
X11838229Y-13611222D02*
X11847753Y-13630269D01*
X11847753Y-13630269D02*
X11847753Y-13677888D01*
X11847753Y-13677888D02*
X11838229Y-13696936D01*
X11838229Y-13696936D02*
X11828705Y-13706460D01*
X11828705Y-13706460D02*
X11809658Y-13715984D01*
X11809658Y-13715984D02*
X11762039Y-13715984D01*
X11762039Y-13715984D02*
X11742991Y-13706460D01*
X11742991Y-13706460D02*
X11733467Y-13696936D01*
X11971562Y-13515984D02*
X11990610Y-13515984D01*
X11990610Y-13515984D02*
X12009658Y-13525508D01*
X12009658Y-13525508D02*
X12019182Y-13535031D01*
X12019182Y-13535031D02*
X12028705Y-13554079D01*
X12028705Y-13554079D02*
X12038229Y-13592174D01*
X12038229Y-13592174D02*
X12038229Y-13639793D01*
X12038229Y-13639793D02*
X12028705Y-13677888D01*
X12028705Y-13677888D02*
X12019182Y-13696936D01*
X12019182Y-13696936D02*
X12009658Y-13706460D01*
X12009658Y-13706460D02*
X11990610Y-13715984D01*
X11990610Y-13715984D02*
X11971562Y-13715984D01*
X11971562Y-13715984D02*
X11952515Y-13706460D01*
X11952515Y-13706460D02*
X11942991Y-13696936D01*
X11942991Y-13696936D02*
X11933467Y-13677888D01*
X11933467Y-13677888D02*
X11923943Y-13639793D01*
X11923943Y-13639793D02*
X11923943Y-13592174D01*
X11923943Y-13592174D02*
X11933467Y-13554079D01*
X11933467Y-13554079D02*
X11942991Y-13535031D01*
X11942991Y-13535031D02*
X11952515Y-13525508D01*
X11952515Y-13525508D02*
X11971562Y-13515984D01*
X12162039Y-13515984D02*
X12181086Y-13515984D01*
X12181086Y-13515984D02*
X12200134Y-13525508D01*
X12200134Y-13525508D02*
X12209658Y-13535031D01*
X12209658Y-13535031D02*
X12219182Y-13554079D01*
X12219182Y-13554079D02*
X12228705Y-13592174D01*
X12228705Y-13592174D02*
X12228705Y-13639793D01*
X12228705Y-13639793D02*
X12219182Y-13677888D01*
X12219182Y-13677888D02*
X12209658Y-13696936D01*
X12209658Y-13696936D02*
X12200134Y-13706460D01*
X12200134Y-13706460D02*
X12181086Y-13715984D01*
X12181086Y-13715984D02*
X12162039Y-13715984D01*
X12162039Y-13715984D02*
X12142991Y-13706460D01*
X12142991Y-13706460D02*
X12133467Y-13696936D01*
X12133467Y-13696936D02*
X12123943Y-13677888D01*
X12123943Y-13677888D02*
X12114420Y-13639793D01*
X12114420Y-13639793D02*
X12114420Y-13592174D01*
X12114420Y-13592174D02*
X12123943Y-13554079D01*
X12123943Y-13554079D02*
X12133467Y-13535031D01*
X12133467Y-13535031D02*
X12142991Y-13525508D01*
X12142991Y-13525508D02*
X12162039Y-13515984D01*
X12314420Y-13715984D02*
X12314420Y-13582650D01*
X12314420Y-13601698D02*
X12323943Y-13592174D01*
X12323943Y-13592174D02*
X12342991Y-13582650D01*
X12342991Y-13582650D02*
X12371563Y-13582650D01*
X12371563Y-13582650D02*
X12390610Y-13592174D01*
X12390610Y-13592174D02*
X12400134Y-13611222D01*
X12400134Y-13611222D02*
X12400134Y-13715984D01*
X12400134Y-13611222D02*
X12409658Y-13592174D01*
X12409658Y-13592174D02*
X12428705Y-13582650D01*
X12428705Y-13582650D02*
X12457277Y-13582650D01*
X12457277Y-13582650D02*
X12476324Y-13592174D01*
X12476324Y-13592174D02*
X12485848Y-13611222D01*
X12485848Y-13611222D02*
X12485848Y-13715984D01*
X12581086Y-13715984D02*
X12581086Y-13582650D01*
X12581086Y-13601698D02*
X12590610Y-13592174D01*
X12590610Y-13592174D02*
X12609658Y-13582650D01*
X12609658Y-13582650D02*
X12638229Y-13582650D01*
X12638229Y-13582650D02*
X12657277Y-13592174D01*
X12657277Y-13592174D02*
X12666801Y-13611222D01*
X12666801Y-13611222D02*
X12666801Y-13715984D01*
X12666801Y-13611222D02*
X12676324Y-13592174D01*
X12676324Y-13592174D02*
X12695372Y-13582650D01*
X12695372Y-13582650D02*
X12723943Y-13582650D01*
X12723943Y-13582650D02*
X12742991Y-13592174D01*
X12742991Y-13592174D02*
X12752515Y-13611222D01*
X12752515Y-13611222D02*
X12752515Y-13715984D01*
X13142991Y-13506460D02*
X12971563Y-13763603D01*
X13400134Y-13515984D02*
X13419182Y-13515984D01*
X13419182Y-13515984D02*
X13438229Y-13525508D01*
X13438229Y-13525508D02*
X13447753Y-13535031D01*
X13447753Y-13535031D02*
X13457277Y-13554079D01*
X13457277Y-13554079D02*
X13466801Y-13592174D01*
X13466801Y-13592174D02*
X13466801Y-13639793D01*
X13466801Y-13639793D02*
X13457277Y-13677888D01*
X13457277Y-13677888D02*
X13447753Y-13696936D01*
X13447753Y-13696936D02*
X13438229Y-13706460D01*
X13438229Y-13706460D02*
X13419182Y-13715984D01*
X13419182Y-13715984D02*
X13400134Y-13715984D01*
X13400134Y-13715984D02*
X13381086Y-13706460D01*
X13381086Y-13706460D02*
X13371563Y-13696936D01*
X13371563Y-13696936D02*
X13362039Y-13677888D01*
X13362039Y-13677888D02*
X13352515Y-13639793D01*
X13352515Y-13639793D02*
X13352515Y-13592174D01*
X13352515Y-13592174D02*
X13362039Y-13554079D01*
X13362039Y-13554079D02*
X13371563Y-13535031D01*
X13371563Y-13535031D02*
X13381086Y-13525508D01*
X13381086Y-13525508D02*
X13400134Y-13515984D01*
X13552515Y-13696936D02*
X13562039Y-13706460D01*
X13562039Y-13706460D02*
X13552515Y-13715984D01*
X13552515Y-13715984D02*
X13542991Y-13706460D01*
X13542991Y-13706460D02*
X13552515Y-13696936D01*
X13552515Y-13696936D02*
X13552515Y-13715984D01*
X13685848Y-13515984D02*
X13704896Y-13515984D01*
X13704896Y-13515984D02*
X13723944Y-13525508D01*
X13723944Y-13525508D02*
X13733467Y-13535031D01*
X13733467Y-13535031D02*
X13742991Y-13554079D01*
X13742991Y-13554079D02*
X13752515Y-13592174D01*
X13752515Y-13592174D02*
X13752515Y-13639793D01*
X13752515Y-13639793D02*
X13742991Y-13677888D01*
X13742991Y-13677888D02*
X13733467Y-13696936D01*
X13733467Y-13696936D02*
X13723944Y-13706460D01*
X13723944Y-13706460D02*
X13704896Y-13715984D01*
X13704896Y-13715984D02*
X13685848Y-13715984D01*
X13685848Y-13715984D02*
X13666801Y-13706460D01*
X13666801Y-13706460D02*
X13657277Y-13696936D01*
X13657277Y-13696936D02*
X13647753Y-13677888D01*
X13647753Y-13677888D02*
X13638229Y-13639793D01*
X13638229Y-13639793D02*
X13638229Y-13592174D01*
X13638229Y-13592174D02*
X13647753Y-13554079D01*
X13647753Y-13554079D02*
X13657277Y-13535031D01*
X13657277Y-13535031D02*
X13666801Y-13525508D01*
X13666801Y-13525508D02*
X13685848Y-13515984D01*
X13942991Y-13715984D02*
X13828706Y-13715984D01*
X13885848Y-13715984D02*
X13885848Y-13515984D01*
X13885848Y-13515984D02*
X13866801Y-13544555D01*
X13866801Y-13544555D02*
X13847753Y-13563603D01*
X13847753Y-13563603D02*
X13828706Y-13573127D01*
X14038229Y-13715984D02*
X14076325Y-13715984D01*
X14076325Y-13715984D02*
X14095372Y-13706460D01*
X14095372Y-13706460D02*
X14104896Y-13696936D01*
X14104896Y-13696936D02*
X14123944Y-13668365D01*
X14123944Y-13668365D02*
X14133467Y-13630269D01*
X14133467Y-13630269D02*
X14133467Y-13554079D01*
X14133467Y-13554079D02*
X14123944Y-13535031D01*
X14123944Y-13535031D02*
X14114420Y-13525508D01*
X14114420Y-13525508D02*
X14095372Y-13515984D01*
X14095372Y-13515984D02*
X14057277Y-13515984D01*
X14057277Y-13515984D02*
X14038229Y-13525508D01*
X14038229Y-13525508D02*
X14028706Y-13535031D01*
X14028706Y-13535031D02*
X14019182Y-13554079D01*
X14019182Y-13554079D02*
X14019182Y-13601698D01*
X14019182Y-13601698D02*
X14028706Y-13620746D01*
X14028706Y-13620746D02*
X14038229Y-13630269D01*
X14038229Y-13630269D02*
X14057277Y-13639793D01*
X14057277Y-13639793D02*
X14095372Y-13639793D01*
X14095372Y-13639793D02*
X14114420Y-13630269D01*
X14114420Y-13630269D02*
X14123944Y-13620746D01*
X14123944Y-13620746D02*
X14133467Y-13601698D01*
X14200134Y-13515984D02*
X14333467Y-13515984D01*
X14333467Y-13515984D02*
X14247753Y-13715984D01*
X14400134Y-13515984D02*
X14400134Y-13554079D01*
X14476325Y-13515984D02*
X14476325Y-13554079D01*
X14771563Y-13792174D02*
X14762039Y-13782650D01*
X14762039Y-13782650D02*
X14742991Y-13754079D01*
X14742991Y-13754079D02*
X14733468Y-13735031D01*
X14733468Y-13735031D02*
X14723944Y-13706460D01*
X14723944Y-13706460D02*
X14714420Y-13658841D01*
X14714420Y-13658841D02*
X14714420Y-13620746D01*
X14714420Y-13620746D02*
X14723944Y-13573127D01*
X14723944Y-13573127D02*
X14733468Y-13544555D01*
X14733468Y-13544555D02*
X14742991Y-13525508D01*
X14742991Y-13525508D02*
X14762039Y-13496936D01*
X14762039Y-13496936D02*
X14771563Y-13487412D01*
X14885848Y-13515984D02*
X14904896Y-13515984D01*
X14904896Y-13515984D02*
X14923944Y-13525508D01*
X14923944Y-13525508D02*
X14933468Y-13535031D01*
X14933468Y-13535031D02*
X14942991Y-13554079D01*
X14942991Y-13554079D02*
X14952515Y-13592174D01*
X14952515Y-13592174D02*
X14952515Y-13639793D01*
X14952515Y-13639793D02*
X14942991Y-13677888D01*
X14942991Y-13677888D02*
X14933468Y-13696936D01*
X14933468Y-13696936D02*
X14923944Y-13706460D01*
X14923944Y-13706460D02*
X14904896Y-13715984D01*
X14904896Y-13715984D02*
X14885848Y-13715984D01*
X14885848Y-13715984D02*
X14866801Y-13706460D01*
X14866801Y-13706460D02*
X14857277Y-13696936D01*
X14857277Y-13696936D02*
X14847753Y-13677888D01*
X14847753Y-13677888D02*
X14838229Y-13639793D01*
X14838229Y-13639793D02*
X14838229Y-13592174D01*
X14838229Y-13592174D02*
X14847753Y-13554079D01*
X14847753Y-13554079D02*
X14857277Y-13535031D01*
X14857277Y-13535031D02*
X14866801Y-13525508D01*
X14866801Y-13525508D02*
X14885848Y-13515984D01*
X15190610Y-13715984D02*
X15190610Y-13515984D01*
X15276325Y-13715984D02*
X15276325Y-13611222D01*
X15276325Y-13611222D02*
X15266801Y-13592174D01*
X15266801Y-13592174D02*
X15247753Y-13582650D01*
X15247753Y-13582650D02*
X15219182Y-13582650D01*
X15219182Y-13582650D02*
X15200134Y-13592174D01*
X15200134Y-13592174D02*
X15190610Y-13601698D01*
X15400134Y-13715984D02*
X15381087Y-13706460D01*
X15381087Y-13706460D02*
X15371563Y-13696936D01*
X15371563Y-13696936D02*
X15362039Y-13677888D01*
X15362039Y-13677888D02*
X15362039Y-13620746D01*
X15362039Y-13620746D02*
X15371563Y-13601698D01*
X15371563Y-13601698D02*
X15381087Y-13592174D01*
X15381087Y-13592174D02*
X15400134Y-13582650D01*
X15400134Y-13582650D02*
X15428706Y-13582650D01*
X15428706Y-13582650D02*
X15447753Y-13592174D01*
X15447753Y-13592174D02*
X15457277Y-13601698D01*
X15457277Y-13601698D02*
X15466801Y-13620746D01*
X15466801Y-13620746D02*
X15466801Y-13677888D01*
X15466801Y-13677888D02*
X15457277Y-13696936D01*
X15457277Y-13696936D02*
X15447753Y-13706460D01*
X15447753Y-13706460D02*
X15428706Y-13715984D01*
X15428706Y-13715984D02*
X15400134Y-13715984D01*
X15581087Y-13715984D02*
X15562039Y-13706460D01*
X15562039Y-13706460D02*
X15552515Y-13687412D01*
X15552515Y-13687412D02*
X15552515Y-13515984D01*
X15733468Y-13706460D02*
X15714420Y-13715984D01*
X15714420Y-13715984D02*
X15676325Y-13715984D01*
X15676325Y-13715984D02*
X15657277Y-13706460D01*
X15657277Y-13706460D02*
X15647753Y-13687412D01*
X15647753Y-13687412D02*
X15647753Y-13611222D01*
X15647753Y-13611222D02*
X15657277Y-13592174D01*
X15657277Y-13592174D02*
X15676325Y-13582650D01*
X15676325Y-13582650D02*
X15714420Y-13582650D01*
X15714420Y-13582650D02*
X15733468Y-13592174D01*
X15733468Y-13592174D02*
X15742991Y-13611222D01*
X15742991Y-13611222D02*
X15742991Y-13630269D01*
X15742991Y-13630269D02*
X15647753Y-13649317D01*
X15819182Y-13706460D02*
X15838230Y-13715984D01*
X15838230Y-13715984D02*
X15876325Y-13715984D01*
X15876325Y-13715984D02*
X15895372Y-13706460D01*
X15895372Y-13706460D02*
X15904896Y-13687412D01*
X15904896Y-13687412D02*
X15904896Y-13677888D01*
X15904896Y-13677888D02*
X15895372Y-13658841D01*
X15895372Y-13658841D02*
X15876325Y-13649317D01*
X15876325Y-13649317D02*
X15847753Y-13649317D01*
X15847753Y-13649317D02*
X15828706Y-13639793D01*
X15828706Y-13639793D02*
X15819182Y-13620746D01*
X15819182Y-13620746D02*
X15819182Y-13611222D01*
X15819182Y-13611222D02*
X15828706Y-13592174D01*
X15828706Y-13592174D02*
X15847753Y-13582650D01*
X15847753Y-13582650D02*
X15876325Y-13582650D01*
X15876325Y-13582650D02*
X15895372Y-13592174D01*
X16142992Y-13639793D02*
X16295373Y-13639793D01*
X16219182Y-13715984D02*
X16219182Y-13563603D01*
X16523944Y-13515984D02*
X16647753Y-13515984D01*
X16647753Y-13515984D02*
X16581087Y-13592174D01*
X16581087Y-13592174D02*
X16609658Y-13592174D01*
X16609658Y-13592174D02*
X16628706Y-13601698D01*
X16628706Y-13601698D02*
X16638230Y-13611222D01*
X16638230Y-13611222D02*
X16647753Y-13630269D01*
X16647753Y-13630269D02*
X16647753Y-13677888D01*
X16647753Y-13677888D02*
X16638230Y-13696936D01*
X16638230Y-13696936D02*
X16628706Y-13706460D01*
X16628706Y-13706460D02*
X16609658Y-13715984D01*
X16609658Y-13715984D02*
X16552515Y-13715984D01*
X16552515Y-13715984D02*
X16533468Y-13706460D01*
X16533468Y-13706460D02*
X16523944Y-13696936D01*
X16876325Y-13706460D02*
X16895373Y-13715984D01*
X16895373Y-13715984D02*
X16933468Y-13715984D01*
X16933468Y-13715984D02*
X16952516Y-13706460D01*
X16952516Y-13706460D02*
X16962039Y-13687412D01*
X16962039Y-13687412D02*
X16962039Y-13677888D01*
X16962039Y-13677888D02*
X16952516Y-13658841D01*
X16952516Y-13658841D02*
X16933468Y-13649317D01*
X16933468Y-13649317D02*
X16904896Y-13649317D01*
X16904896Y-13649317D02*
X16885849Y-13639793D01*
X16885849Y-13639793D02*
X16876325Y-13620746D01*
X16876325Y-13620746D02*
X16876325Y-13611222D01*
X16876325Y-13611222D02*
X16885849Y-13592174D01*
X16885849Y-13592174D02*
X16904896Y-13582650D01*
X16904896Y-13582650D02*
X16933468Y-13582650D01*
X16933468Y-13582650D02*
X16952516Y-13592174D01*
X17076325Y-13715984D02*
X17057277Y-13706460D01*
X17057277Y-13706460D02*
X17047754Y-13687412D01*
X17047754Y-13687412D02*
X17047754Y-13515984D01*
X17181087Y-13715984D02*
X17162039Y-13706460D01*
X17162039Y-13706460D02*
X17152516Y-13696936D01*
X17152516Y-13696936D02*
X17142992Y-13677888D01*
X17142992Y-13677888D02*
X17142992Y-13620746D01*
X17142992Y-13620746D02*
X17152516Y-13601698D01*
X17152516Y-13601698D02*
X17162039Y-13592174D01*
X17162039Y-13592174D02*
X17181087Y-13582650D01*
X17181087Y-13582650D02*
X17209658Y-13582650D01*
X17209658Y-13582650D02*
X17228706Y-13592174D01*
X17228706Y-13592174D02*
X17238230Y-13601698D01*
X17238230Y-13601698D02*
X17247754Y-13620746D01*
X17247754Y-13620746D02*
X17247754Y-13677888D01*
X17247754Y-13677888D02*
X17238230Y-13696936D01*
X17238230Y-13696936D02*
X17228706Y-13706460D01*
X17228706Y-13706460D02*
X17209658Y-13715984D01*
X17209658Y-13715984D02*
X17181087Y-13715984D01*
X17304897Y-13582650D02*
X17381087Y-13582650D01*
X17333468Y-13515984D02*
X17333468Y-13687412D01*
X17333468Y-13687412D02*
X17342992Y-13706460D01*
X17342992Y-13706460D02*
X17362039Y-13715984D01*
X17362039Y-13715984D02*
X17381087Y-13715984D01*
X17438230Y-13706460D02*
X17457277Y-13715984D01*
X17457277Y-13715984D02*
X17495373Y-13715984D01*
X17495373Y-13715984D02*
X17514420Y-13706460D01*
X17514420Y-13706460D02*
X17523944Y-13687412D01*
X17523944Y-13687412D02*
X17523944Y-13677888D01*
X17523944Y-13677888D02*
X17514420Y-13658841D01*
X17514420Y-13658841D02*
X17495373Y-13649317D01*
X17495373Y-13649317D02*
X17466801Y-13649317D01*
X17466801Y-13649317D02*
X17447754Y-13639793D01*
X17447754Y-13639793D02*
X17438230Y-13620746D01*
X17438230Y-13620746D02*
X17438230Y-13611222D01*
X17438230Y-13611222D02*
X17447754Y-13592174D01*
X17447754Y-13592174D02*
X17466801Y-13582650D01*
X17466801Y-13582650D02*
X17495373Y-13582650D01*
X17495373Y-13582650D02*
X17514420Y-13592174D01*
X17590611Y-13792174D02*
X17600135Y-13782650D01*
X17600135Y-13782650D02*
X17619182Y-13754079D01*
X17619182Y-13754079D02*
X17628706Y-13735031D01*
X17628706Y-13735031D02*
X17638230Y-13706460D01*
X17638230Y-13706460D02*
X17647754Y-13658841D01*
X17647754Y-13658841D02*
X17647754Y-13620746D01*
X17647754Y-13620746D02*
X17638230Y-13573127D01*
X17638230Y-13573127D02*
X17628706Y-13544555D01*
X17628706Y-13544555D02*
X17619182Y-13525508D01*
X17619182Y-13525508D02*
X17600135Y-13496936D01*
X17600135Y-13496936D02*
X17590611Y-13487412D01*
D12*
X11196500Y-13888500D02*
G75*
G02*
X11125500Y-13888500I-35500J0D01*
G01*
X11125500Y-13888500D02*
G75*
G02*
X11196500Y-13888500I35500J0D01*
G01*
D11*
X11495372Y-13779984D02*
X11514420Y-13779984D01*
X11514420Y-13779984D02*
X11533467Y-13789508D01*
X11533467Y-13789508D02*
X11542991Y-13799031D01*
X11542991Y-13799031D02*
X11552515Y-13818079D01*
X11552515Y-13818079D02*
X11562039Y-13856174D01*
X11562039Y-13856174D02*
X11562039Y-13903793D01*
X11562039Y-13903793D02*
X11552515Y-13941888D01*
X11552515Y-13941888D02*
X11542991Y-13960936D01*
X11542991Y-13960936D02*
X11533467Y-13970460D01*
X11533467Y-13970460D02*
X11514420Y-13979984D01*
X11514420Y-13979984D02*
X11495372Y-13979984D01*
X11495372Y-13979984D02*
X11476324Y-13970460D01*
X11476324Y-13970460D02*
X11466801Y-13960936D01*
X11466801Y-13960936D02*
X11457277Y-13941888D01*
X11457277Y-13941888D02*
X11447753Y-13903793D01*
X11447753Y-13903793D02*
X11447753Y-13856174D01*
X11447753Y-13856174D02*
X11457277Y-13818079D01*
X11457277Y-13818079D02*
X11466801Y-13799031D01*
X11466801Y-13799031D02*
X11476324Y-13789508D01*
X11476324Y-13789508D02*
X11495372Y-13779984D01*
X11647753Y-13960936D02*
X11657277Y-13970460D01*
X11657277Y-13970460D02*
X11647753Y-13979984D01*
X11647753Y-13979984D02*
X11638229Y-13970460D01*
X11638229Y-13970460D02*
X11647753Y-13960936D01*
X11647753Y-13960936D02*
X11647753Y-13979984D01*
X11723943Y-13779984D02*
X11857277Y-13779984D01*
X11857277Y-13779984D02*
X11771562Y-13979984D01*
X12038229Y-13979984D02*
X11923943Y-13979984D01*
X11981086Y-13979984D02*
X11981086Y-13779984D01*
X11981086Y-13779984D02*
X11962039Y-13808555D01*
X11962039Y-13808555D02*
X11942991Y-13827603D01*
X11942991Y-13827603D02*
X11923943Y-13837127D01*
X12162039Y-13779984D02*
X12181086Y-13779984D01*
X12181086Y-13779984D02*
X12200134Y-13789508D01*
X12200134Y-13789508D02*
X12209658Y-13799031D01*
X12209658Y-13799031D02*
X12219182Y-13818079D01*
X12219182Y-13818079D02*
X12228705Y-13856174D01*
X12228705Y-13856174D02*
X12228705Y-13903793D01*
X12228705Y-13903793D02*
X12219182Y-13941888D01*
X12219182Y-13941888D02*
X12209658Y-13960936D01*
X12209658Y-13960936D02*
X12200134Y-13970460D01*
X12200134Y-13970460D02*
X12181086Y-13979984D01*
X12181086Y-13979984D02*
X12162039Y-13979984D01*
X12162039Y-13979984D02*
X12142991Y-13970460D01*
X12142991Y-13970460D02*
X12133467Y-13960936D01*
X12133467Y-13960936D02*
X12123943Y-13941888D01*
X12123943Y-13941888D02*
X12114420Y-13903793D01*
X12114420Y-13903793D02*
X12114420Y-13856174D01*
X12114420Y-13856174D02*
X12123943Y-13818079D01*
X12123943Y-13818079D02*
X12133467Y-13799031D01*
X12133467Y-13799031D02*
X12142991Y-13789508D01*
X12142991Y-13789508D02*
X12162039Y-13779984D01*
X12314420Y-13979984D02*
X12314420Y-13846650D01*
X12314420Y-13865698D02*
X12323943Y-13856174D01*
X12323943Y-13856174D02*
X12342991Y-13846650D01*
X12342991Y-13846650D02*
X12371563Y-13846650D01*
X12371563Y-13846650D02*
X12390610Y-13856174D01*
X12390610Y-13856174D02*
X12400134Y-13875222D01*
X12400134Y-13875222D02*
X12400134Y-13979984D01*
X12400134Y-13875222D02*
X12409658Y-13856174D01*
X12409658Y-13856174D02*
X12428705Y-13846650D01*
X12428705Y-13846650D02*
X12457277Y-13846650D01*
X12457277Y-13846650D02*
X12476324Y-13856174D01*
X12476324Y-13856174D02*
X12485848Y-13875222D01*
X12485848Y-13875222D02*
X12485848Y-13979984D01*
X12581086Y-13979984D02*
X12581086Y-13846650D01*
X12581086Y-13865698D02*
X12590610Y-13856174D01*
X12590610Y-13856174D02*
X12609658Y-13846650D01*
X12609658Y-13846650D02*
X12638229Y-13846650D01*
X12638229Y-13846650D02*
X12657277Y-13856174D01*
X12657277Y-13856174D02*
X12666801Y-13875222D01*
X12666801Y-13875222D02*
X12666801Y-13979984D01*
X12666801Y-13875222D02*
X12676324Y-13856174D01*
X12676324Y-13856174D02*
X12695372Y-13846650D01*
X12695372Y-13846650D02*
X12723943Y-13846650D01*
X12723943Y-13846650D02*
X12742991Y-13856174D01*
X12742991Y-13856174D02*
X12752515Y-13875222D01*
X12752515Y-13875222D02*
X12752515Y-13979984D01*
X13142991Y-13770460D02*
X12971563Y-14027603D01*
X13400134Y-13779984D02*
X13419182Y-13779984D01*
X13419182Y-13779984D02*
X13438229Y-13789508D01*
X13438229Y-13789508D02*
X13447753Y-13799031D01*
X13447753Y-13799031D02*
X13457277Y-13818079D01*
X13457277Y-13818079D02*
X13466801Y-13856174D01*
X13466801Y-13856174D02*
X13466801Y-13903793D01*
X13466801Y-13903793D02*
X13457277Y-13941888D01*
X13457277Y-13941888D02*
X13447753Y-13960936D01*
X13447753Y-13960936D02*
X13438229Y-13970460D01*
X13438229Y-13970460D02*
X13419182Y-13979984D01*
X13419182Y-13979984D02*
X13400134Y-13979984D01*
X13400134Y-13979984D02*
X13381086Y-13970460D01*
X13381086Y-13970460D02*
X13371563Y-13960936D01*
X13371563Y-13960936D02*
X13362039Y-13941888D01*
X13362039Y-13941888D02*
X13352515Y-13903793D01*
X13352515Y-13903793D02*
X13352515Y-13856174D01*
X13352515Y-13856174D02*
X13362039Y-13818079D01*
X13362039Y-13818079D02*
X13371563Y-13799031D01*
X13371563Y-13799031D02*
X13381086Y-13789508D01*
X13381086Y-13789508D02*
X13400134Y-13779984D01*
X13552515Y-13960936D02*
X13562039Y-13970460D01*
X13562039Y-13970460D02*
X13552515Y-13979984D01*
X13552515Y-13979984D02*
X13542991Y-13970460D01*
X13542991Y-13970460D02*
X13552515Y-13960936D01*
X13552515Y-13960936D02*
X13552515Y-13979984D01*
X13685848Y-13779984D02*
X13704896Y-13779984D01*
X13704896Y-13779984D02*
X13723944Y-13789508D01*
X13723944Y-13789508D02*
X13733467Y-13799031D01*
X13733467Y-13799031D02*
X13742991Y-13818079D01*
X13742991Y-13818079D02*
X13752515Y-13856174D01*
X13752515Y-13856174D02*
X13752515Y-13903793D01*
X13752515Y-13903793D02*
X13742991Y-13941888D01*
X13742991Y-13941888D02*
X13733467Y-13960936D01*
X13733467Y-13960936D02*
X13723944Y-13970460D01*
X13723944Y-13970460D02*
X13704896Y-13979984D01*
X13704896Y-13979984D02*
X13685848Y-13979984D01*
X13685848Y-13979984D02*
X13666801Y-13970460D01*
X13666801Y-13970460D02*
X13657277Y-13960936D01*
X13657277Y-13960936D02*
X13647753Y-13941888D01*
X13647753Y-13941888D02*
X13638229Y-13903793D01*
X13638229Y-13903793D02*
X13638229Y-13856174D01*
X13638229Y-13856174D02*
X13647753Y-13818079D01*
X13647753Y-13818079D02*
X13657277Y-13799031D01*
X13657277Y-13799031D02*
X13666801Y-13789508D01*
X13666801Y-13789508D02*
X13685848Y-13779984D01*
X13828706Y-13799031D02*
X13838229Y-13789508D01*
X13838229Y-13789508D02*
X13857277Y-13779984D01*
X13857277Y-13779984D02*
X13904896Y-13779984D01*
X13904896Y-13779984D02*
X13923944Y-13789508D01*
X13923944Y-13789508D02*
X13933467Y-13799031D01*
X13933467Y-13799031D02*
X13942991Y-13818079D01*
X13942991Y-13818079D02*
X13942991Y-13837127D01*
X13942991Y-13837127D02*
X13933467Y-13865698D01*
X13933467Y-13865698D02*
X13819182Y-13979984D01*
X13819182Y-13979984D02*
X13942991Y-13979984D01*
X14057277Y-13865698D02*
X14038229Y-13856174D01*
X14038229Y-13856174D02*
X14028706Y-13846650D01*
X14028706Y-13846650D02*
X14019182Y-13827603D01*
X14019182Y-13827603D02*
X14019182Y-13818079D01*
X14019182Y-13818079D02*
X14028706Y-13799031D01*
X14028706Y-13799031D02*
X14038229Y-13789508D01*
X14038229Y-13789508D02*
X14057277Y-13779984D01*
X14057277Y-13779984D02*
X14095372Y-13779984D01*
X14095372Y-13779984D02*
X14114420Y-13789508D01*
X14114420Y-13789508D02*
X14123944Y-13799031D01*
X14123944Y-13799031D02*
X14133467Y-13818079D01*
X14133467Y-13818079D02*
X14133467Y-13827603D01*
X14133467Y-13827603D02*
X14123944Y-13846650D01*
X14123944Y-13846650D02*
X14114420Y-13856174D01*
X14114420Y-13856174D02*
X14095372Y-13865698D01*
X14095372Y-13865698D02*
X14057277Y-13865698D01*
X14057277Y-13865698D02*
X14038229Y-13875222D01*
X14038229Y-13875222D02*
X14028706Y-13884746D01*
X14028706Y-13884746D02*
X14019182Y-13903793D01*
X14019182Y-13903793D02*
X14019182Y-13941888D01*
X14019182Y-13941888D02*
X14028706Y-13960936D01*
X14028706Y-13960936D02*
X14038229Y-13970460D01*
X14038229Y-13970460D02*
X14057277Y-13979984D01*
X14057277Y-13979984D02*
X14095372Y-13979984D01*
X14095372Y-13979984D02*
X14114420Y-13970460D01*
X14114420Y-13970460D02*
X14123944Y-13960936D01*
X14123944Y-13960936D02*
X14133467Y-13941888D01*
X14133467Y-13941888D02*
X14133467Y-13903793D01*
X14133467Y-13903793D02*
X14123944Y-13884746D01*
X14123944Y-13884746D02*
X14114420Y-13875222D01*
X14114420Y-13875222D02*
X14095372Y-13865698D01*
X14257277Y-13779984D02*
X14276325Y-13779984D01*
X14276325Y-13779984D02*
X14295372Y-13789508D01*
X14295372Y-13789508D02*
X14304896Y-13799031D01*
X14304896Y-13799031D02*
X14314420Y-13818079D01*
X14314420Y-13818079D02*
X14323944Y-13856174D01*
X14323944Y-13856174D02*
X14323944Y-13903793D01*
X14323944Y-13903793D02*
X14314420Y-13941888D01*
X14314420Y-13941888D02*
X14304896Y-13960936D01*
X14304896Y-13960936D02*
X14295372Y-13970460D01*
X14295372Y-13970460D02*
X14276325Y-13979984D01*
X14276325Y-13979984D02*
X14257277Y-13979984D01*
X14257277Y-13979984D02*
X14238229Y-13970460D01*
X14238229Y-13970460D02*
X14228706Y-13960936D01*
X14228706Y-13960936D02*
X14219182Y-13941888D01*
X14219182Y-13941888D02*
X14209658Y-13903793D01*
X14209658Y-13903793D02*
X14209658Y-13856174D01*
X14209658Y-13856174D02*
X14219182Y-13818079D01*
X14219182Y-13818079D02*
X14228706Y-13799031D01*
X14228706Y-13799031D02*
X14238229Y-13789508D01*
X14238229Y-13789508D02*
X14257277Y-13779984D01*
X14400134Y-13779984D02*
X14400134Y-13818079D01*
X14476325Y-13779984D02*
X14476325Y-13818079D01*
X14771563Y-14056174D02*
X14762039Y-14046650D01*
X14762039Y-14046650D02*
X14742991Y-14018079D01*
X14742991Y-14018079D02*
X14733468Y-13999031D01*
X14733468Y-13999031D02*
X14723944Y-13970460D01*
X14723944Y-13970460D02*
X14714420Y-13922841D01*
X14714420Y-13922841D02*
X14714420Y-13884746D01*
X14714420Y-13884746D02*
X14723944Y-13837127D01*
X14723944Y-13837127D02*
X14733468Y-13808555D01*
X14733468Y-13808555D02*
X14742991Y-13789508D01*
X14742991Y-13789508D02*
X14762039Y-13760936D01*
X14762039Y-13760936D02*
X14771563Y-13751412D01*
X14828706Y-13779984D02*
X14952515Y-13779984D01*
X14952515Y-13779984D02*
X14885848Y-13856174D01*
X14885848Y-13856174D02*
X14914420Y-13856174D01*
X14914420Y-13856174D02*
X14933468Y-13865698D01*
X14933468Y-13865698D02*
X14942991Y-13875222D01*
X14942991Y-13875222D02*
X14952515Y-13894269D01*
X14952515Y-13894269D02*
X14952515Y-13941888D01*
X14952515Y-13941888D02*
X14942991Y-13960936D01*
X14942991Y-13960936D02*
X14933468Y-13970460D01*
X14933468Y-13970460D02*
X14914420Y-13979984D01*
X14914420Y-13979984D02*
X14857277Y-13979984D01*
X14857277Y-13979984D02*
X14838229Y-13970460D01*
X14838229Y-13970460D02*
X14828706Y-13960936D01*
X15190610Y-13979984D02*
X15190610Y-13779984D01*
X15276325Y-13979984D02*
X15276325Y-13875222D01*
X15276325Y-13875222D02*
X15266801Y-13856174D01*
X15266801Y-13856174D02*
X15247753Y-13846650D01*
X15247753Y-13846650D02*
X15219182Y-13846650D01*
X15219182Y-13846650D02*
X15200134Y-13856174D01*
X15200134Y-13856174D02*
X15190610Y-13865698D01*
X15400134Y-13979984D02*
X15381087Y-13970460D01*
X15381087Y-13970460D02*
X15371563Y-13960936D01*
X15371563Y-13960936D02*
X15362039Y-13941888D01*
X15362039Y-13941888D02*
X15362039Y-13884746D01*
X15362039Y-13884746D02*
X15371563Y-13865698D01*
X15371563Y-13865698D02*
X15381087Y-13856174D01*
X15381087Y-13856174D02*
X15400134Y-13846650D01*
X15400134Y-13846650D02*
X15428706Y-13846650D01*
X15428706Y-13846650D02*
X15447753Y-13856174D01*
X15447753Y-13856174D02*
X15457277Y-13865698D01*
X15457277Y-13865698D02*
X15466801Y-13884746D01*
X15466801Y-13884746D02*
X15466801Y-13941888D01*
X15466801Y-13941888D02*
X15457277Y-13960936D01*
X15457277Y-13960936D02*
X15447753Y-13970460D01*
X15447753Y-13970460D02*
X15428706Y-13979984D01*
X15428706Y-13979984D02*
X15400134Y-13979984D01*
X15581087Y-13979984D02*
X15562039Y-13970460D01*
X15562039Y-13970460D02*
X15552515Y-13951412D01*
X15552515Y-13951412D02*
X15552515Y-13779984D01*
X15733468Y-13970460D02*
X15714420Y-13979984D01*
X15714420Y-13979984D02*
X15676325Y-13979984D01*
X15676325Y-13979984D02*
X15657277Y-13970460D01*
X15657277Y-13970460D02*
X15647753Y-13951412D01*
X15647753Y-13951412D02*
X15647753Y-13875222D01*
X15647753Y-13875222D02*
X15657277Y-13856174D01*
X15657277Y-13856174D02*
X15676325Y-13846650D01*
X15676325Y-13846650D02*
X15714420Y-13846650D01*
X15714420Y-13846650D02*
X15733468Y-13856174D01*
X15733468Y-13856174D02*
X15742991Y-13875222D01*
X15742991Y-13875222D02*
X15742991Y-13894269D01*
X15742991Y-13894269D02*
X15647753Y-13913317D01*
X15819182Y-13970460D02*
X15838230Y-13979984D01*
X15838230Y-13979984D02*
X15876325Y-13979984D01*
X15876325Y-13979984D02*
X15895372Y-13970460D01*
X15895372Y-13970460D02*
X15904896Y-13951412D01*
X15904896Y-13951412D02*
X15904896Y-13941888D01*
X15904896Y-13941888D02*
X15895372Y-13922841D01*
X15895372Y-13922841D02*
X15876325Y-13913317D01*
X15876325Y-13913317D02*
X15847753Y-13913317D01*
X15847753Y-13913317D02*
X15828706Y-13903793D01*
X15828706Y-13903793D02*
X15819182Y-13884746D01*
X15819182Y-13884746D02*
X15819182Y-13875222D01*
X15819182Y-13875222D02*
X15828706Y-13856174D01*
X15828706Y-13856174D02*
X15847753Y-13846650D01*
X15847753Y-13846650D02*
X15876325Y-13846650D01*
X15876325Y-13846650D02*
X15895372Y-13856174D01*
X15971563Y-14056174D02*
X15981087Y-14046650D01*
X15981087Y-14046650D02*
X16000134Y-14018079D01*
X16000134Y-14018079D02*
X16009658Y-13999031D01*
X16009658Y-13999031D02*
X16019182Y-13970460D01*
X16019182Y-13970460D02*
X16028706Y-13922841D01*
X16028706Y-13922841D02*
X16028706Y-13884746D01*
X16028706Y-13884746D02*
X16019182Y-13837127D01*
X16019182Y-13837127D02*
X16009658Y-13808555D01*
X16009658Y-13808555D02*
X16000134Y-13789508D01*
X16000134Y-13789508D02*
X15981087Y-13760936D01*
X15981087Y-13760936D02*
X15971563Y-13751412D01*
D12*
X11146500Y-14102500D02*
X11146500Y-14202500D01*
X11096500Y-14152500D02*
X11196500Y-14152500D01*
D11*
X11562039Y-14243984D02*
X11447753Y-14243984D01*
X11504896Y-14243984D02*
X11504896Y-14043984D01*
X11504896Y-14043984D02*
X11485848Y-14072555D01*
X11485848Y-14072555D02*
X11466801Y-14091603D01*
X11466801Y-14091603D02*
X11447753Y-14101127D01*
X11647753Y-14224936D02*
X11657277Y-14234460D01*
X11657277Y-14234460D02*
X11647753Y-14243984D01*
X11647753Y-14243984D02*
X11638229Y-14234460D01*
X11638229Y-14234460D02*
X11647753Y-14224936D01*
X11647753Y-14224936D02*
X11647753Y-14243984D01*
X11781086Y-14043984D02*
X11800134Y-14043984D01*
X11800134Y-14043984D02*
X11819182Y-14053508D01*
X11819182Y-14053508D02*
X11828705Y-14063031D01*
X11828705Y-14063031D02*
X11838229Y-14082079D01*
X11838229Y-14082079D02*
X11847753Y-14120174D01*
X11847753Y-14120174D02*
X11847753Y-14167793D01*
X11847753Y-14167793D02*
X11838229Y-14205888D01*
X11838229Y-14205888D02*
X11828705Y-14224936D01*
X11828705Y-14224936D02*
X11819182Y-14234460D01*
X11819182Y-14234460D02*
X11800134Y-14243984D01*
X11800134Y-14243984D02*
X11781086Y-14243984D01*
X11781086Y-14243984D02*
X11762039Y-14234460D01*
X11762039Y-14234460D02*
X11752515Y-14224936D01*
X11752515Y-14224936D02*
X11742991Y-14205888D01*
X11742991Y-14205888D02*
X11733467Y-14167793D01*
X11733467Y-14167793D02*
X11733467Y-14120174D01*
X11733467Y-14120174D02*
X11742991Y-14082079D01*
X11742991Y-14082079D02*
X11752515Y-14063031D01*
X11752515Y-14063031D02*
X11762039Y-14053508D01*
X11762039Y-14053508D02*
X11781086Y-14043984D01*
X11971562Y-14043984D02*
X11990610Y-14043984D01*
X11990610Y-14043984D02*
X12009658Y-14053508D01*
X12009658Y-14053508D02*
X12019182Y-14063031D01*
X12019182Y-14063031D02*
X12028705Y-14082079D01*
X12028705Y-14082079D02*
X12038229Y-14120174D01*
X12038229Y-14120174D02*
X12038229Y-14167793D01*
X12038229Y-14167793D02*
X12028705Y-14205888D01*
X12028705Y-14205888D02*
X12019182Y-14224936D01*
X12019182Y-14224936D02*
X12009658Y-14234460D01*
X12009658Y-14234460D02*
X11990610Y-14243984D01*
X11990610Y-14243984D02*
X11971562Y-14243984D01*
X11971562Y-14243984D02*
X11952515Y-14234460D01*
X11952515Y-14234460D02*
X11942991Y-14224936D01*
X11942991Y-14224936D02*
X11933467Y-14205888D01*
X11933467Y-14205888D02*
X11923943Y-14167793D01*
X11923943Y-14167793D02*
X11923943Y-14120174D01*
X11923943Y-14120174D02*
X11933467Y-14082079D01*
X11933467Y-14082079D02*
X11942991Y-14063031D01*
X11942991Y-14063031D02*
X11952515Y-14053508D01*
X11952515Y-14053508D02*
X11971562Y-14043984D01*
X12162039Y-14043984D02*
X12181086Y-14043984D01*
X12181086Y-14043984D02*
X12200134Y-14053508D01*
X12200134Y-14053508D02*
X12209658Y-14063031D01*
X12209658Y-14063031D02*
X12219182Y-14082079D01*
X12219182Y-14082079D02*
X12228705Y-14120174D01*
X12228705Y-14120174D02*
X12228705Y-14167793D01*
X12228705Y-14167793D02*
X12219182Y-14205888D01*
X12219182Y-14205888D02*
X12209658Y-14224936D01*
X12209658Y-14224936D02*
X12200134Y-14234460D01*
X12200134Y-14234460D02*
X12181086Y-14243984D01*
X12181086Y-14243984D02*
X12162039Y-14243984D01*
X12162039Y-14243984D02*
X12142991Y-14234460D01*
X12142991Y-14234460D02*
X12133467Y-14224936D01*
X12133467Y-14224936D02*
X12123943Y-14205888D01*
X12123943Y-14205888D02*
X12114420Y-14167793D01*
X12114420Y-14167793D02*
X12114420Y-14120174D01*
X12114420Y-14120174D02*
X12123943Y-14082079D01*
X12123943Y-14082079D02*
X12133467Y-14063031D01*
X12133467Y-14063031D02*
X12142991Y-14053508D01*
X12142991Y-14053508D02*
X12162039Y-14043984D01*
X12314420Y-14243984D02*
X12314420Y-14110650D01*
X12314420Y-14129698D02*
X12323943Y-14120174D01*
X12323943Y-14120174D02*
X12342991Y-14110650D01*
X12342991Y-14110650D02*
X12371563Y-14110650D01*
X12371563Y-14110650D02*
X12390610Y-14120174D01*
X12390610Y-14120174D02*
X12400134Y-14139222D01*
X12400134Y-14139222D02*
X12400134Y-14243984D01*
X12400134Y-14139222D02*
X12409658Y-14120174D01*
X12409658Y-14120174D02*
X12428705Y-14110650D01*
X12428705Y-14110650D02*
X12457277Y-14110650D01*
X12457277Y-14110650D02*
X12476324Y-14120174D01*
X12476324Y-14120174D02*
X12485848Y-14139222D01*
X12485848Y-14139222D02*
X12485848Y-14243984D01*
X12581086Y-14243984D02*
X12581086Y-14110650D01*
X12581086Y-14129698D02*
X12590610Y-14120174D01*
X12590610Y-14120174D02*
X12609658Y-14110650D01*
X12609658Y-14110650D02*
X12638229Y-14110650D01*
X12638229Y-14110650D02*
X12657277Y-14120174D01*
X12657277Y-14120174D02*
X12666801Y-14139222D01*
X12666801Y-14139222D02*
X12666801Y-14243984D01*
X12666801Y-14139222D02*
X12676324Y-14120174D01*
X12676324Y-14120174D02*
X12695372Y-14110650D01*
X12695372Y-14110650D02*
X12723943Y-14110650D01*
X12723943Y-14110650D02*
X12742991Y-14120174D01*
X12742991Y-14120174D02*
X12752515Y-14139222D01*
X12752515Y-14139222D02*
X12752515Y-14243984D01*
X13142991Y-14034460D02*
X12971563Y-14291603D01*
X13400134Y-14043984D02*
X13419182Y-14043984D01*
X13419182Y-14043984D02*
X13438229Y-14053508D01*
X13438229Y-14053508D02*
X13447753Y-14063031D01*
X13447753Y-14063031D02*
X13457277Y-14082079D01*
X13457277Y-14082079D02*
X13466801Y-14120174D01*
X13466801Y-14120174D02*
X13466801Y-14167793D01*
X13466801Y-14167793D02*
X13457277Y-14205888D01*
X13457277Y-14205888D02*
X13447753Y-14224936D01*
X13447753Y-14224936D02*
X13438229Y-14234460D01*
X13438229Y-14234460D02*
X13419182Y-14243984D01*
X13419182Y-14243984D02*
X13400134Y-14243984D01*
X13400134Y-14243984D02*
X13381086Y-14234460D01*
X13381086Y-14234460D02*
X13371563Y-14224936D01*
X13371563Y-14224936D02*
X13362039Y-14205888D01*
X13362039Y-14205888D02*
X13352515Y-14167793D01*
X13352515Y-14167793D02*
X13352515Y-14120174D01*
X13352515Y-14120174D02*
X13362039Y-14082079D01*
X13362039Y-14082079D02*
X13371563Y-14063031D01*
X13371563Y-14063031D02*
X13381086Y-14053508D01*
X13381086Y-14053508D02*
X13400134Y-14043984D01*
X13552515Y-14224936D02*
X13562039Y-14234460D01*
X13562039Y-14234460D02*
X13552515Y-14243984D01*
X13552515Y-14243984D02*
X13542991Y-14234460D01*
X13542991Y-14234460D02*
X13552515Y-14224936D01*
X13552515Y-14224936D02*
X13552515Y-14243984D01*
X13685848Y-14043984D02*
X13704896Y-14043984D01*
X13704896Y-14043984D02*
X13723944Y-14053508D01*
X13723944Y-14053508D02*
X13733467Y-14063031D01*
X13733467Y-14063031D02*
X13742991Y-14082079D01*
X13742991Y-14082079D02*
X13752515Y-14120174D01*
X13752515Y-14120174D02*
X13752515Y-14167793D01*
X13752515Y-14167793D02*
X13742991Y-14205888D01*
X13742991Y-14205888D02*
X13733467Y-14224936D01*
X13733467Y-14224936D02*
X13723944Y-14234460D01*
X13723944Y-14234460D02*
X13704896Y-14243984D01*
X13704896Y-14243984D02*
X13685848Y-14243984D01*
X13685848Y-14243984D02*
X13666801Y-14234460D01*
X13666801Y-14234460D02*
X13657277Y-14224936D01*
X13657277Y-14224936D02*
X13647753Y-14205888D01*
X13647753Y-14205888D02*
X13638229Y-14167793D01*
X13638229Y-14167793D02*
X13638229Y-14120174D01*
X13638229Y-14120174D02*
X13647753Y-14082079D01*
X13647753Y-14082079D02*
X13657277Y-14063031D01*
X13657277Y-14063031D02*
X13666801Y-14053508D01*
X13666801Y-14053508D02*
X13685848Y-14043984D01*
X13819182Y-14043984D02*
X13942991Y-14043984D01*
X13942991Y-14043984D02*
X13876325Y-14120174D01*
X13876325Y-14120174D02*
X13904896Y-14120174D01*
X13904896Y-14120174D02*
X13923944Y-14129698D01*
X13923944Y-14129698D02*
X13933467Y-14139222D01*
X13933467Y-14139222D02*
X13942991Y-14158269D01*
X13942991Y-14158269D02*
X13942991Y-14205888D01*
X13942991Y-14205888D02*
X13933467Y-14224936D01*
X13933467Y-14224936D02*
X13923944Y-14234460D01*
X13923944Y-14234460D02*
X13904896Y-14243984D01*
X13904896Y-14243984D02*
X13847753Y-14243984D01*
X13847753Y-14243984D02*
X13828706Y-14234460D01*
X13828706Y-14234460D02*
X13819182Y-14224936D01*
X14038229Y-14243984D02*
X14076325Y-14243984D01*
X14076325Y-14243984D02*
X14095372Y-14234460D01*
X14095372Y-14234460D02*
X14104896Y-14224936D01*
X14104896Y-14224936D02*
X14123944Y-14196365D01*
X14123944Y-14196365D02*
X14133467Y-14158269D01*
X14133467Y-14158269D02*
X14133467Y-14082079D01*
X14133467Y-14082079D02*
X14123944Y-14063031D01*
X14123944Y-14063031D02*
X14114420Y-14053508D01*
X14114420Y-14053508D02*
X14095372Y-14043984D01*
X14095372Y-14043984D02*
X14057277Y-14043984D01*
X14057277Y-14043984D02*
X14038229Y-14053508D01*
X14038229Y-14053508D02*
X14028706Y-14063031D01*
X14028706Y-14063031D02*
X14019182Y-14082079D01*
X14019182Y-14082079D02*
X14019182Y-14129698D01*
X14019182Y-14129698D02*
X14028706Y-14148746D01*
X14028706Y-14148746D02*
X14038229Y-14158269D01*
X14038229Y-14158269D02*
X14057277Y-14167793D01*
X14057277Y-14167793D02*
X14095372Y-14167793D01*
X14095372Y-14167793D02*
X14114420Y-14158269D01*
X14114420Y-14158269D02*
X14123944Y-14148746D01*
X14123944Y-14148746D02*
X14133467Y-14129698D01*
X14304896Y-14110650D02*
X14304896Y-14243984D01*
X14257277Y-14034460D02*
X14209658Y-14177317D01*
X14209658Y-14177317D02*
X14333467Y-14177317D01*
X14400134Y-14043984D02*
X14400134Y-14082079D01*
X14476325Y-14043984D02*
X14476325Y-14082079D01*
X14771563Y-14320174D02*
X14762039Y-14310650D01*
X14762039Y-14310650D02*
X14742991Y-14282079D01*
X14742991Y-14282079D02*
X14733468Y-14263031D01*
X14733468Y-14263031D02*
X14723944Y-14234460D01*
X14723944Y-14234460D02*
X14714420Y-14186841D01*
X14714420Y-14186841D02*
X14714420Y-14148746D01*
X14714420Y-14148746D02*
X14723944Y-14101127D01*
X14723944Y-14101127D02*
X14733468Y-14072555D01*
X14733468Y-14072555D02*
X14742991Y-14053508D01*
X14742991Y-14053508D02*
X14762039Y-14024936D01*
X14762039Y-14024936D02*
X14771563Y-14015412D01*
X14942991Y-14043984D02*
X14847753Y-14043984D01*
X14847753Y-14043984D02*
X14838229Y-14139222D01*
X14838229Y-14139222D02*
X14847753Y-14129698D01*
X14847753Y-14129698D02*
X14866801Y-14120174D01*
X14866801Y-14120174D02*
X14914420Y-14120174D01*
X14914420Y-14120174D02*
X14933468Y-14129698D01*
X14933468Y-14129698D02*
X14942991Y-14139222D01*
X14942991Y-14139222D02*
X14952515Y-14158269D01*
X14952515Y-14158269D02*
X14952515Y-14205888D01*
X14952515Y-14205888D02*
X14942991Y-14224936D01*
X14942991Y-14224936D02*
X14933468Y-14234460D01*
X14933468Y-14234460D02*
X14914420Y-14243984D01*
X14914420Y-14243984D02*
X14866801Y-14243984D01*
X14866801Y-14243984D02*
X14847753Y-14234460D01*
X14847753Y-14234460D02*
X14838229Y-14224936D01*
X15190610Y-14243984D02*
X15190610Y-14043984D01*
X15276325Y-14243984D02*
X15276325Y-14139222D01*
X15276325Y-14139222D02*
X15266801Y-14120174D01*
X15266801Y-14120174D02*
X15247753Y-14110650D01*
X15247753Y-14110650D02*
X15219182Y-14110650D01*
X15219182Y-14110650D02*
X15200134Y-14120174D01*
X15200134Y-14120174D02*
X15190610Y-14129698D01*
X15400134Y-14243984D02*
X15381087Y-14234460D01*
X15381087Y-14234460D02*
X15371563Y-14224936D01*
X15371563Y-14224936D02*
X15362039Y-14205888D01*
X15362039Y-14205888D02*
X15362039Y-14148746D01*
X15362039Y-14148746D02*
X15371563Y-14129698D01*
X15371563Y-14129698D02*
X15381087Y-14120174D01*
X15381087Y-14120174D02*
X15400134Y-14110650D01*
X15400134Y-14110650D02*
X15428706Y-14110650D01*
X15428706Y-14110650D02*
X15447753Y-14120174D01*
X15447753Y-14120174D02*
X15457277Y-14129698D01*
X15457277Y-14129698D02*
X15466801Y-14148746D01*
X15466801Y-14148746D02*
X15466801Y-14205888D01*
X15466801Y-14205888D02*
X15457277Y-14224936D01*
X15457277Y-14224936D02*
X15447753Y-14234460D01*
X15447753Y-14234460D02*
X15428706Y-14243984D01*
X15428706Y-14243984D02*
X15400134Y-14243984D01*
X15581087Y-14243984D02*
X15562039Y-14234460D01*
X15562039Y-14234460D02*
X15552515Y-14215412D01*
X15552515Y-14215412D02*
X15552515Y-14043984D01*
X15733468Y-14234460D02*
X15714420Y-14243984D01*
X15714420Y-14243984D02*
X15676325Y-14243984D01*
X15676325Y-14243984D02*
X15657277Y-14234460D01*
X15657277Y-14234460D02*
X15647753Y-14215412D01*
X15647753Y-14215412D02*
X15647753Y-14139222D01*
X15647753Y-14139222D02*
X15657277Y-14120174D01*
X15657277Y-14120174D02*
X15676325Y-14110650D01*
X15676325Y-14110650D02*
X15714420Y-14110650D01*
X15714420Y-14110650D02*
X15733468Y-14120174D01*
X15733468Y-14120174D02*
X15742991Y-14139222D01*
X15742991Y-14139222D02*
X15742991Y-14158269D01*
X15742991Y-14158269D02*
X15647753Y-14177317D01*
X15819182Y-14234460D02*
X15838230Y-14243984D01*
X15838230Y-14243984D02*
X15876325Y-14243984D01*
X15876325Y-14243984D02*
X15895372Y-14234460D01*
X15895372Y-14234460D02*
X15904896Y-14215412D01*
X15904896Y-14215412D02*
X15904896Y-14205888D01*
X15904896Y-14205888D02*
X15895372Y-14186841D01*
X15895372Y-14186841D02*
X15876325Y-14177317D01*
X15876325Y-14177317D02*
X15847753Y-14177317D01*
X15847753Y-14177317D02*
X15828706Y-14167793D01*
X15828706Y-14167793D02*
X15819182Y-14148746D01*
X15819182Y-14148746D02*
X15819182Y-14139222D01*
X15819182Y-14139222D02*
X15828706Y-14120174D01*
X15828706Y-14120174D02*
X15847753Y-14110650D01*
X15847753Y-14110650D02*
X15876325Y-14110650D01*
X15876325Y-14110650D02*
X15895372Y-14120174D01*
X15971563Y-14320174D02*
X15981087Y-14310650D01*
X15981087Y-14310650D02*
X16000134Y-14282079D01*
X16000134Y-14282079D02*
X16009658Y-14263031D01*
X16009658Y-14263031D02*
X16019182Y-14234460D01*
X16019182Y-14234460D02*
X16028706Y-14186841D01*
X16028706Y-14186841D02*
X16028706Y-14148746D01*
X16028706Y-14148746D02*
X16019182Y-14101127D01*
X16019182Y-14101127D02*
X16009658Y-14072555D01*
X16009658Y-14072555D02*
X16000134Y-14053508D01*
X16000134Y-14053508D02*
X15981087Y-14024936D01*
X15981087Y-14024936D02*
X15971563Y-14015412D01*
D13*
X11181621Y-14452421D02*
X11181621Y-14380579D01*
X11109779Y-14380579D01*
X11109779Y-14452421D01*
X11181621Y-14452421D01*
D11*
X11562039Y-14507984D02*
X11447753Y-14507984D01*
X11504896Y-14507984D02*
X11504896Y-14307984D01*
X11504896Y-14307984D02*
X11485848Y-14336555D01*
X11485848Y-14336555D02*
X11466801Y-14355603D01*
X11466801Y-14355603D02*
X11447753Y-14365127D01*
X11647753Y-14488936D02*
X11657277Y-14498460D01*
X11657277Y-14498460D02*
X11647753Y-14507984D01*
X11647753Y-14507984D02*
X11638229Y-14498460D01*
X11638229Y-14498460D02*
X11647753Y-14488936D01*
X11647753Y-14488936D02*
X11647753Y-14507984D01*
X11781086Y-14307984D02*
X11800134Y-14307984D01*
X11800134Y-14307984D02*
X11819182Y-14317508D01*
X11819182Y-14317508D02*
X11828705Y-14327031D01*
X11828705Y-14327031D02*
X11838229Y-14346079D01*
X11838229Y-14346079D02*
X11847753Y-14384174D01*
X11847753Y-14384174D02*
X11847753Y-14431793D01*
X11847753Y-14431793D02*
X11838229Y-14469888D01*
X11838229Y-14469888D02*
X11828705Y-14488936D01*
X11828705Y-14488936D02*
X11819182Y-14498460D01*
X11819182Y-14498460D02*
X11800134Y-14507984D01*
X11800134Y-14507984D02*
X11781086Y-14507984D01*
X11781086Y-14507984D02*
X11762039Y-14498460D01*
X11762039Y-14498460D02*
X11752515Y-14488936D01*
X11752515Y-14488936D02*
X11742991Y-14469888D01*
X11742991Y-14469888D02*
X11733467Y-14431793D01*
X11733467Y-14431793D02*
X11733467Y-14384174D01*
X11733467Y-14384174D02*
X11742991Y-14346079D01*
X11742991Y-14346079D02*
X11752515Y-14327031D01*
X11752515Y-14327031D02*
X11762039Y-14317508D01*
X11762039Y-14317508D02*
X11781086Y-14307984D01*
X12038229Y-14507984D02*
X11923943Y-14507984D01*
X11981086Y-14507984D02*
X11981086Y-14307984D01*
X11981086Y-14307984D02*
X11962039Y-14336555D01*
X11962039Y-14336555D02*
X11942991Y-14355603D01*
X11942991Y-14355603D02*
X11923943Y-14365127D01*
X12209658Y-14307984D02*
X12171562Y-14307984D01*
X12171562Y-14307984D02*
X12152515Y-14317508D01*
X12152515Y-14317508D02*
X12142991Y-14327031D01*
X12142991Y-14327031D02*
X12123943Y-14355603D01*
X12123943Y-14355603D02*
X12114420Y-14393698D01*
X12114420Y-14393698D02*
X12114420Y-14469888D01*
X12114420Y-14469888D02*
X12123943Y-14488936D01*
X12123943Y-14488936D02*
X12133467Y-14498460D01*
X12133467Y-14498460D02*
X12152515Y-14507984D01*
X12152515Y-14507984D02*
X12190610Y-14507984D01*
X12190610Y-14507984D02*
X12209658Y-14498460D01*
X12209658Y-14498460D02*
X12219182Y-14488936D01*
X12219182Y-14488936D02*
X12228705Y-14469888D01*
X12228705Y-14469888D02*
X12228705Y-14422269D01*
X12228705Y-14422269D02*
X12219182Y-14403222D01*
X12219182Y-14403222D02*
X12209658Y-14393698D01*
X12209658Y-14393698D02*
X12190610Y-14384174D01*
X12190610Y-14384174D02*
X12152515Y-14384174D01*
X12152515Y-14384174D02*
X12133467Y-14393698D01*
X12133467Y-14393698D02*
X12123943Y-14403222D01*
X12123943Y-14403222D02*
X12114420Y-14422269D01*
X12314420Y-14507984D02*
X12314420Y-14374650D01*
X12314420Y-14393698D02*
X12323943Y-14384174D01*
X12323943Y-14384174D02*
X12342991Y-14374650D01*
X12342991Y-14374650D02*
X12371563Y-14374650D01*
X12371563Y-14374650D02*
X12390610Y-14384174D01*
X12390610Y-14384174D02*
X12400134Y-14403222D01*
X12400134Y-14403222D02*
X12400134Y-14507984D01*
X12400134Y-14403222D02*
X12409658Y-14384174D01*
X12409658Y-14384174D02*
X12428705Y-14374650D01*
X12428705Y-14374650D02*
X12457277Y-14374650D01*
X12457277Y-14374650D02*
X12476324Y-14384174D01*
X12476324Y-14384174D02*
X12485848Y-14403222D01*
X12485848Y-14403222D02*
X12485848Y-14507984D01*
X12581086Y-14507984D02*
X12581086Y-14374650D01*
X12581086Y-14393698D02*
X12590610Y-14384174D01*
X12590610Y-14384174D02*
X12609658Y-14374650D01*
X12609658Y-14374650D02*
X12638229Y-14374650D01*
X12638229Y-14374650D02*
X12657277Y-14384174D01*
X12657277Y-14384174D02*
X12666801Y-14403222D01*
X12666801Y-14403222D02*
X12666801Y-14507984D01*
X12666801Y-14403222D02*
X12676324Y-14384174D01*
X12676324Y-14384174D02*
X12695372Y-14374650D01*
X12695372Y-14374650D02*
X12723943Y-14374650D01*
X12723943Y-14374650D02*
X12742991Y-14384174D01*
X12742991Y-14384174D02*
X12752515Y-14403222D01*
X12752515Y-14403222D02*
X12752515Y-14507984D01*
X13142991Y-14298460D02*
X12971563Y-14555603D01*
X13400134Y-14307984D02*
X13419182Y-14307984D01*
X13419182Y-14307984D02*
X13438229Y-14317508D01*
X13438229Y-14317508D02*
X13447753Y-14327031D01*
X13447753Y-14327031D02*
X13457277Y-14346079D01*
X13457277Y-14346079D02*
X13466801Y-14384174D01*
X13466801Y-14384174D02*
X13466801Y-14431793D01*
X13466801Y-14431793D02*
X13457277Y-14469888D01*
X13457277Y-14469888D02*
X13447753Y-14488936D01*
X13447753Y-14488936D02*
X13438229Y-14498460D01*
X13438229Y-14498460D02*
X13419182Y-14507984D01*
X13419182Y-14507984D02*
X13400134Y-14507984D01*
X13400134Y-14507984D02*
X13381086Y-14498460D01*
X13381086Y-14498460D02*
X13371563Y-14488936D01*
X13371563Y-14488936D02*
X13362039Y-14469888D01*
X13362039Y-14469888D02*
X13352515Y-14431793D01*
X13352515Y-14431793D02*
X13352515Y-14384174D01*
X13352515Y-14384174D02*
X13362039Y-14346079D01*
X13362039Y-14346079D02*
X13371563Y-14327031D01*
X13371563Y-14327031D02*
X13381086Y-14317508D01*
X13381086Y-14317508D02*
X13400134Y-14307984D01*
X13552515Y-14488936D02*
X13562039Y-14498460D01*
X13562039Y-14498460D02*
X13552515Y-14507984D01*
X13552515Y-14507984D02*
X13542991Y-14498460D01*
X13542991Y-14498460D02*
X13552515Y-14488936D01*
X13552515Y-14488936D02*
X13552515Y-14507984D01*
X13685848Y-14307984D02*
X13704896Y-14307984D01*
X13704896Y-14307984D02*
X13723944Y-14317508D01*
X13723944Y-14317508D02*
X13733467Y-14327031D01*
X13733467Y-14327031D02*
X13742991Y-14346079D01*
X13742991Y-14346079D02*
X13752515Y-14384174D01*
X13752515Y-14384174D02*
X13752515Y-14431793D01*
X13752515Y-14431793D02*
X13742991Y-14469888D01*
X13742991Y-14469888D02*
X13733467Y-14488936D01*
X13733467Y-14488936D02*
X13723944Y-14498460D01*
X13723944Y-14498460D02*
X13704896Y-14507984D01*
X13704896Y-14507984D02*
X13685848Y-14507984D01*
X13685848Y-14507984D02*
X13666801Y-14498460D01*
X13666801Y-14498460D02*
X13657277Y-14488936D01*
X13657277Y-14488936D02*
X13647753Y-14469888D01*
X13647753Y-14469888D02*
X13638229Y-14431793D01*
X13638229Y-14431793D02*
X13638229Y-14384174D01*
X13638229Y-14384174D02*
X13647753Y-14346079D01*
X13647753Y-14346079D02*
X13657277Y-14327031D01*
X13657277Y-14327031D02*
X13666801Y-14317508D01*
X13666801Y-14317508D02*
X13685848Y-14307984D01*
X13923944Y-14374650D02*
X13923944Y-14507984D01*
X13876325Y-14298460D02*
X13828706Y-14441317D01*
X13828706Y-14441317D02*
X13952515Y-14441317D01*
X14066801Y-14307984D02*
X14085848Y-14307984D01*
X14085848Y-14307984D02*
X14104896Y-14317508D01*
X14104896Y-14317508D02*
X14114420Y-14327031D01*
X14114420Y-14327031D02*
X14123944Y-14346079D01*
X14123944Y-14346079D02*
X14133467Y-14384174D01*
X14133467Y-14384174D02*
X14133467Y-14431793D01*
X14133467Y-14431793D02*
X14123944Y-14469888D01*
X14123944Y-14469888D02*
X14114420Y-14488936D01*
X14114420Y-14488936D02*
X14104896Y-14498460D01*
X14104896Y-14498460D02*
X14085848Y-14507984D01*
X14085848Y-14507984D02*
X14066801Y-14507984D01*
X14066801Y-14507984D02*
X14047753Y-14498460D01*
X14047753Y-14498460D02*
X14038229Y-14488936D01*
X14038229Y-14488936D02*
X14028706Y-14469888D01*
X14028706Y-14469888D02*
X14019182Y-14431793D01*
X14019182Y-14431793D02*
X14019182Y-14384174D01*
X14019182Y-14384174D02*
X14028706Y-14346079D01*
X14028706Y-14346079D02*
X14038229Y-14327031D01*
X14038229Y-14327031D02*
X14047753Y-14317508D01*
X14047753Y-14317508D02*
X14066801Y-14307984D01*
X14257277Y-14307984D02*
X14276325Y-14307984D01*
X14276325Y-14307984D02*
X14295372Y-14317508D01*
X14295372Y-14317508D02*
X14304896Y-14327031D01*
X14304896Y-14327031D02*
X14314420Y-14346079D01*
X14314420Y-14346079D02*
X14323944Y-14384174D01*
X14323944Y-14384174D02*
X14323944Y-14431793D01*
X14323944Y-14431793D02*
X14314420Y-14469888D01*
X14314420Y-14469888D02*
X14304896Y-14488936D01*
X14304896Y-14488936D02*
X14295372Y-14498460D01*
X14295372Y-14498460D02*
X14276325Y-14507984D01*
X14276325Y-14507984D02*
X14257277Y-14507984D01*
X14257277Y-14507984D02*
X14238229Y-14498460D01*
X14238229Y-14498460D02*
X14228706Y-14488936D01*
X14228706Y-14488936D02*
X14219182Y-14469888D01*
X14219182Y-14469888D02*
X14209658Y-14431793D01*
X14209658Y-14431793D02*
X14209658Y-14384174D01*
X14209658Y-14384174D02*
X14219182Y-14346079D01*
X14219182Y-14346079D02*
X14228706Y-14327031D01*
X14228706Y-14327031D02*
X14238229Y-14317508D01*
X14238229Y-14317508D02*
X14257277Y-14307984D01*
X14400134Y-14307984D02*
X14400134Y-14346079D01*
X14476325Y-14307984D02*
X14476325Y-14346079D01*
X14771563Y-14584174D02*
X14762039Y-14574650D01*
X14762039Y-14574650D02*
X14742991Y-14546079D01*
X14742991Y-14546079D02*
X14733468Y-14527031D01*
X14733468Y-14527031D02*
X14723944Y-14498460D01*
X14723944Y-14498460D02*
X14714420Y-14450841D01*
X14714420Y-14450841D02*
X14714420Y-14412746D01*
X14714420Y-14412746D02*
X14723944Y-14365127D01*
X14723944Y-14365127D02*
X14733468Y-14336555D01*
X14733468Y-14336555D02*
X14742991Y-14317508D01*
X14742991Y-14317508D02*
X14762039Y-14288936D01*
X14762039Y-14288936D02*
X14771563Y-14279412D01*
X14828706Y-14307984D02*
X14952515Y-14307984D01*
X14952515Y-14307984D02*
X14885848Y-14384174D01*
X14885848Y-14384174D02*
X14914420Y-14384174D01*
X14914420Y-14384174D02*
X14933468Y-14393698D01*
X14933468Y-14393698D02*
X14942991Y-14403222D01*
X14942991Y-14403222D02*
X14952515Y-14422269D01*
X14952515Y-14422269D02*
X14952515Y-14469888D01*
X14952515Y-14469888D02*
X14942991Y-14488936D01*
X14942991Y-14488936D02*
X14933468Y-14498460D01*
X14933468Y-14498460D02*
X14914420Y-14507984D01*
X14914420Y-14507984D02*
X14857277Y-14507984D01*
X14857277Y-14507984D02*
X14838229Y-14498460D01*
X14838229Y-14498460D02*
X14828706Y-14488936D01*
X15028706Y-14327031D02*
X15038229Y-14317508D01*
X15038229Y-14317508D02*
X15057277Y-14307984D01*
X15057277Y-14307984D02*
X15104896Y-14307984D01*
X15104896Y-14307984D02*
X15123944Y-14317508D01*
X15123944Y-14317508D02*
X15133468Y-14327031D01*
X15133468Y-14327031D02*
X15142991Y-14346079D01*
X15142991Y-14346079D02*
X15142991Y-14365127D01*
X15142991Y-14365127D02*
X15133468Y-14393698D01*
X15133468Y-14393698D02*
X15019182Y-14507984D01*
X15019182Y-14507984D02*
X15142991Y-14507984D01*
X15381087Y-14507984D02*
X15381087Y-14307984D01*
X15466801Y-14507984D02*
X15466801Y-14403222D01*
X15466801Y-14403222D02*
X15457277Y-14384174D01*
X15457277Y-14384174D02*
X15438230Y-14374650D01*
X15438230Y-14374650D02*
X15409658Y-14374650D01*
X15409658Y-14374650D02*
X15390610Y-14384174D01*
X15390610Y-14384174D02*
X15381087Y-14393698D01*
X15590610Y-14507984D02*
X15571563Y-14498460D01*
X15571563Y-14498460D02*
X15562039Y-14488936D01*
X15562039Y-14488936D02*
X15552515Y-14469888D01*
X15552515Y-14469888D02*
X15552515Y-14412746D01*
X15552515Y-14412746D02*
X15562039Y-14393698D01*
X15562039Y-14393698D02*
X15571563Y-14384174D01*
X15571563Y-14384174D02*
X15590610Y-14374650D01*
X15590610Y-14374650D02*
X15619182Y-14374650D01*
X15619182Y-14374650D02*
X15638230Y-14384174D01*
X15638230Y-14384174D02*
X15647753Y-14393698D01*
X15647753Y-14393698D02*
X15657277Y-14412746D01*
X15657277Y-14412746D02*
X15657277Y-14469888D01*
X15657277Y-14469888D02*
X15647753Y-14488936D01*
X15647753Y-14488936D02*
X15638230Y-14498460D01*
X15638230Y-14498460D02*
X15619182Y-14507984D01*
X15619182Y-14507984D02*
X15590610Y-14507984D01*
X15771563Y-14507984D02*
X15752515Y-14498460D01*
X15752515Y-14498460D02*
X15742991Y-14479412D01*
X15742991Y-14479412D02*
X15742991Y-14307984D01*
X15923944Y-14498460D02*
X15904896Y-14507984D01*
X15904896Y-14507984D02*
X15866801Y-14507984D01*
X15866801Y-14507984D02*
X15847753Y-14498460D01*
X15847753Y-14498460D02*
X15838230Y-14479412D01*
X15838230Y-14479412D02*
X15838230Y-14403222D01*
X15838230Y-14403222D02*
X15847753Y-14384174D01*
X15847753Y-14384174D02*
X15866801Y-14374650D01*
X15866801Y-14374650D02*
X15904896Y-14374650D01*
X15904896Y-14374650D02*
X15923944Y-14384174D01*
X15923944Y-14384174D02*
X15933468Y-14403222D01*
X15933468Y-14403222D02*
X15933468Y-14422269D01*
X15933468Y-14422269D02*
X15838230Y-14441317D01*
X16009658Y-14498460D02*
X16028706Y-14507984D01*
X16028706Y-14507984D02*
X16066801Y-14507984D01*
X16066801Y-14507984D02*
X16085849Y-14498460D01*
X16085849Y-14498460D02*
X16095372Y-14479412D01*
X16095372Y-14479412D02*
X16095372Y-14469888D01*
X16095372Y-14469888D02*
X16085849Y-14450841D01*
X16085849Y-14450841D02*
X16066801Y-14441317D01*
X16066801Y-14441317D02*
X16038230Y-14441317D01*
X16038230Y-14441317D02*
X16019182Y-14431793D01*
X16019182Y-14431793D02*
X16009658Y-14412746D01*
X16009658Y-14412746D02*
X16009658Y-14403222D01*
X16009658Y-14403222D02*
X16019182Y-14384174D01*
X16019182Y-14384174D02*
X16038230Y-14374650D01*
X16038230Y-14374650D02*
X16066801Y-14374650D01*
X16066801Y-14374650D02*
X16085849Y-14384174D01*
X16162039Y-14584174D02*
X16171563Y-14574650D01*
X16171563Y-14574650D02*
X16190611Y-14546079D01*
X16190611Y-14546079D02*
X16200134Y-14527031D01*
X16200134Y-14527031D02*
X16209658Y-14498460D01*
X16209658Y-14498460D02*
X16219182Y-14450841D01*
X16219182Y-14450841D02*
X16219182Y-14412746D01*
X16219182Y-14412746D02*
X16209658Y-14365127D01*
X16209658Y-14365127D02*
X16200134Y-14336555D01*
X16200134Y-14336555D02*
X16190611Y-14317508D01*
X16190611Y-14317508D02*
X16171563Y-14288936D01*
X16171563Y-14288936D02*
X16162039Y-14279412D01*
D14*
X11140620Y-14736380D02*
X11196500Y-14680500D01*
X11140620Y-14624620D01*
X11084740Y-14680500D01*
X11140620Y-14736380D01*
D11*
X11562039Y-14771984D02*
X11447753Y-14771984D01*
X11504896Y-14771984D02*
X11504896Y-14571984D01*
X11504896Y-14571984D02*
X11485848Y-14600555D01*
X11485848Y-14600555D02*
X11466801Y-14619603D01*
X11466801Y-14619603D02*
X11447753Y-14629127D01*
X11647753Y-14752936D02*
X11657277Y-14762460D01*
X11657277Y-14762460D02*
X11647753Y-14771984D01*
X11647753Y-14771984D02*
X11638229Y-14762460D01*
X11638229Y-14762460D02*
X11647753Y-14752936D01*
X11647753Y-14752936D02*
X11647753Y-14771984D01*
X11847753Y-14771984D02*
X11733467Y-14771984D01*
X11790610Y-14771984D02*
X11790610Y-14571984D01*
X11790610Y-14571984D02*
X11771562Y-14600555D01*
X11771562Y-14600555D02*
X11752515Y-14619603D01*
X11752515Y-14619603D02*
X11733467Y-14629127D01*
X12038229Y-14771984D02*
X11923943Y-14771984D01*
X11981086Y-14771984D02*
X11981086Y-14571984D01*
X11981086Y-14571984D02*
X11962039Y-14600555D01*
X11962039Y-14600555D02*
X11942991Y-14619603D01*
X11942991Y-14619603D02*
X11923943Y-14629127D01*
X12152515Y-14657698D02*
X12133467Y-14648174D01*
X12133467Y-14648174D02*
X12123943Y-14638650D01*
X12123943Y-14638650D02*
X12114420Y-14619603D01*
X12114420Y-14619603D02*
X12114420Y-14610079D01*
X12114420Y-14610079D02*
X12123943Y-14591031D01*
X12123943Y-14591031D02*
X12133467Y-14581508D01*
X12133467Y-14581508D02*
X12152515Y-14571984D01*
X12152515Y-14571984D02*
X12190610Y-14571984D01*
X12190610Y-14571984D02*
X12209658Y-14581508D01*
X12209658Y-14581508D02*
X12219182Y-14591031D01*
X12219182Y-14591031D02*
X12228705Y-14610079D01*
X12228705Y-14610079D02*
X12228705Y-14619603D01*
X12228705Y-14619603D02*
X12219182Y-14638650D01*
X12219182Y-14638650D02*
X12209658Y-14648174D01*
X12209658Y-14648174D02*
X12190610Y-14657698D01*
X12190610Y-14657698D02*
X12152515Y-14657698D01*
X12152515Y-14657698D02*
X12133467Y-14667222D01*
X12133467Y-14667222D02*
X12123943Y-14676746D01*
X12123943Y-14676746D02*
X12114420Y-14695793D01*
X12114420Y-14695793D02*
X12114420Y-14733888D01*
X12114420Y-14733888D02*
X12123943Y-14752936D01*
X12123943Y-14752936D02*
X12133467Y-14762460D01*
X12133467Y-14762460D02*
X12152515Y-14771984D01*
X12152515Y-14771984D02*
X12190610Y-14771984D01*
X12190610Y-14771984D02*
X12209658Y-14762460D01*
X12209658Y-14762460D02*
X12219182Y-14752936D01*
X12219182Y-14752936D02*
X12228705Y-14733888D01*
X12228705Y-14733888D02*
X12228705Y-14695793D01*
X12228705Y-14695793D02*
X12219182Y-14676746D01*
X12219182Y-14676746D02*
X12209658Y-14667222D01*
X12209658Y-14667222D02*
X12190610Y-14657698D01*
X12314420Y-14771984D02*
X12314420Y-14638650D01*
X12314420Y-14657698D02*
X12323943Y-14648174D01*
X12323943Y-14648174D02*
X12342991Y-14638650D01*
X12342991Y-14638650D02*
X12371563Y-14638650D01*
X12371563Y-14638650D02*
X12390610Y-14648174D01*
X12390610Y-14648174D02*
X12400134Y-14667222D01*
X12400134Y-14667222D02*
X12400134Y-14771984D01*
X12400134Y-14667222D02*
X12409658Y-14648174D01*
X12409658Y-14648174D02*
X12428705Y-14638650D01*
X12428705Y-14638650D02*
X12457277Y-14638650D01*
X12457277Y-14638650D02*
X12476324Y-14648174D01*
X12476324Y-14648174D02*
X12485848Y-14667222D01*
X12485848Y-14667222D02*
X12485848Y-14771984D01*
X12581086Y-14771984D02*
X12581086Y-14638650D01*
X12581086Y-14657698D02*
X12590610Y-14648174D01*
X12590610Y-14648174D02*
X12609658Y-14638650D01*
X12609658Y-14638650D02*
X12638229Y-14638650D01*
X12638229Y-14638650D02*
X12657277Y-14648174D01*
X12657277Y-14648174D02*
X12666801Y-14667222D01*
X12666801Y-14667222D02*
X12666801Y-14771984D01*
X12666801Y-14667222D02*
X12676324Y-14648174D01*
X12676324Y-14648174D02*
X12695372Y-14638650D01*
X12695372Y-14638650D02*
X12723943Y-14638650D01*
X12723943Y-14638650D02*
X12742991Y-14648174D01*
X12742991Y-14648174D02*
X12752515Y-14667222D01*
X12752515Y-14667222D02*
X12752515Y-14771984D01*
X13142991Y-14562460D02*
X12971563Y-14819603D01*
X13400134Y-14571984D02*
X13419182Y-14571984D01*
X13419182Y-14571984D02*
X13438229Y-14581508D01*
X13438229Y-14581508D02*
X13447753Y-14591031D01*
X13447753Y-14591031D02*
X13457277Y-14610079D01*
X13457277Y-14610079D02*
X13466801Y-14648174D01*
X13466801Y-14648174D02*
X13466801Y-14695793D01*
X13466801Y-14695793D02*
X13457277Y-14733888D01*
X13457277Y-14733888D02*
X13447753Y-14752936D01*
X13447753Y-14752936D02*
X13438229Y-14762460D01*
X13438229Y-14762460D02*
X13419182Y-14771984D01*
X13419182Y-14771984D02*
X13400134Y-14771984D01*
X13400134Y-14771984D02*
X13381086Y-14762460D01*
X13381086Y-14762460D02*
X13371563Y-14752936D01*
X13371563Y-14752936D02*
X13362039Y-14733888D01*
X13362039Y-14733888D02*
X13352515Y-14695793D01*
X13352515Y-14695793D02*
X13352515Y-14648174D01*
X13352515Y-14648174D02*
X13362039Y-14610079D01*
X13362039Y-14610079D02*
X13371563Y-14591031D01*
X13371563Y-14591031D02*
X13381086Y-14581508D01*
X13381086Y-14581508D02*
X13400134Y-14571984D01*
X13552515Y-14752936D02*
X13562039Y-14762460D01*
X13562039Y-14762460D02*
X13552515Y-14771984D01*
X13552515Y-14771984D02*
X13542991Y-14762460D01*
X13542991Y-14762460D02*
X13552515Y-14752936D01*
X13552515Y-14752936D02*
X13552515Y-14771984D01*
X13685848Y-14571984D02*
X13704896Y-14571984D01*
X13704896Y-14571984D02*
X13723944Y-14581508D01*
X13723944Y-14581508D02*
X13733467Y-14591031D01*
X13733467Y-14591031D02*
X13742991Y-14610079D01*
X13742991Y-14610079D02*
X13752515Y-14648174D01*
X13752515Y-14648174D02*
X13752515Y-14695793D01*
X13752515Y-14695793D02*
X13742991Y-14733888D01*
X13742991Y-14733888D02*
X13733467Y-14752936D01*
X13733467Y-14752936D02*
X13723944Y-14762460D01*
X13723944Y-14762460D02*
X13704896Y-14771984D01*
X13704896Y-14771984D02*
X13685848Y-14771984D01*
X13685848Y-14771984D02*
X13666801Y-14762460D01*
X13666801Y-14762460D02*
X13657277Y-14752936D01*
X13657277Y-14752936D02*
X13647753Y-14733888D01*
X13647753Y-14733888D02*
X13638229Y-14695793D01*
X13638229Y-14695793D02*
X13638229Y-14648174D01*
X13638229Y-14648174D02*
X13647753Y-14610079D01*
X13647753Y-14610079D02*
X13657277Y-14591031D01*
X13657277Y-14591031D02*
X13666801Y-14581508D01*
X13666801Y-14581508D02*
X13685848Y-14571984D01*
X13923944Y-14638650D02*
X13923944Y-14771984D01*
X13876325Y-14562460D02*
X13828706Y-14705317D01*
X13828706Y-14705317D02*
X13952515Y-14705317D01*
X14114420Y-14638650D02*
X14114420Y-14771984D01*
X14066801Y-14562460D02*
X14019182Y-14705317D01*
X14019182Y-14705317D02*
X14142991Y-14705317D01*
X14257277Y-14571984D02*
X14276325Y-14571984D01*
X14276325Y-14571984D02*
X14295372Y-14581508D01*
X14295372Y-14581508D02*
X14304896Y-14591031D01*
X14304896Y-14591031D02*
X14314420Y-14610079D01*
X14314420Y-14610079D02*
X14323944Y-14648174D01*
X14323944Y-14648174D02*
X14323944Y-14695793D01*
X14323944Y-14695793D02*
X14314420Y-14733888D01*
X14314420Y-14733888D02*
X14304896Y-14752936D01*
X14304896Y-14752936D02*
X14295372Y-14762460D01*
X14295372Y-14762460D02*
X14276325Y-14771984D01*
X14276325Y-14771984D02*
X14257277Y-14771984D01*
X14257277Y-14771984D02*
X14238229Y-14762460D01*
X14238229Y-14762460D02*
X14228706Y-14752936D01*
X14228706Y-14752936D02*
X14219182Y-14733888D01*
X14219182Y-14733888D02*
X14209658Y-14695793D01*
X14209658Y-14695793D02*
X14209658Y-14648174D01*
X14209658Y-14648174D02*
X14219182Y-14610079D01*
X14219182Y-14610079D02*
X14228706Y-14591031D01*
X14228706Y-14591031D02*
X14238229Y-14581508D01*
X14238229Y-14581508D02*
X14257277Y-14571984D01*
X14400134Y-14571984D02*
X14400134Y-14610079D01*
X14476325Y-14571984D02*
X14476325Y-14610079D01*
X14771563Y-14848174D02*
X14762039Y-14838650D01*
X14762039Y-14838650D02*
X14742991Y-14810079D01*
X14742991Y-14810079D02*
X14733468Y-14791031D01*
X14733468Y-14791031D02*
X14723944Y-14762460D01*
X14723944Y-14762460D02*
X14714420Y-14714841D01*
X14714420Y-14714841D02*
X14714420Y-14676746D01*
X14714420Y-14676746D02*
X14723944Y-14629127D01*
X14723944Y-14629127D02*
X14733468Y-14600555D01*
X14733468Y-14600555D02*
X14742991Y-14581508D01*
X14742991Y-14581508D02*
X14762039Y-14552936D01*
X14762039Y-14552936D02*
X14771563Y-14543412D01*
X14952515Y-14771984D02*
X14838229Y-14771984D01*
X14895372Y-14771984D02*
X14895372Y-14571984D01*
X14895372Y-14571984D02*
X14876325Y-14600555D01*
X14876325Y-14600555D02*
X14857277Y-14619603D01*
X14857277Y-14619603D02*
X14838229Y-14629127D01*
X15123944Y-14638650D02*
X15123944Y-14771984D01*
X15076325Y-14562460D02*
X15028706Y-14705317D01*
X15028706Y-14705317D02*
X15152515Y-14705317D01*
X15381087Y-14771984D02*
X15381087Y-14571984D01*
X15466801Y-14771984D02*
X15466801Y-14667222D01*
X15466801Y-14667222D02*
X15457277Y-14648174D01*
X15457277Y-14648174D02*
X15438230Y-14638650D01*
X15438230Y-14638650D02*
X15409658Y-14638650D01*
X15409658Y-14638650D02*
X15390610Y-14648174D01*
X15390610Y-14648174D02*
X15381087Y-14657698D01*
X15590610Y-14771984D02*
X15571563Y-14762460D01*
X15571563Y-14762460D02*
X15562039Y-14752936D01*
X15562039Y-14752936D02*
X15552515Y-14733888D01*
X15552515Y-14733888D02*
X15552515Y-14676746D01*
X15552515Y-14676746D02*
X15562039Y-14657698D01*
X15562039Y-14657698D02*
X15571563Y-14648174D01*
X15571563Y-14648174D02*
X15590610Y-14638650D01*
X15590610Y-14638650D02*
X15619182Y-14638650D01*
X15619182Y-14638650D02*
X15638230Y-14648174D01*
X15638230Y-14648174D02*
X15647753Y-14657698D01*
X15647753Y-14657698D02*
X15657277Y-14676746D01*
X15657277Y-14676746D02*
X15657277Y-14733888D01*
X15657277Y-14733888D02*
X15647753Y-14752936D01*
X15647753Y-14752936D02*
X15638230Y-14762460D01*
X15638230Y-14762460D02*
X15619182Y-14771984D01*
X15619182Y-14771984D02*
X15590610Y-14771984D01*
X15771563Y-14771984D02*
X15752515Y-14762460D01*
X15752515Y-14762460D02*
X15742991Y-14743412D01*
X15742991Y-14743412D02*
X15742991Y-14571984D01*
X15923944Y-14762460D02*
X15904896Y-14771984D01*
X15904896Y-14771984D02*
X15866801Y-14771984D01*
X15866801Y-14771984D02*
X15847753Y-14762460D01*
X15847753Y-14762460D02*
X15838230Y-14743412D01*
X15838230Y-14743412D02*
X15838230Y-14667222D01*
X15838230Y-14667222D02*
X15847753Y-14648174D01*
X15847753Y-14648174D02*
X15866801Y-14638650D01*
X15866801Y-14638650D02*
X15904896Y-14638650D01*
X15904896Y-14638650D02*
X15923944Y-14648174D01*
X15923944Y-14648174D02*
X15933468Y-14667222D01*
X15933468Y-14667222D02*
X15933468Y-14686269D01*
X15933468Y-14686269D02*
X15838230Y-14705317D01*
X16009658Y-14762460D02*
X16028706Y-14771984D01*
X16028706Y-14771984D02*
X16066801Y-14771984D01*
X16066801Y-14771984D02*
X16085849Y-14762460D01*
X16085849Y-14762460D02*
X16095372Y-14743412D01*
X16095372Y-14743412D02*
X16095372Y-14733888D01*
X16095372Y-14733888D02*
X16085849Y-14714841D01*
X16085849Y-14714841D02*
X16066801Y-14705317D01*
X16066801Y-14705317D02*
X16038230Y-14705317D01*
X16038230Y-14705317D02*
X16019182Y-14695793D01*
X16019182Y-14695793D02*
X16009658Y-14676746D01*
X16009658Y-14676746D02*
X16009658Y-14667222D01*
X16009658Y-14667222D02*
X16019182Y-14648174D01*
X16019182Y-14648174D02*
X16038230Y-14638650D01*
X16038230Y-14638650D02*
X16066801Y-14638650D01*
X16066801Y-14638650D02*
X16085849Y-14648174D01*
X16162039Y-14848174D02*
X16171563Y-14838650D01*
X16171563Y-14838650D02*
X16190611Y-14810079D01*
X16190611Y-14810079D02*
X16200134Y-14791031D01*
X16200134Y-14791031D02*
X16209658Y-14762460D01*
X16209658Y-14762460D02*
X16219182Y-14714841D01*
X16219182Y-14714841D02*
X16219182Y-14676746D01*
X16219182Y-14676746D02*
X16209658Y-14629127D01*
X16209658Y-14629127D02*
X16200134Y-14600555D01*
X16200134Y-14600555D02*
X16190611Y-14581508D01*
X16190611Y-14581508D02*
X16171563Y-14552936D01*
X16171563Y-14552936D02*
X16162039Y-14543412D01*
D15*
X11066500Y-14879500D02*
X11196500Y-15009500D01*
X11196500Y-14879500D02*
X11066500Y-15009500D01*
X11196500Y-14944500D02*
G75*
G02*
X11066500Y-14944500I-65000J0D01*
G01*
X11066500Y-14944500D02*
G75*
G02*
X11196500Y-14944500I65000J0D01*
G01*
D11*
X11562039Y-15035984D02*
X11447753Y-15035984D01*
X11504896Y-15035984D02*
X11504896Y-14835984D01*
X11504896Y-14835984D02*
X11485848Y-14864555D01*
X11485848Y-14864555D02*
X11466801Y-14883603D01*
X11466801Y-14883603D02*
X11447753Y-14893127D01*
X11647753Y-15016936D02*
X11657277Y-15026460D01*
X11657277Y-15026460D02*
X11647753Y-15035984D01*
X11647753Y-15035984D02*
X11638229Y-15026460D01*
X11638229Y-15026460D02*
X11647753Y-15016936D01*
X11647753Y-15016936D02*
X11647753Y-15035984D01*
X11723943Y-14835984D02*
X11847753Y-14835984D01*
X11847753Y-14835984D02*
X11781086Y-14912174D01*
X11781086Y-14912174D02*
X11809658Y-14912174D01*
X11809658Y-14912174D02*
X11828705Y-14921698D01*
X11828705Y-14921698D02*
X11838229Y-14931222D01*
X11838229Y-14931222D02*
X11847753Y-14950269D01*
X11847753Y-14950269D02*
X11847753Y-14997888D01*
X11847753Y-14997888D02*
X11838229Y-15016936D01*
X11838229Y-15016936D02*
X11828705Y-15026460D01*
X11828705Y-15026460D02*
X11809658Y-15035984D01*
X11809658Y-15035984D02*
X11752515Y-15035984D01*
X11752515Y-15035984D02*
X11733467Y-15026460D01*
X11733467Y-15026460D02*
X11723943Y-15016936D01*
X11971562Y-14835984D02*
X11990610Y-14835984D01*
X11990610Y-14835984D02*
X12009658Y-14845508D01*
X12009658Y-14845508D02*
X12019182Y-14855031D01*
X12019182Y-14855031D02*
X12028705Y-14874079D01*
X12028705Y-14874079D02*
X12038229Y-14912174D01*
X12038229Y-14912174D02*
X12038229Y-14959793D01*
X12038229Y-14959793D02*
X12028705Y-14997888D01*
X12028705Y-14997888D02*
X12019182Y-15016936D01*
X12019182Y-15016936D02*
X12009658Y-15026460D01*
X12009658Y-15026460D02*
X11990610Y-15035984D01*
X11990610Y-15035984D02*
X11971562Y-15035984D01*
X11971562Y-15035984D02*
X11952515Y-15026460D01*
X11952515Y-15026460D02*
X11942991Y-15016936D01*
X11942991Y-15016936D02*
X11933467Y-14997888D01*
X11933467Y-14997888D02*
X11923943Y-14959793D01*
X11923943Y-14959793D02*
X11923943Y-14912174D01*
X11923943Y-14912174D02*
X11933467Y-14874079D01*
X11933467Y-14874079D02*
X11942991Y-14855031D01*
X11942991Y-14855031D02*
X11952515Y-14845508D01*
X11952515Y-14845508D02*
X11971562Y-14835984D01*
X12162039Y-14835984D02*
X12181086Y-14835984D01*
X12181086Y-14835984D02*
X12200134Y-14845508D01*
X12200134Y-14845508D02*
X12209658Y-14855031D01*
X12209658Y-14855031D02*
X12219182Y-14874079D01*
X12219182Y-14874079D02*
X12228705Y-14912174D01*
X12228705Y-14912174D02*
X12228705Y-14959793D01*
X12228705Y-14959793D02*
X12219182Y-14997888D01*
X12219182Y-14997888D02*
X12209658Y-15016936D01*
X12209658Y-15016936D02*
X12200134Y-15026460D01*
X12200134Y-15026460D02*
X12181086Y-15035984D01*
X12181086Y-15035984D02*
X12162039Y-15035984D01*
X12162039Y-15035984D02*
X12142991Y-15026460D01*
X12142991Y-15026460D02*
X12133467Y-15016936D01*
X12133467Y-15016936D02*
X12123943Y-14997888D01*
X12123943Y-14997888D02*
X12114420Y-14959793D01*
X12114420Y-14959793D02*
X12114420Y-14912174D01*
X12114420Y-14912174D02*
X12123943Y-14874079D01*
X12123943Y-14874079D02*
X12133467Y-14855031D01*
X12133467Y-14855031D02*
X12142991Y-14845508D01*
X12142991Y-14845508D02*
X12162039Y-14835984D01*
X12314420Y-15035984D02*
X12314420Y-14902650D01*
X12314420Y-14921698D02*
X12323943Y-14912174D01*
X12323943Y-14912174D02*
X12342991Y-14902650D01*
X12342991Y-14902650D02*
X12371563Y-14902650D01*
X12371563Y-14902650D02*
X12390610Y-14912174D01*
X12390610Y-14912174D02*
X12400134Y-14931222D01*
X12400134Y-14931222D02*
X12400134Y-15035984D01*
X12400134Y-14931222D02*
X12409658Y-14912174D01*
X12409658Y-14912174D02*
X12428705Y-14902650D01*
X12428705Y-14902650D02*
X12457277Y-14902650D01*
X12457277Y-14902650D02*
X12476324Y-14912174D01*
X12476324Y-14912174D02*
X12485848Y-14931222D01*
X12485848Y-14931222D02*
X12485848Y-15035984D01*
X12581086Y-15035984D02*
X12581086Y-14902650D01*
X12581086Y-14921698D02*
X12590610Y-14912174D01*
X12590610Y-14912174D02*
X12609658Y-14902650D01*
X12609658Y-14902650D02*
X12638229Y-14902650D01*
X12638229Y-14902650D02*
X12657277Y-14912174D01*
X12657277Y-14912174D02*
X12666801Y-14931222D01*
X12666801Y-14931222D02*
X12666801Y-15035984D01*
X12666801Y-14931222D02*
X12676324Y-14912174D01*
X12676324Y-14912174D02*
X12695372Y-14902650D01*
X12695372Y-14902650D02*
X12723943Y-14902650D01*
X12723943Y-14902650D02*
X12742991Y-14912174D01*
X12742991Y-14912174D02*
X12752515Y-14931222D01*
X12752515Y-14931222D02*
X12752515Y-15035984D01*
X13142991Y-14826460D02*
X12971563Y-15083603D01*
X13400134Y-14835984D02*
X13419182Y-14835984D01*
X13419182Y-14835984D02*
X13438229Y-14845508D01*
X13438229Y-14845508D02*
X13447753Y-14855031D01*
X13447753Y-14855031D02*
X13457277Y-14874079D01*
X13457277Y-14874079D02*
X13466801Y-14912174D01*
X13466801Y-14912174D02*
X13466801Y-14959793D01*
X13466801Y-14959793D02*
X13457277Y-14997888D01*
X13457277Y-14997888D02*
X13447753Y-15016936D01*
X13447753Y-15016936D02*
X13438229Y-15026460D01*
X13438229Y-15026460D02*
X13419182Y-15035984D01*
X13419182Y-15035984D02*
X13400134Y-15035984D01*
X13400134Y-15035984D02*
X13381086Y-15026460D01*
X13381086Y-15026460D02*
X13371563Y-15016936D01*
X13371563Y-15016936D02*
X13362039Y-14997888D01*
X13362039Y-14997888D02*
X13352515Y-14959793D01*
X13352515Y-14959793D02*
X13352515Y-14912174D01*
X13352515Y-14912174D02*
X13362039Y-14874079D01*
X13362039Y-14874079D02*
X13371563Y-14855031D01*
X13371563Y-14855031D02*
X13381086Y-14845508D01*
X13381086Y-14845508D02*
X13400134Y-14835984D01*
X13552515Y-15016936D02*
X13562039Y-15026460D01*
X13562039Y-15026460D02*
X13552515Y-15035984D01*
X13552515Y-15035984D02*
X13542991Y-15026460D01*
X13542991Y-15026460D02*
X13552515Y-15016936D01*
X13552515Y-15016936D02*
X13552515Y-15035984D01*
X13685848Y-14835984D02*
X13704896Y-14835984D01*
X13704896Y-14835984D02*
X13723944Y-14845508D01*
X13723944Y-14845508D02*
X13733467Y-14855031D01*
X13733467Y-14855031D02*
X13742991Y-14874079D01*
X13742991Y-14874079D02*
X13752515Y-14912174D01*
X13752515Y-14912174D02*
X13752515Y-14959793D01*
X13752515Y-14959793D02*
X13742991Y-14997888D01*
X13742991Y-14997888D02*
X13733467Y-15016936D01*
X13733467Y-15016936D02*
X13723944Y-15026460D01*
X13723944Y-15026460D02*
X13704896Y-15035984D01*
X13704896Y-15035984D02*
X13685848Y-15035984D01*
X13685848Y-15035984D02*
X13666801Y-15026460D01*
X13666801Y-15026460D02*
X13657277Y-15016936D01*
X13657277Y-15016936D02*
X13647753Y-14997888D01*
X13647753Y-14997888D02*
X13638229Y-14959793D01*
X13638229Y-14959793D02*
X13638229Y-14912174D01*
X13638229Y-14912174D02*
X13647753Y-14874079D01*
X13647753Y-14874079D02*
X13657277Y-14855031D01*
X13657277Y-14855031D02*
X13666801Y-14845508D01*
X13666801Y-14845508D02*
X13685848Y-14835984D01*
X13933467Y-14835984D02*
X13838229Y-14835984D01*
X13838229Y-14835984D02*
X13828706Y-14931222D01*
X13828706Y-14931222D02*
X13838229Y-14921698D01*
X13838229Y-14921698D02*
X13857277Y-14912174D01*
X13857277Y-14912174D02*
X13904896Y-14912174D01*
X13904896Y-14912174D02*
X13923944Y-14921698D01*
X13923944Y-14921698D02*
X13933467Y-14931222D01*
X13933467Y-14931222D02*
X13942991Y-14950269D01*
X13942991Y-14950269D02*
X13942991Y-14997888D01*
X13942991Y-14997888D02*
X13933467Y-15016936D01*
X13933467Y-15016936D02*
X13923944Y-15026460D01*
X13923944Y-15026460D02*
X13904896Y-15035984D01*
X13904896Y-15035984D02*
X13857277Y-15035984D01*
X13857277Y-15035984D02*
X13838229Y-15026460D01*
X13838229Y-15026460D02*
X13828706Y-15016936D01*
X14133467Y-15035984D02*
X14019182Y-15035984D01*
X14076325Y-15035984D02*
X14076325Y-14835984D01*
X14076325Y-14835984D02*
X14057277Y-14864555D01*
X14057277Y-14864555D02*
X14038229Y-14883603D01*
X14038229Y-14883603D02*
X14019182Y-14893127D01*
X14209658Y-14855031D02*
X14219182Y-14845508D01*
X14219182Y-14845508D02*
X14238229Y-14835984D01*
X14238229Y-14835984D02*
X14285848Y-14835984D01*
X14285848Y-14835984D02*
X14304896Y-14845508D01*
X14304896Y-14845508D02*
X14314420Y-14855031D01*
X14314420Y-14855031D02*
X14323944Y-14874079D01*
X14323944Y-14874079D02*
X14323944Y-14893127D01*
X14323944Y-14893127D02*
X14314420Y-14921698D01*
X14314420Y-14921698D02*
X14200134Y-15035984D01*
X14200134Y-15035984D02*
X14323944Y-15035984D01*
X14400134Y-14835984D02*
X14400134Y-14874079D01*
X14476325Y-14835984D02*
X14476325Y-14874079D01*
X14771563Y-15112174D02*
X14762039Y-15102650D01*
X14762039Y-15102650D02*
X14742991Y-15074079D01*
X14742991Y-15074079D02*
X14733468Y-15055031D01*
X14733468Y-15055031D02*
X14723944Y-15026460D01*
X14723944Y-15026460D02*
X14714420Y-14978841D01*
X14714420Y-14978841D02*
X14714420Y-14940746D01*
X14714420Y-14940746D02*
X14723944Y-14893127D01*
X14723944Y-14893127D02*
X14733468Y-14864555D01*
X14733468Y-14864555D02*
X14742991Y-14845508D01*
X14742991Y-14845508D02*
X14762039Y-14816936D01*
X14762039Y-14816936D02*
X14771563Y-14807412D01*
X14876325Y-14921698D02*
X14857277Y-14912174D01*
X14857277Y-14912174D02*
X14847753Y-14902650D01*
X14847753Y-14902650D02*
X14838229Y-14883603D01*
X14838229Y-14883603D02*
X14838229Y-14874079D01*
X14838229Y-14874079D02*
X14847753Y-14855031D01*
X14847753Y-14855031D02*
X14857277Y-14845508D01*
X14857277Y-14845508D02*
X14876325Y-14835984D01*
X14876325Y-14835984D02*
X14914420Y-14835984D01*
X14914420Y-14835984D02*
X14933468Y-14845508D01*
X14933468Y-14845508D02*
X14942991Y-14855031D01*
X14942991Y-14855031D02*
X14952515Y-14874079D01*
X14952515Y-14874079D02*
X14952515Y-14883603D01*
X14952515Y-14883603D02*
X14942991Y-14902650D01*
X14942991Y-14902650D02*
X14933468Y-14912174D01*
X14933468Y-14912174D02*
X14914420Y-14921698D01*
X14914420Y-14921698D02*
X14876325Y-14921698D01*
X14876325Y-14921698D02*
X14857277Y-14931222D01*
X14857277Y-14931222D02*
X14847753Y-14940746D01*
X14847753Y-14940746D02*
X14838229Y-14959793D01*
X14838229Y-14959793D02*
X14838229Y-14997888D01*
X14838229Y-14997888D02*
X14847753Y-15016936D01*
X14847753Y-15016936D02*
X14857277Y-15026460D01*
X14857277Y-15026460D02*
X14876325Y-15035984D01*
X14876325Y-15035984D02*
X14914420Y-15035984D01*
X14914420Y-15035984D02*
X14933468Y-15026460D01*
X14933468Y-15026460D02*
X14942991Y-15016936D01*
X14942991Y-15016936D02*
X14952515Y-14997888D01*
X14952515Y-14997888D02*
X14952515Y-14959793D01*
X14952515Y-14959793D02*
X14942991Y-14940746D01*
X14942991Y-14940746D02*
X14933468Y-14931222D01*
X14933468Y-14931222D02*
X14914420Y-14921698D01*
X15190610Y-15035984D02*
X15190610Y-14835984D01*
X15276325Y-15035984D02*
X15276325Y-14931222D01*
X15276325Y-14931222D02*
X15266801Y-14912174D01*
X15266801Y-14912174D02*
X15247753Y-14902650D01*
X15247753Y-14902650D02*
X15219182Y-14902650D01*
X15219182Y-14902650D02*
X15200134Y-14912174D01*
X15200134Y-14912174D02*
X15190610Y-14921698D01*
X15400134Y-15035984D02*
X15381087Y-15026460D01*
X15381087Y-15026460D02*
X15371563Y-15016936D01*
X15371563Y-15016936D02*
X15362039Y-14997888D01*
X15362039Y-14997888D02*
X15362039Y-14940746D01*
X15362039Y-14940746D02*
X15371563Y-14921698D01*
X15371563Y-14921698D02*
X15381087Y-14912174D01*
X15381087Y-14912174D02*
X15400134Y-14902650D01*
X15400134Y-14902650D02*
X15428706Y-14902650D01*
X15428706Y-14902650D02*
X15447753Y-14912174D01*
X15447753Y-14912174D02*
X15457277Y-14921698D01*
X15457277Y-14921698D02*
X15466801Y-14940746D01*
X15466801Y-14940746D02*
X15466801Y-14997888D01*
X15466801Y-14997888D02*
X15457277Y-15016936D01*
X15457277Y-15016936D02*
X15447753Y-15026460D01*
X15447753Y-15026460D02*
X15428706Y-15035984D01*
X15428706Y-15035984D02*
X15400134Y-15035984D01*
X15581087Y-15035984D02*
X15562039Y-15026460D01*
X15562039Y-15026460D02*
X15552515Y-15007412D01*
X15552515Y-15007412D02*
X15552515Y-14835984D01*
X15733468Y-15026460D02*
X15714420Y-15035984D01*
X15714420Y-15035984D02*
X15676325Y-15035984D01*
X15676325Y-15035984D02*
X15657277Y-15026460D01*
X15657277Y-15026460D02*
X15647753Y-15007412D01*
X15647753Y-15007412D02*
X15647753Y-14931222D01*
X15647753Y-14931222D02*
X15657277Y-14912174D01*
X15657277Y-14912174D02*
X15676325Y-14902650D01*
X15676325Y-14902650D02*
X15714420Y-14902650D01*
X15714420Y-14902650D02*
X15733468Y-14912174D01*
X15733468Y-14912174D02*
X15742991Y-14931222D01*
X15742991Y-14931222D02*
X15742991Y-14950269D01*
X15742991Y-14950269D02*
X15647753Y-14969317D01*
X15819182Y-15026460D02*
X15838230Y-15035984D01*
X15838230Y-15035984D02*
X15876325Y-15035984D01*
X15876325Y-15035984D02*
X15895372Y-15026460D01*
X15895372Y-15026460D02*
X15904896Y-15007412D01*
X15904896Y-15007412D02*
X15904896Y-14997888D01*
X15904896Y-14997888D02*
X15895372Y-14978841D01*
X15895372Y-14978841D02*
X15876325Y-14969317D01*
X15876325Y-14969317D02*
X15847753Y-14969317D01*
X15847753Y-14969317D02*
X15828706Y-14959793D01*
X15828706Y-14959793D02*
X15819182Y-14940746D01*
X15819182Y-14940746D02*
X15819182Y-14931222D01*
X15819182Y-14931222D02*
X15828706Y-14912174D01*
X15828706Y-14912174D02*
X15847753Y-14902650D01*
X15847753Y-14902650D02*
X15876325Y-14902650D01*
X15876325Y-14902650D02*
X15895372Y-14912174D01*
X15971563Y-15112174D02*
X15981087Y-15102650D01*
X15981087Y-15102650D02*
X16000134Y-15074079D01*
X16000134Y-15074079D02*
X16009658Y-15055031D01*
X16009658Y-15055031D02*
X16019182Y-15026460D01*
X16019182Y-15026460D02*
X16028706Y-14978841D01*
X16028706Y-14978841D02*
X16028706Y-14940746D01*
X16028706Y-14940746D02*
X16019182Y-14893127D01*
X16019182Y-14893127D02*
X16009658Y-14864555D01*
X16009658Y-14864555D02*
X16000134Y-14845508D01*
X16000134Y-14845508D02*
X15981087Y-14816936D01*
X15981087Y-14816936D02*
X15971563Y-14807412D01*
X10996500Y-15108500D02*
X11196500Y-15308500D01*
X11196500Y-15108500D02*
X10996500Y-15308500D01*
X11096500Y-15108500D02*
X11096500Y-15308500D01*
X10996500Y-15208500D02*
X11196500Y-15208500D01*
X11438229Y-15099984D02*
X11562039Y-15099984D01*
X11562039Y-15099984D02*
X11495372Y-15176174D01*
X11495372Y-15176174D02*
X11523943Y-15176174D01*
X11523943Y-15176174D02*
X11542991Y-15185698D01*
X11542991Y-15185698D02*
X11552515Y-15195222D01*
X11552515Y-15195222D02*
X11562039Y-15214269D01*
X11562039Y-15214269D02*
X11562039Y-15261888D01*
X11562039Y-15261888D02*
X11552515Y-15280936D01*
X11552515Y-15280936D02*
X11542991Y-15290460D01*
X11542991Y-15290460D02*
X11523943Y-15299984D01*
X11523943Y-15299984D02*
X11466801Y-15299984D01*
X11466801Y-15299984D02*
X11447753Y-15290460D01*
X11447753Y-15290460D02*
X11438229Y-15280936D01*
X11647753Y-15280936D02*
X11657277Y-15290460D01*
X11657277Y-15290460D02*
X11647753Y-15299984D01*
X11647753Y-15299984D02*
X11638229Y-15290460D01*
X11638229Y-15290460D02*
X11647753Y-15280936D01*
X11647753Y-15280936D02*
X11647753Y-15299984D01*
X11781086Y-15099984D02*
X11800134Y-15099984D01*
X11800134Y-15099984D02*
X11819182Y-15109508D01*
X11819182Y-15109508D02*
X11828705Y-15119031D01*
X11828705Y-15119031D02*
X11838229Y-15138079D01*
X11838229Y-15138079D02*
X11847753Y-15176174D01*
X11847753Y-15176174D02*
X11847753Y-15223793D01*
X11847753Y-15223793D02*
X11838229Y-15261888D01*
X11838229Y-15261888D02*
X11828705Y-15280936D01*
X11828705Y-15280936D02*
X11819182Y-15290460D01*
X11819182Y-15290460D02*
X11800134Y-15299984D01*
X11800134Y-15299984D02*
X11781086Y-15299984D01*
X11781086Y-15299984D02*
X11762039Y-15290460D01*
X11762039Y-15290460D02*
X11752515Y-15280936D01*
X11752515Y-15280936D02*
X11742991Y-15261888D01*
X11742991Y-15261888D02*
X11733467Y-15223793D01*
X11733467Y-15223793D02*
X11733467Y-15176174D01*
X11733467Y-15176174D02*
X11742991Y-15138079D01*
X11742991Y-15138079D02*
X11752515Y-15119031D01*
X11752515Y-15119031D02*
X11762039Y-15109508D01*
X11762039Y-15109508D02*
X11781086Y-15099984D01*
X11971562Y-15099984D02*
X11990610Y-15099984D01*
X11990610Y-15099984D02*
X12009658Y-15109508D01*
X12009658Y-15109508D02*
X12019182Y-15119031D01*
X12019182Y-15119031D02*
X12028705Y-15138079D01*
X12028705Y-15138079D02*
X12038229Y-15176174D01*
X12038229Y-15176174D02*
X12038229Y-15223793D01*
X12038229Y-15223793D02*
X12028705Y-15261888D01*
X12028705Y-15261888D02*
X12019182Y-15280936D01*
X12019182Y-15280936D02*
X12009658Y-15290460D01*
X12009658Y-15290460D02*
X11990610Y-15299984D01*
X11990610Y-15299984D02*
X11971562Y-15299984D01*
X11971562Y-15299984D02*
X11952515Y-15290460D01*
X11952515Y-15290460D02*
X11942991Y-15280936D01*
X11942991Y-15280936D02*
X11933467Y-15261888D01*
X11933467Y-15261888D02*
X11923943Y-15223793D01*
X11923943Y-15223793D02*
X11923943Y-15176174D01*
X11923943Y-15176174D02*
X11933467Y-15138079D01*
X11933467Y-15138079D02*
X11942991Y-15119031D01*
X11942991Y-15119031D02*
X11952515Y-15109508D01*
X11952515Y-15109508D02*
X11971562Y-15099984D01*
X12162039Y-15099984D02*
X12181086Y-15099984D01*
X12181086Y-15099984D02*
X12200134Y-15109508D01*
X12200134Y-15109508D02*
X12209658Y-15119031D01*
X12209658Y-15119031D02*
X12219182Y-15138079D01*
X12219182Y-15138079D02*
X12228705Y-15176174D01*
X12228705Y-15176174D02*
X12228705Y-15223793D01*
X12228705Y-15223793D02*
X12219182Y-15261888D01*
X12219182Y-15261888D02*
X12209658Y-15280936D01*
X12209658Y-15280936D02*
X12200134Y-15290460D01*
X12200134Y-15290460D02*
X12181086Y-15299984D01*
X12181086Y-15299984D02*
X12162039Y-15299984D01*
X12162039Y-15299984D02*
X12142991Y-15290460D01*
X12142991Y-15290460D02*
X12133467Y-15280936D01*
X12133467Y-15280936D02*
X12123943Y-15261888D01*
X12123943Y-15261888D02*
X12114420Y-15223793D01*
X12114420Y-15223793D02*
X12114420Y-15176174D01*
X12114420Y-15176174D02*
X12123943Y-15138079D01*
X12123943Y-15138079D02*
X12133467Y-15119031D01*
X12133467Y-15119031D02*
X12142991Y-15109508D01*
X12142991Y-15109508D02*
X12162039Y-15099984D01*
X12314420Y-15299984D02*
X12314420Y-15166650D01*
X12314420Y-15185698D02*
X12323943Y-15176174D01*
X12323943Y-15176174D02*
X12342991Y-15166650D01*
X12342991Y-15166650D02*
X12371563Y-15166650D01*
X12371563Y-15166650D02*
X12390610Y-15176174D01*
X12390610Y-15176174D02*
X12400134Y-15195222D01*
X12400134Y-15195222D02*
X12400134Y-15299984D01*
X12400134Y-15195222D02*
X12409658Y-15176174D01*
X12409658Y-15176174D02*
X12428705Y-15166650D01*
X12428705Y-15166650D02*
X12457277Y-15166650D01*
X12457277Y-15166650D02*
X12476324Y-15176174D01*
X12476324Y-15176174D02*
X12485848Y-15195222D01*
X12485848Y-15195222D02*
X12485848Y-15299984D01*
X12581086Y-15299984D02*
X12581086Y-15166650D01*
X12581086Y-15185698D02*
X12590610Y-15176174D01*
X12590610Y-15176174D02*
X12609658Y-15166650D01*
X12609658Y-15166650D02*
X12638229Y-15166650D01*
X12638229Y-15166650D02*
X12657277Y-15176174D01*
X12657277Y-15176174D02*
X12666801Y-15195222D01*
X12666801Y-15195222D02*
X12666801Y-15299984D01*
X12666801Y-15195222D02*
X12676324Y-15176174D01*
X12676324Y-15176174D02*
X12695372Y-15166650D01*
X12695372Y-15166650D02*
X12723943Y-15166650D01*
X12723943Y-15166650D02*
X12742991Y-15176174D01*
X12742991Y-15176174D02*
X12752515Y-15195222D01*
X12752515Y-15195222D02*
X12752515Y-15299984D01*
X13142991Y-15090460D02*
X12971563Y-15347603D01*
X13400134Y-15099984D02*
X13419182Y-15099984D01*
X13419182Y-15099984D02*
X13438229Y-15109508D01*
X13438229Y-15109508D02*
X13447753Y-15119031D01*
X13447753Y-15119031D02*
X13457277Y-15138079D01*
X13457277Y-15138079D02*
X13466801Y-15176174D01*
X13466801Y-15176174D02*
X13466801Y-15223793D01*
X13466801Y-15223793D02*
X13457277Y-15261888D01*
X13457277Y-15261888D02*
X13447753Y-15280936D01*
X13447753Y-15280936D02*
X13438229Y-15290460D01*
X13438229Y-15290460D02*
X13419182Y-15299984D01*
X13419182Y-15299984D02*
X13400134Y-15299984D01*
X13400134Y-15299984D02*
X13381086Y-15290460D01*
X13381086Y-15290460D02*
X13371563Y-15280936D01*
X13371563Y-15280936D02*
X13362039Y-15261888D01*
X13362039Y-15261888D02*
X13352515Y-15223793D01*
X13352515Y-15223793D02*
X13352515Y-15176174D01*
X13352515Y-15176174D02*
X13362039Y-15138079D01*
X13362039Y-15138079D02*
X13371563Y-15119031D01*
X13371563Y-15119031D02*
X13381086Y-15109508D01*
X13381086Y-15109508D02*
X13400134Y-15099984D01*
X13552515Y-15280936D02*
X13562039Y-15290460D01*
X13562039Y-15290460D02*
X13552515Y-15299984D01*
X13552515Y-15299984D02*
X13542991Y-15290460D01*
X13542991Y-15290460D02*
X13552515Y-15280936D01*
X13552515Y-15280936D02*
X13552515Y-15299984D01*
X13752515Y-15299984D02*
X13638229Y-15299984D01*
X13695372Y-15299984D02*
X13695372Y-15099984D01*
X13695372Y-15099984D02*
X13676325Y-15128555D01*
X13676325Y-15128555D02*
X13657277Y-15147603D01*
X13657277Y-15147603D02*
X13638229Y-15157127D01*
X13942991Y-15299984D02*
X13828706Y-15299984D01*
X13885848Y-15299984D02*
X13885848Y-15099984D01*
X13885848Y-15099984D02*
X13866801Y-15128555D01*
X13866801Y-15128555D02*
X13847753Y-15147603D01*
X13847753Y-15147603D02*
X13828706Y-15157127D01*
X14057277Y-15185698D02*
X14038229Y-15176174D01*
X14038229Y-15176174D02*
X14028706Y-15166650D01*
X14028706Y-15166650D02*
X14019182Y-15147603D01*
X14019182Y-15147603D02*
X14019182Y-15138079D01*
X14019182Y-15138079D02*
X14028706Y-15119031D01*
X14028706Y-15119031D02*
X14038229Y-15109508D01*
X14038229Y-15109508D02*
X14057277Y-15099984D01*
X14057277Y-15099984D02*
X14095372Y-15099984D01*
X14095372Y-15099984D02*
X14114420Y-15109508D01*
X14114420Y-15109508D02*
X14123944Y-15119031D01*
X14123944Y-15119031D02*
X14133467Y-15138079D01*
X14133467Y-15138079D02*
X14133467Y-15147603D01*
X14133467Y-15147603D02*
X14123944Y-15166650D01*
X14123944Y-15166650D02*
X14114420Y-15176174D01*
X14114420Y-15176174D02*
X14095372Y-15185698D01*
X14095372Y-15185698D02*
X14057277Y-15185698D01*
X14057277Y-15185698D02*
X14038229Y-15195222D01*
X14038229Y-15195222D02*
X14028706Y-15204746D01*
X14028706Y-15204746D02*
X14019182Y-15223793D01*
X14019182Y-15223793D02*
X14019182Y-15261888D01*
X14019182Y-15261888D02*
X14028706Y-15280936D01*
X14028706Y-15280936D02*
X14038229Y-15290460D01*
X14038229Y-15290460D02*
X14057277Y-15299984D01*
X14057277Y-15299984D02*
X14095372Y-15299984D01*
X14095372Y-15299984D02*
X14114420Y-15290460D01*
X14114420Y-15290460D02*
X14123944Y-15280936D01*
X14123944Y-15280936D02*
X14133467Y-15261888D01*
X14133467Y-15261888D02*
X14133467Y-15223793D01*
X14133467Y-15223793D02*
X14123944Y-15204746D01*
X14123944Y-15204746D02*
X14114420Y-15195222D01*
X14114420Y-15195222D02*
X14095372Y-15185698D01*
X14323944Y-15299984D02*
X14209658Y-15299984D01*
X14266801Y-15299984D02*
X14266801Y-15099984D01*
X14266801Y-15099984D02*
X14247753Y-15128555D01*
X14247753Y-15128555D02*
X14228706Y-15147603D01*
X14228706Y-15147603D02*
X14209658Y-15157127D01*
X14400134Y-15099984D02*
X14400134Y-15138079D01*
X14476325Y-15099984D02*
X14476325Y-15138079D01*
X14771563Y-15376174D02*
X14762039Y-15366650D01*
X14762039Y-15366650D02*
X14742991Y-15338079D01*
X14742991Y-15338079D02*
X14733468Y-15319031D01*
X14733468Y-15319031D02*
X14723944Y-15290460D01*
X14723944Y-15290460D02*
X14714420Y-15242841D01*
X14714420Y-15242841D02*
X14714420Y-15204746D01*
X14714420Y-15204746D02*
X14723944Y-15157127D01*
X14723944Y-15157127D02*
X14733468Y-15128555D01*
X14733468Y-15128555D02*
X14742991Y-15109508D01*
X14742991Y-15109508D02*
X14762039Y-15080936D01*
X14762039Y-15080936D02*
X14771563Y-15071412D01*
X14933468Y-15099984D02*
X14895372Y-15099984D01*
X14895372Y-15099984D02*
X14876325Y-15109508D01*
X14876325Y-15109508D02*
X14866801Y-15119031D01*
X14866801Y-15119031D02*
X14847753Y-15147603D01*
X14847753Y-15147603D02*
X14838229Y-15185698D01*
X14838229Y-15185698D02*
X14838229Y-15261888D01*
X14838229Y-15261888D02*
X14847753Y-15280936D01*
X14847753Y-15280936D02*
X14857277Y-15290460D01*
X14857277Y-15290460D02*
X14876325Y-15299984D01*
X14876325Y-15299984D02*
X14914420Y-15299984D01*
X14914420Y-15299984D02*
X14933468Y-15290460D01*
X14933468Y-15290460D02*
X14942991Y-15280936D01*
X14942991Y-15280936D02*
X14952515Y-15261888D01*
X14952515Y-15261888D02*
X14952515Y-15214269D01*
X14952515Y-15214269D02*
X14942991Y-15195222D01*
X14942991Y-15195222D02*
X14933468Y-15185698D01*
X14933468Y-15185698D02*
X14914420Y-15176174D01*
X14914420Y-15176174D02*
X14876325Y-15176174D01*
X14876325Y-15176174D02*
X14857277Y-15185698D01*
X14857277Y-15185698D02*
X14847753Y-15195222D01*
X14847753Y-15195222D02*
X14838229Y-15214269D01*
X15190610Y-15299984D02*
X15190610Y-15099984D01*
X15276325Y-15299984D02*
X15276325Y-15195222D01*
X15276325Y-15195222D02*
X15266801Y-15176174D01*
X15266801Y-15176174D02*
X15247753Y-15166650D01*
X15247753Y-15166650D02*
X15219182Y-15166650D01*
X15219182Y-15166650D02*
X15200134Y-15176174D01*
X15200134Y-15176174D02*
X15190610Y-15185698D01*
X15400134Y-15299984D02*
X15381087Y-15290460D01*
X15381087Y-15290460D02*
X15371563Y-15280936D01*
X15371563Y-15280936D02*
X15362039Y-15261888D01*
X15362039Y-15261888D02*
X15362039Y-15204746D01*
X15362039Y-15204746D02*
X15371563Y-15185698D01*
X15371563Y-15185698D02*
X15381087Y-15176174D01*
X15381087Y-15176174D02*
X15400134Y-15166650D01*
X15400134Y-15166650D02*
X15428706Y-15166650D01*
X15428706Y-15166650D02*
X15447753Y-15176174D01*
X15447753Y-15176174D02*
X15457277Y-15185698D01*
X15457277Y-15185698D02*
X15466801Y-15204746D01*
X15466801Y-15204746D02*
X15466801Y-15261888D01*
X15466801Y-15261888D02*
X15457277Y-15280936D01*
X15457277Y-15280936D02*
X15447753Y-15290460D01*
X15447753Y-15290460D02*
X15428706Y-15299984D01*
X15428706Y-15299984D02*
X15400134Y-15299984D01*
X15581087Y-15299984D02*
X15562039Y-15290460D01*
X15562039Y-15290460D02*
X15552515Y-15271412D01*
X15552515Y-15271412D02*
X15552515Y-15099984D01*
X15733468Y-15290460D02*
X15714420Y-15299984D01*
X15714420Y-15299984D02*
X15676325Y-15299984D01*
X15676325Y-15299984D02*
X15657277Y-15290460D01*
X15657277Y-15290460D02*
X15647753Y-15271412D01*
X15647753Y-15271412D02*
X15647753Y-15195222D01*
X15647753Y-15195222D02*
X15657277Y-15176174D01*
X15657277Y-15176174D02*
X15676325Y-15166650D01*
X15676325Y-15166650D02*
X15714420Y-15166650D01*
X15714420Y-15166650D02*
X15733468Y-15176174D01*
X15733468Y-15176174D02*
X15742991Y-15195222D01*
X15742991Y-15195222D02*
X15742991Y-15214269D01*
X15742991Y-15214269D02*
X15647753Y-15233317D01*
X15819182Y-15290460D02*
X15838230Y-15299984D01*
X15838230Y-15299984D02*
X15876325Y-15299984D01*
X15876325Y-15299984D02*
X15895372Y-15290460D01*
X15895372Y-15290460D02*
X15904896Y-15271412D01*
X15904896Y-15271412D02*
X15904896Y-15261888D01*
X15904896Y-15261888D02*
X15895372Y-15242841D01*
X15895372Y-15242841D02*
X15876325Y-15233317D01*
X15876325Y-15233317D02*
X15847753Y-15233317D01*
X15847753Y-15233317D02*
X15828706Y-15223793D01*
X15828706Y-15223793D02*
X15819182Y-15204746D01*
X15819182Y-15204746D02*
X15819182Y-15195222D01*
X15819182Y-15195222D02*
X15828706Y-15176174D01*
X15828706Y-15176174D02*
X15847753Y-15166650D01*
X15847753Y-15166650D02*
X15876325Y-15166650D01*
X15876325Y-15166650D02*
X15895372Y-15176174D01*
X15971563Y-15376174D02*
X15981087Y-15366650D01*
X15981087Y-15366650D02*
X16000134Y-15338079D01*
X16000134Y-15338079D02*
X16009658Y-15319031D01*
X16009658Y-15319031D02*
X16019182Y-15290460D01*
X16019182Y-15290460D02*
X16028706Y-15242841D01*
X16028706Y-15242841D02*
X16028706Y-15204746D01*
X16028706Y-15204746D02*
X16019182Y-15157127D01*
X16019182Y-15157127D02*
X16009658Y-15128555D01*
X16009658Y-15128555D02*
X16000134Y-15109508D01*
X16000134Y-15109508D02*
X15981087Y-15080936D01*
X15981087Y-15080936D02*
X15971563Y-15071412D01*
M02*
