%TF.GenerationSoftware,KiCad,Pcbnew,9.0.6*%
%TF.CreationDate,2025-12-02T12:47:50-05:00*%
%TF.ProjectId,ControlBoard,436f6e74-726f-46c4-926f-6172642e6b69,rev?*%
%TF.SameCoordinates,Original*%
%TF.FileFunction,Drillmap*%
%TF.FilePolarity,Positive*%
%FSLAX45Y45*%
G04 Gerber Fmt 4.5, Leading zero omitted, Abs format (unit mm)*
G04 Created by KiCad (PCBNEW 9.0.6) date 2025-12-02 12:47:50*
%MOMM*%
%LPD*%
G01*
G04 APERTURE LIST*
%ADD10C,0.050000*%
%ADD11C,0.200000*%
%ADD12C,0.120000*%
G04 APERTURE END LIST*
D10*
X17809000Y-11323000D02*
X16671000Y-12982000D01*
X17204410Y-7489000D02*
X17809000Y-8103000D01*
X11199000Y-12982000D02*
X11237500Y-7489000D01*
X16671000Y-12982000D02*
X11199000Y-12982000D01*
X17809000Y-8103000D02*
X17809000Y-11323000D01*
X11237500Y-7489000D02*
X17204410Y-7489000D01*
D11*
D12*
X11548000Y-10799000D02*
X11668000Y-10919000D01*
X11668000Y-10799000D02*
X11548000Y-10919000D01*
D11*
X11457277Y-13295984D02*
X11457277Y-13095984D01*
X11457277Y-13095984D02*
X11504896Y-13095984D01*
X11504896Y-13095984D02*
X11533467Y-13105508D01*
X11533467Y-13105508D02*
X11552515Y-13124555D01*
X11552515Y-13124555D02*
X11562039Y-13143603D01*
X11562039Y-13143603D02*
X11571562Y-13181698D01*
X11571562Y-13181698D02*
X11571562Y-13210269D01*
X11571562Y-13210269D02*
X11562039Y-13248365D01*
X11562039Y-13248365D02*
X11552515Y-13267412D01*
X11552515Y-13267412D02*
X11533467Y-13286460D01*
X11533467Y-13286460D02*
X11504896Y-13295984D01*
X11504896Y-13295984D02*
X11457277Y-13295984D01*
X11657277Y-13295984D02*
X11657277Y-13162650D01*
X11657277Y-13200746D02*
X11666801Y-13181698D01*
X11666801Y-13181698D02*
X11676324Y-13172174D01*
X11676324Y-13172174D02*
X11695372Y-13162650D01*
X11695372Y-13162650D02*
X11714420Y-13162650D01*
X11781086Y-13295984D02*
X11781086Y-13162650D01*
X11781086Y-13095984D02*
X11771562Y-13105508D01*
X11771562Y-13105508D02*
X11781086Y-13115031D01*
X11781086Y-13115031D02*
X11790610Y-13105508D01*
X11790610Y-13105508D02*
X11781086Y-13095984D01*
X11781086Y-13095984D02*
X11781086Y-13115031D01*
X11904896Y-13295984D02*
X11885848Y-13286460D01*
X11885848Y-13286460D02*
X11876324Y-13267412D01*
X11876324Y-13267412D02*
X11876324Y-13095984D01*
X12009658Y-13295984D02*
X11990610Y-13286460D01*
X11990610Y-13286460D02*
X11981086Y-13267412D01*
X11981086Y-13267412D02*
X11981086Y-13095984D01*
X12238229Y-13295984D02*
X12238229Y-13095984D01*
X12238229Y-13095984D02*
X12304896Y-13238841D01*
X12304896Y-13238841D02*
X12371562Y-13095984D01*
X12371562Y-13095984D02*
X12371562Y-13295984D01*
X12552515Y-13295984D02*
X12552515Y-13191222D01*
X12552515Y-13191222D02*
X12542991Y-13172174D01*
X12542991Y-13172174D02*
X12523943Y-13162650D01*
X12523943Y-13162650D02*
X12485848Y-13162650D01*
X12485848Y-13162650D02*
X12466801Y-13172174D01*
X12552515Y-13286460D02*
X12533467Y-13295984D01*
X12533467Y-13295984D02*
X12485848Y-13295984D01*
X12485848Y-13295984D02*
X12466801Y-13286460D01*
X12466801Y-13286460D02*
X12457277Y-13267412D01*
X12457277Y-13267412D02*
X12457277Y-13248365D01*
X12457277Y-13248365D02*
X12466801Y-13229317D01*
X12466801Y-13229317D02*
X12485848Y-13219793D01*
X12485848Y-13219793D02*
X12533467Y-13219793D01*
X12533467Y-13219793D02*
X12552515Y-13210269D01*
X12647753Y-13162650D02*
X12647753Y-13362650D01*
X12647753Y-13172174D02*
X12666801Y-13162650D01*
X12666801Y-13162650D02*
X12704896Y-13162650D01*
X12704896Y-13162650D02*
X12723943Y-13172174D01*
X12723943Y-13172174D02*
X12733467Y-13181698D01*
X12733467Y-13181698D02*
X12742991Y-13200746D01*
X12742991Y-13200746D02*
X12742991Y-13257888D01*
X12742991Y-13257888D02*
X12733467Y-13276936D01*
X12733467Y-13276936D02*
X12723943Y-13286460D01*
X12723943Y-13286460D02*
X12704896Y-13295984D01*
X12704896Y-13295984D02*
X12666801Y-13295984D01*
X12666801Y-13295984D02*
X12647753Y-13286460D01*
X12828705Y-13276936D02*
X12838229Y-13286460D01*
X12838229Y-13286460D02*
X12828705Y-13295984D01*
X12828705Y-13295984D02*
X12819182Y-13286460D01*
X12819182Y-13286460D02*
X12828705Y-13276936D01*
X12828705Y-13276936D02*
X12828705Y-13295984D01*
X12828705Y-13172174D02*
X12838229Y-13181698D01*
X12838229Y-13181698D02*
X12828705Y-13191222D01*
X12828705Y-13191222D02*
X12819182Y-13181698D01*
X12819182Y-13181698D02*
X12828705Y-13172174D01*
X12828705Y-13172174D02*
X12828705Y-13191222D01*
D12*
X11076500Y-13564500D02*
X11196500Y-13684500D01*
X11196500Y-13564500D02*
X11076500Y-13684500D01*
D11*
X11562039Y-13715984D02*
X11447753Y-13715984D01*
X11504896Y-13715984D02*
X11504896Y-13515984D01*
X11504896Y-13515984D02*
X11485848Y-13544555D01*
X11485848Y-13544555D02*
X11466801Y-13563603D01*
X11466801Y-13563603D02*
X11447753Y-13573127D01*
X11647753Y-13696936D02*
X11657277Y-13706460D01*
X11657277Y-13706460D02*
X11647753Y-13715984D01*
X11647753Y-13715984D02*
X11638229Y-13706460D01*
X11638229Y-13706460D02*
X11647753Y-13696936D01*
X11647753Y-13696936D02*
X11647753Y-13715984D01*
X11733467Y-13535031D02*
X11742991Y-13525508D01*
X11742991Y-13525508D02*
X11762039Y-13515984D01*
X11762039Y-13515984D02*
X11809658Y-13515984D01*
X11809658Y-13515984D02*
X11828705Y-13525508D01*
X11828705Y-13525508D02*
X11838229Y-13535031D01*
X11838229Y-13535031D02*
X11847753Y-13554079D01*
X11847753Y-13554079D02*
X11847753Y-13573127D01*
X11847753Y-13573127D02*
X11838229Y-13601698D01*
X11838229Y-13601698D02*
X11723943Y-13715984D01*
X11723943Y-13715984D02*
X11847753Y-13715984D01*
X11971562Y-13515984D02*
X11990610Y-13515984D01*
X11990610Y-13515984D02*
X12009658Y-13525508D01*
X12009658Y-13525508D02*
X12019182Y-13535031D01*
X12019182Y-13535031D02*
X12028705Y-13554079D01*
X12028705Y-13554079D02*
X12038229Y-13592174D01*
X12038229Y-13592174D02*
X12038229Y-13639793D01*
X12038229Y-13639793D02*
X12028705Y-13677888D01*
X12028705Y-13677888D02*
X12019182Y-13696936D01*
X12019182Y-13696936D02*
X12009658Y-13706460D01*
X12009658Y-13706460D02*
X11990610Y-13715984D01*
X11990610Y-13715984D02*
X11971562Y-13715984D01*
X11971562Y-13715984D02*
X11952515Y-13706460D01*
X11952515Y-13706460D02*
X11942991Y-13696936D01*
X11942991Y-13696936D02*
X11933467Y-13677888D01*
X11933467Y-13677888D02*
X11923943Y-13639793D01*
X11923943Y-13639793D02*
X11923943Y-13592174D01*
X11923943Y-13592174D02*
X11933467Y-13554079D01*
X11933467Y-13554079D02*
X11942991Y-13535031D01*
X11942991Y-13535031D02*
X11952515Y-13525508D01*
X11952515Y-13525508D02*
X11971562Y-13515984D01*
X12162039Y-13515984D02*
X12181086Y-13515984D01*
X12181086Y-13515984D02*
X12200134Y-13525508D01*
X12200134Y-13525508D02*
X12209658Y-13535031D01*
X12209658Y-13535031D02*
X12219182Y-13554079D01*
X12219182Y-13554079D02*
X12228705Y-13592174D01*
X12228705Y-13592174D02*
X12228705Y-13639793D01*
X12228705Y-13639793D02*
X12219182Y-13677888D01*
X12219182Y-13677888D02*
X12209658Y-13696936D01*
X12209658Y-13696936D02*
X12200134Y-13706460D01*
X12200134Y-13706460D02*
X12181086Y-13715984D01*
X12181086Y-13715984D02*
X12162039Y-13715984D01*
X12162039Y-13715984D02*
X12142991Y-13706460D01*
X12142991Y-13706460D02*
X12133467Y-13696936D01*
X12133467Y-13696936D02*
X12123943Y-13677888D01*
X12123943Y-13677888D02*
X12114420Y-13639793D01*
X12114420Y-13639793D02*
X12114420Y-13592174D01*
X12114420Y-13592174D02*
X12123943Y-13554079D01*
X12123943Y-13554079D02*
X12133467Y-13535031D01*
X12133467Y-13535031D02*
X12142991Y-13525508D01*
X12142991Y-13525508D02*
X12162039Y-13515984D01*
X12314420Y-13715984D02*
X12314420Y-13582650D01*
X12314420Y-13601698D02*
X12323943Y-13592174D01*
X12323943Y-13592174D02*
X12342991Y-13582650D01*
X12342991Y-13582650D02*
X12371563Y-13582650D01*
X12371563Y-13582650D02*
X12390610Y-13592174D01*
X12390610Y-13592174D02*
X12400134Y-13611222D01*
X12400134Y-13611222D02*
X12400134Y-13715984D01*
X12400134Y-13611222D02*
X12409658Y-13592174D01*
X12409658Y-13592174D02*
X12428705Y-13582650D01*
X12428705Y-13582650D02*
X12457277Y-13582650D01*
X12457277Y-13582650D02*
X12476324Y-13592174D01*
X12476324Y-13592174D02*
X12485848Y-13611222D01*
X12485848Y-13611222D02*
X12485848Y-13715984D01*
X12581086Y-13715984D02*
X12581086Y-13582650D01*
X12581086Y-13601698D02*
X12590610Y-13592174D01*
X12590610Y-13592174D02*
X12609658Y-13582650D01*
X12609658Y-13582650D02*
X12638229Y-13582650D01*
X12638229Y-13582650D02*
X12657277Y-13592174D01*
X12657277Y-13592174D02*
X12666801Y-13611222D01*
X12666801Y-13611222D02*
X12666801Y-13715984D01*
X12666801Y-13611222D02*
X12676324Y-13592174D01*
X12676324Y-13592174D02*
X12695372Y-13582650D01*
X12695372Y-13582650D02*
X12723943Y-13582650D01*
X12723943Y-13582650D02*
X12742991Y-13592174D01*
X12742991Y-13592174D02*
X12752515Y-13611222D01*
X12752515Y-13611222D02*
X12752515Y-13715984D01*
X13142991Y-13506460D02*
X12971563Y-13763603D01*
X13400134Y-13515984D02*
X13419182Y-13515984D01*
X13419182Y-13515984D02*
X13438229Y-13525508D01*
X13438229Y-13525508D02*
X13447753Y-13535031D01*
X13447753Y-13535031D02*
X13457277Y-13554079D01*
X13457277Y-13554079D02*
X13466801Y-13592174D01*
X13466801Y-13592174D02*
X13466801Y-13639793D01*
X13466801Y-13639793D02*
X13457277Y-13677888D01*
X13457277Y-13677888D02*
X13447753Y-13696936D01*
X13447753Y-13696936D02*
X13438229Y-13706460D01*
X13438229Y-13706460D02*
X13419182Y-13715984D01*
X13419182Y-13715984D02*
X13400134Y-13715984D01*
X13400134Y-13715984D02*
X13381086Y-13706460D01*
X13381086Y-13706460D02*
X13371563Y-13696936D01*
X13371563Y-13696936D02*
X13362039Y-13677888D01*
X13362039Y-13677888D02*
X13352515Y-13639793D01*
X13352515Y-13639793D02*
X13352515Y-13592174D01*
X13352515Y-13592174D02*
X13362039Y-13554079D01*
X13362039Y-13554079D02*
X13371563Y-13535031D01*
X13371563Y-13535031D02*
X13381086Y-13525508D01*
X13381086Y-13525508D02*
X13400134Y-13515984D01*
X13552515Y-13696936D02*
X13562039Y-13706460D01*
X13562039Y-13706460D02*
X13552515Y-13715984D01*
X13552515Y-13715984D02*
X13542991Y-13706460D01*
X13542991Y-13706460D02*
X13552515Y-13696936D01*
X13552515Y-13696936D02*
X13552515Y-13715984D01*
X13685848Y-13515984D02*
X13704896Y-13515984D01*
X13704896Y-13515984D02*
X13723944Y-13525508D01*
X13723944Y-13525508D02*
X13733467Y-13535031D01*
X13733467Y-13535031D02*
X13742991Y-13554079D01*
X13742991Y-13554079D02*
X13752515Y-13592174D01*
X13752515Y-13592174D02*
X13752515Y-13639793D01*
X13752515Y-13639793D02*
X13742991Y-13677888D01*
X13742991Y-13677888D02*
X13733467Y-13696936D01*
X13733467Y-13696936D02*
X13723944Y-13706460D01*
X13723944Y-13706460D02*
X13704896Y-13715984D01*
X13704896Y-13715984D02*
X13685848Y-13715984D01*
X13685848Y-13715984D02*
X13666801Y-13706460D01*
X13666801Y-13706460D02*
X13657277Y-13696936D01*
X13657277Y-13696936D02*
X13647753Y-13677888D01*
X13647753Y-13677888D02*
X13638229Y-13639793D01*
X13638229Y-13639793D02*
X13638229Y-13592174D01*
X13638229Y-13592174D02*
X13647753Y-13554079D01*
X13647753Y-13554079D02*
X13657277Y-13535031D01*
X13657277Y-13535031D02*
X13666801Y-13525508D01*
X13666801Y-13525508D02*
X13685848Y-13515984D01*
X13923944Y-13582650D02*
X13923944Y-13715984D01*
X13876325Y-13506460D02*
X13828706Y-13649317D01*
X13828706Y-13649317D02*
X13952515Y-13649317D01*
X14009658Y-13515984D02*
X14142991Y-13515984D01*
X14142991Y-13515984D02*
X14057277Y-13715984D01*
X14209658Y-13535031D02*
X14219182Y-13525508D01*
X14219182Y-13525508D02*
X14238229Y-13515984D01*
X14238229Y-13515984D02*
X14285848Y-13515984D01*
X14285848Y-13515984D02*
X14304896Y-13525508D01*
X14304896Y-13525508D02*
X14314420Y-13535031D01*
X14314420Y-13535031D02*
X14323944Y-13554079D01*
X14323944Y-13554079D02*
X14323944Y-13573127D01*
X14323944Y-13573127D02*
X14314420Y-13601698D01*
X14314420Y-13601698D02*
X14200134Y-13715984D01*
X14200134Y-13715984D02*
X14323944Y-13715984D01*
X14400134Y-13515984D02*
X14400134Y-13554079D01*
X14476325Y-13515984D02*
X14476325Y-13554079D01*
X14771563Y-13792174D02*
X14762039Y-13782650D01*
X14762039Y-13782650D02*
X14742991Y-13754079D01*
X14742991Y-13754079D02*
X14733468Y-13735031D01*
X14733468Y-13735031D02*
X14723944Y-13706460D01*
X14723944Y-13706460D02*
X14714420Y-13658841D01*
X14714420Y-13658841D02*
X14714420Y-13620746D01*
X14714420Y-13620746D02*
X14723944Y-13573127D01*
X14723944Y-13573127D02*
X14733468Y-13544555D01*
X14733468Y-13544555D02*
X14742991Y-13525508D01*
X14742991Y-13525508D02*
X14762039Y-13496936D01*
X14762039Y-13496936D02*
X14771563Y-13487412D01*
X14952515Y-13715984D02*
X14838229Y-13715984D01*
X14895372Y-13715984D02*
X14895372Y-13515984D01*
X14895372Y-13515984D02*
X14876325Y-13544555D01*
X14876325Y-13544555D02*
X14857277Y-13563603D01*
X14857277Y-13563603D02*
X14838229Y-13573127D01*
X15190610Y-13715984D02*
X15190610Y-13515984D01*
X15276325Y-13715984D02*
X15276325Y-13611222D01*
X15276325Y-13611222D02*
X15266801Y-13592174D01*
X15266801Y-13592174D02*
X15247753Y-13582650D01*
X15247753Y-13582650D02*
X15219182Y-13582650D01*
X15219182Y-13582650D02*
X15200134Y-13592174D01*
X15200134Y-13592174D02*
X15190610Y-13601698D01*
X15400134Y-13715984D02*
X15381087Y-13706460D01*
X15381087Y-13706460D02*
X15371563Y-13696936D01*
X15371563Y-13696936D02*
X15362039Y-13677888D01*
X15362039Y-13677888D02*
X15362039Y-13620746D01*
X15362039Y-13620746D02*
X15371563Y-13601698D01*
X15371563Y-13601698D02*
X15381087Y-13592174D01*
X15381087Y-13592174D02*
X15400134Y-13582650D01*
X15400134Y-13582650D02*
X15428706Y-13582650D01*
X15428706Y-13582650D02*
X15447753Y-13592174D01*
X15447753Y-13592174D02*
X15457277Y-13601698D01*
X15457277Y-13601698D02*
X15466801Y-13620746D01*
X15466801Y-13620746D02*
X15466801Y-13677888D01*
X15466801Y-13677888D02*
X15457277Y-13696936D01*
X15457277Y-13696936D02*
X15447753Y-13706460D01*
X15447753Y-13706460D02*
X15428706Y-13715984D01*
X15428706Y-13715984D02*
X15400134Y-13715984D01*
X15581087Y-13715984D02*
X15562039Y-13706460D01*
X15562039Y-13706460D02*
X15552515Y-13687412D01*
X15552515Y-13687412D02*
X15552515Y-13515984D01*
X15733468Y-13706460D02*
X15714420Y-13715984D01*
X15714420Y-13715984D02*
X15676325Y-13715984D01*
X15676325Y-13715984D02*
X15657277Y-13706460D01*
X15657277Y-13706460D02*
X15647753Y-13687412D01*
X15647753Y-13687412D02*
X15647753Y-13611222D01*
X15647753Y-13611222D02*
X15657277Y-13592174D01*
X15657277Y-13592174D02*
X15676325Y-13582650D01*
X15676325Y-13582650D02*
X15714420Y-13582650D01*
X15714420Y-13582650D02*
X15733468Y-13592174D01*
X15733468Y-13592174D02*
X15742991Y-13611222D01*
X15742991Y-13611222D02*
X15742991Y-13630269D01*
X15742991Y-13630269D02*
X15647753Y-13649317D01*
X15809658Y-13792174D02*
X15819182Y-13782650D01*
X15819182Y-13782650D02*
X15838230Y-13754079D01*
X15838230Y-13754079D02*
X15847753Y-13735031D01*
X15847753Y-13735031D02*
X15857277Y-13706460D01*
X15857277Y-13706460D02*
X15866801Y-13658841D01*
X15866801Y-13658841D02*
X15866801Y-13620746D01*
X15866801Y-13620746D02*
X15857277Y-13573127D01*
X15857277Y-13573127D02*
X15847753Y-13544555D01*
X15847753Y-13544555D02*
X15838230Y-13525508D01*
X15838230Y-13525508D02*
X15819182Y-13496936D01*
X15819182Y-13496936D02*
X15809658Y-13487412D01*
X16171563Y-13792174D02*
X16162039Y-13782650D01*
X16162039Y-13782650D02*
X16142991Y-13754079D01*
X16142991Y-13754079D02*
X16133468Y-13735031D01*
X16133468Y-13735031D02*
X16123944Y-13706460D01*
X16123944Y-13706460D02*
X16114420Y-13658841D01*
X16114420Y-13658841D02*
X16114420Y-13620746D01*
X16114420Y-13620746D02*
X16123944Y-13573127D01*
X16123944Y-13573127D02*
X16133468Y-13544555D01*
X16133468Y-13544555D02*
X16142991Y-13525508D01*
X16142991Y-13525508D02*
X16162039Y-13496936D01*
X16162039Y-13496936D02*
X16171563Y-13487412D01*
X16247753Y-13582650D02*
X16247753Y-13715984D01*
X16247753Y-13601698D02*
X16257277Y-13592174D01*
X16257277Y-13592174D02*
X16276325Y-13582650D01*
X16276325Y-13582650D02*
X16304896Y-13582650D01*
X16304896Y-13582650D02*
X16323944Y-13592174D01*
X16323944Y-13592174D02*
X16333468Y-13611222D01*
X16333468Y-13611222D02*
X16333468Y-13715984D01*
X16457277Y-13715984D02*
X16438230Y-13706460D01*
X16438230Y-13706460D02*
X16428706Y-13696936D01*
X16428706Y-13696936D02*
X16419182Y-13677888D01*
X16419182Y-13677888D02*
X16419182Y-13620746D01*
X16419182Y-13620746D02*
X16428706Y-13601698D01*
X16428706Y-13601698D02*
X16438230Y-13592174D01*
X16438230Y-13592174D02*
X16457277Y-13582650D01*
X16457277Y-13582650D02*
X16485849Y-13582650D01*
X16485849Y-13582650D02*
X16504896Y-13592174D01*
X16504896Y-13592174D02*
X16514420Y-13601698D01*
X16514420Y-13601698D02*
X16523944Y-13620746D01*
X16523944Y-13620746D02*
X16523944Y-13677888D01*
X16523944Y-13677888D02*
X16514420Y-13696936D01*
X16514420Y-13696936D02*
X16504896Y-13706460D01*
X16504896Y-13706460D02*
X16485849Y-13715984D01*
X16485849Y-13715984D02*
X16457277Y-13715984D01*
X16581087Y-13582650D02*
X16657277Y-13582650D01*
X16609658Y-13515984D02*
X16609658Y-13687412D01*
X16609658Y-13687412D02*
X16619182Y-13706460D01*
X16619182Y-13706460D02*
X16638230Y-13715984D01*
X16638230Y-13715984D02*
X16657277Y-13715984D01*
X16876325Y-13582650D02*
X16876325Y-13782650D01*
X16876325Y-13592174D02*
X16895373Y-13582650D01*
X16895373Y-13582650D02*
X16933468Y-13582650D01*
X16933468Y-13582650D02*
X16952515Y-13592174D01*
X16952515Y-13592174D02*
X16962039Y-13601698D01*
X16962039Y-13601698D02*
X16971563Y-13620746D01*
X16971563Y-13620746D02*
X16971563Y-13677888D01*
X16971563Y-13677888D02*
X16962039Y-13696936D01*
X16962039Y-13696936D02*
X16952515Y-13706460D01*
X16952515Y-13706460D02*
X16933468Y-13715984D01*
X16933468Y-13715984D02*
X16895373Y-13715984D01*
X16895373Y-13715984D02*
X16876325Y-13706460D01*
X17085849Y-13715984D02*
X17066801Y-13706460D01*
X17066801Y-13706460D02*
X17057277Y-13687412D01*
X17057277Y-13687412D02*
X17057277Y-13515984D01*
X17247754Y-13715984D02*
X17247754Y-13611222D01*
X17247754Y-13611222D02*
X17238230Y-13592174D01*
X17238230Y-13592174D02*
X17219182Y-13582650D01*
X17219182Y-13582650D02*
X17181087Y-13582650D01*
X17181087Y-13582650D02*
X17162039Y-13592174D01*
X17247754Y-13706460D02*
X17228706Y-13715984D01*
X17228706Y-13715984D02*
X17181087Y-13715984D01*
X17181087Y-13715984D02*
X17162039Y-13706460D01*
X17162039Y-13706460D02*
X17152515Y-13687412D01*
X17152515Y-13687412D02*
X17152515Y-13668365D01*
X17152515Y-13668365D02*
X17162039Y-13649317D01*
X17162039Y-13649317D02*
X17181087Y-13639793D01*
X17181087Y-13639793D02*
X17228706Y-13639793D01*
X17228706Y-13639793D02*
X17247754Y-13630269D01*
X17314420Y-13582650D02*
X17390611Y-13582650D01*
X17342992Y-13515984D02*
X17342992Y-13687412D01*
X17342992Y-13687412D02*
X17352515Y-13706460D01*
X17352515Y-13706460D02*
X17371563Y-13715984D01*
X17371563Y-13715984D02*
X17390611Y-13715984D01*
X17533468Y-13706460D02*
X17514420Y-13715984D01*
X17514420Y-13715984D02*
X17476325Y-13715984D01*
X17476325Y-13715984D02*
X17457277Y-13706460D01*
X17457277Y-13706460D02*
X17447754Y-13687412D01*
X17447754Y-13687412D02*
X17447754Y-13611222D01*
X17447754Y-13611222D02*
X17457277Y-13592174D01*
X17457277Y-13592174D02*
X17476325Y-13582650D01*
X17476325Y-13582650D02*
X17514420Y-13582650D01*
X17514420Y-13582650D02*
X17533468Y-13592174D01*
X17533468Y-13592174D02*
X17542992Y-13611222D01*
X17542992Y-13611222D02*
X17542992Y-13630269D01*
X17542992Y-13630269D02*
X17447754Y-13649317D01*
X17714420Y-13715984D02*
X17714420Y-13515984D01*
X17714420Y-13706460D02*
X17695373Y-13715984D01*
X17695373Y-13715984D02*
X17657277Y-13715984D01*
X17657277Y-13715984D02*
X17638230Y-13706460D01*
X17638230Y-13706460D02*
X17628706Y-13696936D01*
X17628706Y-13696936D02*
X17619182Y-13677888D01*
X17619182Y-13677888D02*
X17619182Y-13620746D01*
X17619182Y-13620746D02*
X17628706Y-13601698D01*
X17628706Y-13601698D02*
X17638230Y-13592174D01*
X17638230Y-13592174D02*
X17657277Y-13582650D01*
X17657277Y-13582650D02*
X17695373Y-13582650D01*
X17695373Y-13582650D02*
X17714420Y-13592174D01*
X17790611Y-13792174D02*
X17800135Y-13782650D01*
X17800135Y-13782650D02*
X17819182Y-13754079D01*
X17819182Y-13754079D02*
X17828706Y-13735031D01*
X17828706Y-13735031D02*
X17838230Y-13706460D01*
X17838230Y-13706460D02*
X17847754Y-13658841D01*
X17847754Y-13658841D02*
X17847754Y-13620746D01*
X17847754Y-13620746D02*
X17838230Y-13573127D01*
X17838230Y-13573127D02*
X17828706Y-13544555D01*
X17828706Y-13544555D02*
X17819182Y-13525508D01*
X17819182Y-13525508D02*
X17800135Y-13496936D01*
X17800135Y-13496936D02*
X17790611Y-13487412D01*
M02*
