%TF.GenerationSoftware,KiCad,Pcbnew,9.0.6*%
%TF.CreationDate,2025-12-02T12:48:07-05:00*%
%TF.ProjectId,ControlBoard,436f6e74-726f-46c4-926f-6172642e6b69,rev?*%
%TF.SameCoordinates,Original*%
%TF.FileFunction,Copper,L1,Top*%
%TF.FilePolarity,Positive*%
%FSLAX46Y46*%
G04 Gerber Fmt 4.6, Leading zero omitted, Abs format (unit mm)*
G04 Created by KiCad (PCBNEW 9.0.6) date 2025-12-02 12:48:07*
%MOMM*%
%LPD*%
G01*
G04 APERTURE LIST*
G04 Aperture macros list*
%AMRoundRect*
0 Rectangle with rounded corners*
0 $1 Rounding radius*
0 $2 $3 $4 $5 $6 $7 $8 $9 X,Y pos of 4 corners*
0 Add a 4 corners polygon primitive as box body*
4,1,4,$2,$3,$4,$5,$6,$7,$8,$9,$2,$3,0*
0 Add four circle primitives for the rounded corners*
1,1,$1+$1,$2,$3*
1,1,$1+$1,$4,$5*
1,1,$1+$1,$6,$7*
1,1,$1+$1,$8,$9*
0 Add four rect primitives between the rounded corners*
20,1,$1+$1,$2,$3,$4,$5,0*
20,1,$1+$1,$4,$5,$6,$7,0*
20,1,$1+$1,$6,$7,$8,$9,0*
20,1,$1+$1,$8,$9,$2,$3,0*%
G04 Aperture macros list end*
%ADD10C,0.150000*%
%TA.AperFunction,ComponentPad*%
%ADD11RoundRect,0.345000X-0.805000X3.455000X-0.805000X-3.455000X0.805000X-3.455000X0.805000X3.455000X0*%
%TD*%
%TA.AperFunction,ComponentPad*%
%ADD12RoundRect,0.345000X0.805000X-3.455000X0.805000X3.455000X-0.805000X3.455000X-0.805000X-3.455000X0*%
%TD*%
%TA.AperFunction,ComponentPad*%
%ADD13RoundRect,0.500000X-2.000000X4.500000X-2.000000X-4.500000X2.000000X-4.500000X2.000000X4.500000X0*%
%TD*%
%TA.AperFunction,ComponentPad*%
%ADD14RoundRect,0.500000X2.000000X-4.500000X2.000000X4.500000X-2.000000X4.500000X-2.000000X-4.500000X0*%
%TD*%
%TA.AperFunction,ComponentPad*%
%ADD15R,7.600000X2.300000*%
%TD*%
%TA.AperFunction,ComponentPad*%
%ADD16C,1.700000*%
%TD*%
%TA.AperFunction,ComponentPad*%
%ADD17RoundRect,0.345000X-3.455000X-0.805000X3.455000X-0.805000X3.455000X0.805000X-3.455000X0.805000X0*%
%TD*%
%TA.AperFunction,ComponentPad*%
%ADD18RoundRect,0.345000X3.455000X0.805000X-3.455000X0.805000X-3.455000X-0.805000X3.455000X-0.805000X0*%
%TD*%
%TA.AperFunction,ComponentPad*%
%ADD19R,1.217000X1.217000*%
%TD*%
%TA.AperFunction,ComponentPad*%
%ADD20C,1.217000*%
%TD*%
%TA.AperFunction,ComponentPad*%
%ADD21O,1.008000X2.016000*%
%TD*%
%TA.AperFunction,ComponentPad*%
%ADD22O,2.016000X1.008000*%
%TD*%
%TA.AperFunction,ComponentPad*%
%ADD23R,1.676400X1.676400*%
%TD*%
%TA.AperFunction,ComponentPad*%
%ADD24C,1.676400*%
%TD*%
%TA.AperFunction,ComponentPad*%
%ADD25R,1.524000X1.524000*%
%TD*%
%TA.AperFunction,ComponentPad*%
%ADD26C,1.524000*%
%TD*%
%TA.AperFunction,Conductor*%
%ADD27C,0.200000*%
%TD*%
%TA.AperFunction,Conductor*%
%ADD28C,1.000000*%
%TD*%
G04 APERTURE END LIST*
D10*
G36*
X174534318Y-114145930D02*
G01*
X173543049Y-114145930D01*
X173543049Y-113388390D01*
X173654160Y-113388390D01*
X173654160Y-113531247D01*
X173654411Y-113533800D01*
X173654249Y-113534893D01*
X173655058Y-113540366D01*
X173655601Y-113545879D01*
X173656023Y-113546900D01*
X173656399Y-113549437D01*
X173704018Y-113739913D01*
X173704403Y-113740992D01*
X173704442Y-113741532D01*
X173706769Y-113747613D01*
X173708965Y-113753759D01*
X173709287Y-113754194D01*
X173709697Y-113755264D01*
X173757316Y-113850502D01*
X173761279Y-113856798D01*
X173762037Y-113858628D01*
X173763726Y-113860686D01*
X173765148Y-113862945D01*
X173766646Y-113864244D01*
X173771365Y-113869994D01*
X173866603Y-113965233D01*
X173877968Y-113974561D01*
X173880458Y-113975592D01*
X173882493Y-113977357D01*
X173895919Y-113983351D01*
X174038775Y-114030970D01*
X174046030Y-114032619D01*
X174047861Y-114033378D01*
X174050514Y-114033639D01*
X174053112Y-114034230D01*
X174055086Y-114034089D01*
X174062493Y-114034819D01*
X174157731Y-114034819D01*
X174165136Y-114034089D01*
X174167111Y-114034230D01*
X174169708Y-114033639D01*
X174172363Y-114033378D01*
X174174194Y-114032619D01*
X174181448Y-114030970D01*
X174324305Y-113983351D01*
X174337730Y-113977357D01*
X174339765Y-113975591D01*
X174342256Y-113974560D01*
X174353622Y-113965232D01*
X174401240Y-113917613D01*
X174410568Y-113906247D01*
X174417849Y-113888668D01*
X174421766Y-113879212D01*
X174423207Y-113864580D01*
X174423207Y-113531247D01*
X174421766Y-113516615D01*
X174410567Y-113489579D01*
X174389875Y-113468887D01*
X174362839Y-113457688D01*
X174348207Y-113456247D01*
X174157731Y-113456247D01*
X174143099Y-113457688D01*
X174116063Y-113468887D01*
X174095371Y-113489579D01*
X174084172Y-113516615D01*
X174084172Y-113545879D01*
X174095371Y-113572915D01*
X174116063Y-113593607D01*
X174143099Y-113604806D01*
X174157731Y-113606247D01*
X174273207Y-113606247D01*
X174273207Y-113833514D01*
X174260074Y-113846647D01*
X174145561Y-113884819D01*
X174074663Y-113884819D01*
X173960150Y-113846648D01*
X173886037Y-113772534D01*
X173847543Y-113695547D01*
X173804160Y-113522013D01*
X173804160Y-113397624D01*
X173847543Y-113224090D01*
X173886037Y-113147103D01*
X173960150Y-113072990D01*
X174074663Y-113034819D01*
X174187645Y-113034819D01*
X174267047Y-113074520D01*
X174280778Y-113079775D01*
X174309968Y-113081849D01*
X174337730Y-113072595D01*
X174359837Y-113053422D01*
X174372925Y-113027247D01*
X174374999Y-112998057D01*
X174365745Y-112970296D01*
X174346572Y-112948188D01*
X174334129Y-112940356D01*
X174238891Y-112892737D01*
X174225159Y-112887482D01*
X174222471Y-112887291D01*
X174219982Y-112886260D01*
X174205350Y-112884819D01*
X174062493Y-112884819D01*
X174055086Y-112885548D01*
X174053112Y-112885408D01*
X174050514Y-112885998D01*
X174047861Y-112886260D01*
X174046030Y-112887018D01*
X174038775Y-112888668D01*
X173895919Y-112936287D01*
X173882493Y-112942281D01*
X173880458Y-112944045D01*
X173877968Y-112945077D01*
X173866603Y-112954405D01*
X173771365Y-113049643D01*
X173766646Y-113055392D01*
X173765148Y-113056692D01*
X173763726Y-113058951D01*
X173762038Y-113061008D01*
X173761280Y-113062835D01*
X173757316Y-113069135D01*
X173709697Y-113164373D01*
X173709287Y-113165442D01*
X173708965Y-113165878D01*
X173706769Y-113172023D01*
X173704442Y-113178105D01*
X173704403Y-113178644D01*
X173704018Y-113179724D01*
X173656399Y-113370200D01*
X173656023Y-113372736D01*
X173655601Y-113373758D01*
X173655058Y-113379270D01*
X173654249Y-113384744D01*
X173654411Y-113385836D01*
X173654160Y-113388390D01*
X173543049Y-113388390D01*
X173543049Y-112773708D01*
X174534318Y-112773708D01*
X174534318Y-114145930D01*
G37*
D11*
%TO.P,U2,2,2*%
%TO.N,+5V*%
X166730000Y-79920000D03*
D12*
X166730000Y-79920000D03*
D11*
%TO.P,U2,1,1*%
%TO.N,Net-(B1-+Vout)*%
X166730000Y-95820000D03*
D12*
X166730000Y-95820000D03*
%TD*%
D13*
%TO.P,B1,1,+Vin*%
%TO.N,/USBC+*%
X155830000Y-117860000D03*
%TO.P,B1,2,-Vin*%
%TO.N,/USBC-*%
X162330000Y-117860000D03*
D14*
%TO.P,B1,3,+Vout*%
%TO.N,Net-(B1-+Vout)*%
X162330000Y-102860000D03*
%TD*%
%TO.P,J1,1,Pin_1*%
%TO.N,/USBC+*%
X155830000Y-122255000D03*
%TO.P,J1,2,Pin_2*%
%TO.N,/USBC-*%
X162330000Y-122255000D03*
%TD*%
D15*
%TO.P,J3,1,Pin_1*%
%TO.N,+5V*%
X173420000Y-85240000D03*
X173420000Y-85240000D03*
D16*
%TO.P,J3,2,Pin_2*%
%TO.N,unconnected-(J3-Pin_2-Pad2)*%
X174720000Y-92660000D03*
%TO.P,J3,3,Pin_3*%
%TO.N,/nShoutRecive*%
X174720000Y-95200000D03*
%TO.P,J3,4,Pin_4*%
%TO.N,+3.3V*%
X174720000Y-97740000D03*
%TO.P,J3,5,Pin_5*%
%TO.N,/ESP32_UART_TX*%
X174720000Y-100280000D03*
%TO.P,J3,6,Pin_6*%
%TO.N,/ESP32_UART_RX*%
X174720000Y-102820000D03*
D17*
%TO.P,J3,7,Pin_7*%
%TO.N,GND*%
X173920000Y-110240000D03*
D18*
X173920000Y-110240000D03*
%TD*%
D19*
%TO.P,RV1,1,1*%
%TO.N,Net-(U1-NEG1)*%
X140125000Y-108080000D03*
D20*
%TO.P,RV1,2,2*%
%TO.N,/To ESP32 ADC*%
X140125000Y-110620000D03*
%TO.P,RV1,3,3*%
%TO.N,GND*%
X140125000Y-113160000D03*
%TD*%
D21*
%TO.P,J4,1*%
%TO.N,+1.65V*%
X120680000Y-108590000D03*
D22*
%TO.P,J4,2*%
%TO.N,unconnected-(J4-Pad2)*%
X118580000Y-110390000D03*
%TO.P,J4,3*%
%TO.N,Net-(U1-POS1)*%
X118580000Y-106790000D03*
%TD*%
D23*
%TO.P,U1,1,OUT1*%
%TO.N,/To ESP32 ADC*%
X134715000Y-113615000D03*
D24*
%TO.P,U1,2,NEG1*%
%TO.N,Net-(U1-NEG1)*%
X132175000Y-113615000D03*
%TO.P,U1,3,POS1*%
%TO.N,Net-(U1-POS1)*%
X129635000Y-113615000D03*
%TO.P,U1,4,V+*%
%TO.N,+3.3V*%
X127095000Y-113615000D03*
%TO.P,U1,5,POS2*%
%TO.N,unconnected-(U1-POS2-Pad5)*%
X124555000Y-113615000D03*
%TO.P,U1,6,NEG2*%
%TO.N,unconnected-(U1-NEG2-Pad6)*%
X122015000Y-113615000D03*
%TO.P,U1,7,OUT2*%
%TO.N,unconnected-(U1-OUT2-Pad7)*%
X119475000Y-113615000D03*
%TO.P,U1,8,OUT3*%
%TO.N,unconnected-(U1-OUT3-Pad8)*%
X119475000Y-121235000D03*
%TO.P,U1,9,NEG3*%
%TO.N,unconnected-(U1-NEG3-Pad9)*%
X122015000Y-121235000D03*
%TO.P,U1,10,POS3*%
%TO.N,unconnected-(U1-POS3-Pad10)*%
X124555000Y-121235000D03*
%TO.P,U1,11,V-*%
%TO.N,GND*%
X127095000Y-121235000D03*
%TO.P,U1,12,POS4*%
%TO.N,unconnected-(U1-POS4-Pad12)*%
X129635000Y-121235000D03*
%TO.P,U1,13,NEG4*%
%TO.N,unconnected-(U1-NEG4-Pad13)*%
X132175000Y-121235000D03*
%TO.P,U1,14,OUT4*%
%TO.N,unconnected-(U1-OUT4-Pad14)*%
X134715000Y-121235000D03*
%TD*%
D25*
%TO.P,U3,J1_1,ESP_3V3*%
%TO.N,+3.3V*%
X114200000Y-102185000D03*
D26*
%TO.P,U3,J1_2,CHIP_PU*%
%TO.N,unconnected-(U3-CHIP_PU-PadJ1_2)*%
X116740000Y-102185000D03*
%TO.P,U3,J1_3,GPIO4*%
%TO.N,unconnected-(U3-GPIO4-PadJ1_3)*%
X119280000Y-102185000D03*
%TO.P,U3,J1_4,GPIO5*%
%TO.N,unconnected-(U3-GPIO5-PadJ1_4)*%
X121820000Y-102185000D03*
%TO.P,U3,J1_5,GPIO6*%
%TO.N,unconnected-(U3-GPIO6-PadJ1_5)*%
X124360000Y-102185000D03*
%TO.P,U3,J1_6,GPIO7*%
%TO.N,unconnected-(U3-GPIO7-PadJ1_6)*%
X126900000Y-102185000D03*
%TO.P,U3,J1_7,GPIO0*%
%TO.N,unconnected-(U3-GPIO0-PadJ1_7)*%
X129440000Y-102185000D03*
%TO.P,U3,J1_8,GPIO1*%
%TO.N,unconnected-(U3-GPIO1-PadJ1_8)*%
X131980000Y-102185000D03*
%TO.P,U3,J1_9,GPIO8*%
%TO.N,unconnected-(U3-GPIO8-PadJ1_9)*%
X134520000Y-102185000D03*
%TO.P,U3,J1_10,GPIO10*%
%TO.N,unconnected-(U3-GPIO10-PadJ1_10)*%
X137060000Y-102185000D03*
%TO.P,U3,J1_11,GPIO11*%
%TO.N,unconnected-(U3-GPIO11-PadJ1_11)*%
X139600000Y-102185000D03*
%TO.P,U3,J1_12,GPIO2*%
%TO.N,/To ESP32 ADC*%
X142140000Y-102185000D03*
%TO.P,U3,J1_13,GPIO3*%
%TO.N,unconnected-(U3-GPIO3-PadJ1_13)*%
X144680000Y-102185000D03*
%TO.P,U3,J1_14,VCC_5V*%
%TO.N,+5V*%
X147220000Y-102185000D03*
%TO.P,U3,J1_15,GND_J1_15*%
%TO.N,GND*%
X149760000Y-102185000D03*
%TO.P,U3,J1_16,NC_J1_16*%
%TO.N,unconnected-(U3-NC_J1_16-PadJ1_16)*%
X152300000Y-102185000D03*
%TO.P,U3,J3_1,GND_J3_1*%
%TO.N,GND*%
X114200000Y-79325000D03*
%TO.P,U3,J3_2,UART_TXD*%
%TO.N,/ESP32_UART_TX*%
X116740000Y-79325000D03*
%TO.P,U3,J3_3,UART_RXD*%
%TO.N,/ESP32_UART_RX*%
X119280000Y-79325000D03*
%TO.P,U3,J3_4,GPIO15*%
%TO.N,/nShoutRecive*%
X121820000Y-79325000D03*
%TO.P,U3,J3_5,GPIO23*%
%TO.N,unconnected-(U3-GPIO23-PadJ3_5)*%
X124360000Y-79325000D03*
%TO.P,U3,J3_6,GPIO22*%
%TO.N,unconnected-(U3-GPIO22-PadJ3_6)*%
X126900000Y-79325000D03*
%TO.P,U3,J3_7,GPIO21*%
%TO.N,unconnected-(U3-GPIO21-PadJ3_7)*%
X129440000Y-79325000D03*
%TO.P,U3,J3_8,GPIO20*%
%TO.N,unconnected-(U3-GPIO20-PadJ3_8)*%
X131980000Y-79325000D03*
%TO.P,U3,J3_9,GPIO19*%
%TO.N,unconnected-(U3-GPIO19-PadJ3_9)*%
X134520000Y-79325000D03*
%TO.P,U3,J3_10,GPIO18*%
%TO.N,unconnected-(U3-GPIO18-PadJ3_10)*%
X137060000Y-79325000D03*
%TO.P,U3,J3_11,GPIO9*%
%TO.N,unconnected-(U3-GPIO9-PadJ3_11)*%
X139600000Y-79325000D03*
%TO.P,U3,J3_12,GND_J3_12*%
%TO.N,GND*%
X142140000Y-79325000D03*
%TO.P,U3,J3_13,GPIO13*%
%TO.N,unconnected-(U3-GPIO13-PadJ3_13)*%
X144680000Y-79325000D03*
%TO.P,U3,J3_14,GPIO12*%
%TO.N,unconnected-(U3-GPIO12-PadJ3_14)*%
X147220000Y-79325000D03*
%TO.P,U3,J3_15,GND_J3_15*%
%TO.N,GND*%
X149760000Y-79325000D03*
%TO.P,U3,J3_16,NC_J3_16*%
%TO.N,unconnected-(U3-NC_J3_16-PadJ3_16)*%
X152300000Y-79325000D03*
%TD*%
D27*
%TO.N,Net-(U1-POS1)*%
X118580000Y-106790000D02*
X122810000Y-106790000D01*
X122810000Y-106790000D02*
X129635000Y-113615000D01*
D28*
%TO.N,+5V*%
X171120000Y-85240000D02*
X161580000Y-85240000D01*
X161580000Y-85240000D02*
X151860000Y-94960000D01*
X151860000Y-94960000D02*
X151860000Y-95020000D01*
X147220000Y-99660000D02*
X147220000Y-102185000D01*
X151860000Y-95020000D02*
X147220000Y-99660000D01*
D27*
%TO.N,Net-(B1-+Vout)*%
X166730000Y-98120000D02*
X162330000Y-102520000D01*
X162330000Y-102520000D02*
X162330000Y-107860000D01*
D28*
%TO.N,+3.3V*%
X114200000Y-102185000D02*
X114200000Y-110510000D01*
X128744073Y-115154200D02*
X139982713Y-115154200D01*
X114200000Y-110510000D02*
X115760000Y-112070000D01*
X115760000Y-112070000D02*
X125659873Y-112070000D01*
X173169000Y-99291000D02*
X174720000Y-97740000D01*
X125659873Y-112070000D02*
X128744073Y-115154200D01*
X139982713Y-115154200D02*
X145025913Y-110111000D01*
X145025913Y-110111000D02*
X163284744Y-110111000D01*
X163284744Y-110111000D02*
X173169000Y-100226744D01*
X173169000Y-100226744D02*
X173169000Y-99291000D01*
D27*
%TO.N,/To ESP32 ADC*%
X140125000Y-110620000D02*
X142140000Y-108605000D01*
X142140000Y-108605000D02*
X142140000Y-102185000D01*
X134715000Y-113615000D02*
X137130000Y-113615000D01*
X137130000Y-113615000D02*
X140125000Y-110620000D01*
%TO.N,Net-(U1-NEG1)*%
X140125000Y-108080000D02*
X137710000Y-108080000D01*
X137710000Y-108080000D02*
X132175000Y-113615000D01*
%TD*%
%TA.AperFunction,Conductor*%
%TO.N,+5V*%
G36*
X171849632Y-75410185D02*
G01*
X171870948Y-75427497D01*
X177324640Y-80966071D01*
X177553856Y-81198854D01*
X177586866Y-81260434D01*
X177589500Y-81285856D01*
X177589500Y-108466366D01*
X177569815Y-108533405D01*
X177517011Y-108579160D01*
X177457112Y-108590082D01*
X177448528Y-108589500D01*
X177448526Y-108589500D01*
X170391474Y-108589500D01*
X170382892Y-108590082D01*
X170350179Y-108592300D01*
X170171712Y-108636684D01*
X170171710Y-108636685D01*
X170006959Y-108718393D01*
X170006955Y-108718395D01*
X170006955Y-108718396D01*
X169916323Y-108791249D01*
X169863616Y-108833616D01*
X169748393Y-108976959D01*
X169666685Y-109141710D01*
X169666684Y-109141712D01*
X169622300Y-109320179D01*
X169620705Y-109343703D01*
X169619500Y-109361474D01*
X169619500Y-111118526D01*
X169620700Y-111136221D01*
X169622300Y-111159820D01*
X169666684Y-111338287D01*
X169666685Y-111338289D01*
X169748393Y-111503040D01*
X169748394Y-111503041D01*
X169748396Y-111503045D01*
X169863616Y-111646384D01*
X170006955Y-111761604D01*
X170171713Y-111843316D01*
X170350180Y-111887699D01*
X170350181Y-111887699D01*
X170350184Y-111887700D01*
X170391474Y-111890500D01*
X170391476Y-111890500D01*
X177448528Y-111890500D01*
X177450347Y-111890376D01*
X177457102Y-111889918D01*
X177525320Y-111905016D01*
X177574546Y-111954600D01*
X177589500Y-112013633D01*
X177589500Y-113036396D01*
X177569815Y-113103435D01*
X177567755Y-113106538D01*
X166483330Y-129265642D01*
X166429175Y-129309791D01*
X166381075Y-129319500D01*
X163196804Y-129319500D01*
X163129765Y-129299815D01*
X163084010Y-129247011D01*
X163074066Y-129177853D01*
X163103091Y-129114297D01*
X163149351Y-129080939D01*
X163216690Y-129053046D01*
X163216691Y-129053045D01*
X163216697Y-129053043D01*
X163443803Y-128921924D01*
X163651851Y-128762282D01*
X163651855Y-128762277D01*
X163651860Y-128762274D01*
X163837274Y-128576860D01*
X163837277Y-128576855D01*
X163837282Y-128576851D01*
X163996924Y-128368803D01*
X164128043Y-128141697D01*
X164228398Y-127899419D01*
X164242335Y-127847403D01*
X164278701Y-127787744D01*
X164341548Y-127757216D01*
X164362110Y-127755499D01*
X164388028Y-127755499D01*
X164388036Y-127755499D01*
X164507418Y-127744886D01*
X164703049Y-127688909D01*
X164883407Y-127594698D01*
X165041109Y-127466109D01*
X165169698Y-127308407D01*
X165263909Y-127128049D01*
X165319886Y-126932418D01*
X165330500Y-126813037D01*
X165330500Y-122253591D01*
X165330499Y-114040675D01*
X173647835Y-114040675D01*
X174428207Y-114040675D01*
X174428207Y-112878963D01*
X173647835Y-112878963D01*
X173647835Y-114040675D01*
X165330499Y-114040675D01*
X165330499Y-113301964D01*
X165319886Y-113182582D01*
X165263909Y-112986951D01*
X165169698Y-112806593D01*
X165132812Y-112761356D01*
X165041109Y-112648890D01*
X164883409Y-112520304D01*
X164883410Y-112520304D01*
X164883407Y-112520302D01*
X164703049Y-112426091D01*
X164703048Y-112426090D01*
X164703045Y-112426089D01*
X164585829Y-112392550D01*
X164507418Y-112370114D01*
X164507415Y-112370113D01*
X164507413Y-112370113D01*
X164434631Y-112363642D01*
X164388037Y-112359500D01*
X164388033Y-112359500D01*
X164362109Y-112359500D01*
X164295070Y-112339815D01*
X164249315Y-112287011D01*
X164242334Y-112267593D01*
X164228398Y-112215581D01*
X164223523Y-112203811D01*
X164128046Y-111973309D01*
X164128041Y-111973299D01*
X163996924Y-111746196D01*
X163837281Y-111538148D01*
X163837274Y-111538140D01*
X163651860Y-111352726D01*
X163651855Y-111352722D01*
X163651851Y-111352718D01*
X163559155Y-111281589D01*
X163555576Y-111276688D01*
X163550150Y-111273972D01*
X163535216Y-111248804D01*
X163517955Y-111225164D01*
X163517594Y-111219105D01*
X163514496Y-111213884D01*
X163515540Y-111184631D01*
X163513800Y-111155417D01*
X163516772Y-111150124D01*
X163516989Y-111144059D01*
X163533680Y-111120017D01*
X163548013Y-111094497D01*
X163554259Y-111090376D01*
X163556836Y-111086666D01*
X163587190Y-111068656D01*
X163642591Y-111045708D01*
X163758658Y-110997632D01*
X163922526Y-110888139D01*
X164061883Y-110748782D01*
X164061884Y-110748779D01*
X164068950Y-110741714D01*
X164068953Y-110741710D01*
X173582704Y-101227958D01*
X173644025Y-101194475D01*
X173713717Y-101199459D01*
X173758064Y-101227960D01*
X173840213Y-101310109D01*
X174012182Y-101435050D01*
X174020946Y-101439516D01*
X174071742Y-101487491D01*
X174088536Y-101555312D01*
X174065998Y-101621447D01*
X174020946Y-101660484D01*
X174012182Y-101664949D01*
X173840213Y-101789890D01*
X173689890Y-101940213D01*
X173564951Y-102112179D01*
X173468444Y-102301585D01*
X173402753Y-102503760D01*
X173369500Y-102713713D01*
X173369500Y-102926286D01*
X173380363Y-102994876D01*
X173402754Y-103136243D01*
X173457486Y-103304691D01*
X173468444Y-103338414D01*
X173564951Y-103527820D01*
X173689890Y-103699786D01*
X173840213Y-103850109D01*
X174012179Y-103975048D01*
X174012181Y-103975049D01*
X174012184Y-103975051D01*
X174201588Y-104071557D01*
X174403757Y-104137246D01*
X174613713Y-104170500D01*
X174613714Y-104170500D01*
X174826286Y-104170500D01*
X174826287Y-104170500D01*
X175036243Y-104137246D01*
X175238412Y-104071557D01*
X175427816Y-103975051D01*
X175449789Y-103959086D01*
X175599786Y-103850109D01*
X175599788Y-103850106D01*
X175599792Y-103850104D01*
X175750104Y-103699792D01*
X175750106Y-103699788D01*
X175750109Y-103699786D01*
X175875048Y-103527820D01*
X175875047Y-103527820D01*
X175875051Y-103527816D01*
X175971557Y-103338412D01*
X176037246Y-103136243D01*
X176070500Y-102926287D01*
X176070500Y-102713713D01*
X176037246Y-102503757D01*
X175971557Y-102301588D01*
X175875051Y-102112184D01*
X175875049Y-102112181D01*
X175875048Y-102112179D01*
X175750109Y-101940213D01*
X175599786Y-101789890D01*
X175427820Y-101664951D01*
X175427115Y-101664591D01*
X175419054Y-101660485D01*
X175368259Y-101612512D01*
X175351463Y-101544692D01*
X175373999Y-101478556D01*
X175419054Y-101439515D01*
X175427816Y-101435051D01*
X175457063Y-101413802D01*
X175599786Y-101310109D01*
X175599788Y-101310106D01*
X175599792Y-101310104D01*
X175750104Y-101159792D01*
X175750106Y-101159788D01*
X175750109Y-101159786D01*
X175875048Y-100987820D01*
X175875047Y-100987820D01*
X175875051Y-100987816D01*
X175971557Y-100798412D01*
X176037246Y-100596243D01*
X176070500Y-100386287D01*
X176070500Y-100173713D01*
X176037246Y-99963757D01*
X175971557Y-99761588D01*
X175875051Y-99572184D01*
X175875049Y-99572181D01*
X175875048Y-99572179D01*
X175750109Y-99400213D01*
X175599786Y-99249890D01*
X175427820Y-99124951D01*
X175427115Y-99124591D01*
X175419054Y-99120485D01*
X175368259Y-99072512D01*
X175351463Y-99004692D01*
X175373999Y-98938556D01*
X175419054Y-98899515D01*
X175427816Y-98895051D01*
X175449789Y-98879086D01*
X175599786Y-98770109D01*
X175599788Y-98770106D01*
X175599792Y-98770104D01*
X175750104Y-98619792D01*
X175750106Y-98619788D01*
X175750109Y-98619786D01*
X175875048Y-98447820D01*
X175875047Y-98447820D01*
X175875051Y-98447816D01*
X175971557Y-98258412D01*
X176037246Y-98056243D01*
X176070500Y-97846287D01*
X176070500Y-97633713D01*
X176037246Y-97423757D01*
X175971557Y-97221588D01*
X175875051Y-97032184D01*
X175875049Y-97032181D01*
X175875048Y-97032179D01*
X175750109Y-96860213D01*
X175599786Y-96709890D01*
X175427820Y-96584951D01*
X175427115Y-96584591D01*
X175419054Y-96580485D01*
X175368259Y-96532512D01*
X175351463Y-96464692D01*
X175373999Y-96398556D01*
X175419054Y-96359515D01*
X175427816Y-96355051D01*
X175449789Y-96339086D01*
X175599786Y-96230109D01*
X175599788Y-96230106D01*
X175599792Y-96230104D01*
X175750104Y-96079792D01*
X175750106Y-96079788D01*
X175750109Y-96079786D01*
X175875048Y-95907820D01*
X175875047Y-95907820D01*
X175875051Y-95907816D01*
X175971557Y-95718412D01*
X176037246Y-95516243D01*
X176070500Y-95306287D01*
X176070500Y-95093713D01*
X176037246Y-94883757D01*
X175971557Y-94681588D01*
X175875051Y-94492184D01*
X175875049Y-94492181D01*
X175875048Y-94492179D01*
X175750109Y-94320213D01*
X175599786Y-94169890D01*
X175427820Y-94044951D01*
X175427115Y-94044591D01*
X175419054Y-94040485D01*
X175368259Y-93992512D01*
X175351463Y-93924692D01*
X175373999Y-93858556D01*
X175419054Y-93819515D01*
X175427816Y-93815051D01*
X175449789Y-93799086D01*
X175599786Y-93690109D01*
X175599788Y-93690106D01*
X175599792Y-93690104D01*
X175750104Y-93539792D01*
X175750106Y-93539788D01*
X175750109Y-93539786D01*
X175875048Y-93367820D01*
X175875047Y-93367820D01*
X175875051Y-93367816D01*
X175971557Y-93178412D01*
X176037246Y-92976243D01*
X176070500Y-92766287D01*
X176070500Y-92553713D01*
X176037246Y-92343757D01*
X175971557Y-92141588D01*
X175875051Y-91952184D01*
X175875049Y-91952181D01*
X175875048Y-91952179D01*
X175750109Y-91780213D01*
X175599786Y-91629890D01*
X175427819Y-91504951D01*
X175427818Y-91504950D01*
X175427816Y-91504949D01*
X175365946Y-91473424D01*
X175275756Y-91427470D01*
X175224960Y-91379495D01*
X175208165Y-91311674D01*
X175209311Y-91299357D01*
X175225500Y-91186760D01*
X175225500Y-90802210D01*
X175223065Y-90752654D01*
X175220682Y-90728463D01*
X175213404Y-90679400D01*
X175197763Y-90600768D01*
X175169001Y-90505949D01*
X175150487Y-90461250D01*
X175141664Y-90444744D01*
X175103775Y-90373857D01*
X175103774Y-90373855D01*
X175103769Y-90373846D01*
X175066139Y-90317529D01*
X175066136Y-90317524D01*
X175066129Y-90317515D01*
X175021904Y-90260586D01*
X175021886Y-90260564D01*
X174998321Y-90234329D01*
X174998312Y-90234320D01*
X174946428Y-90184253D01*
X174946425Y-90184251D01*
X174934324Y-90176775D01*
X174920830Y-90167135D01*
X174892476Y-90143865D01*
X174892466Y-90143857D01*
X174848496Y-90114478D01*
X174836151Y-90106229D01*
X174836148Y-90106227D01*
X174836146Y-90106226D01*
X174748751Y-90059512D01*
X174748748Y-90059511D01*
X174704071Y-90041005D01*
X174704068Y-90041004D01*
X174704063Y-90041002D01*
X174667416Y-90029885D01*
X174609234Y-90012236D01*
X174530580Y-89996592D01*
X174481513Y-89989314D01*
X174457329Y-89986933D01*
X174439073Y-89986036D01*
X174407789Y-89984500D01*
X169212364Y-89984500D01*
X169211833Y-89984500D01*
X169210762Y-89984502D01*
X169210761Y-89984501D01*
X169208969Y-89984507D01*
X169206314Y-89984521D01*
X169205918Y-89984524D01*
X169204491Y-89984538D01*
X169204216Y-89984541D01*
X169204128Y-89984541D01*
X169202270Y-89984562D01*
X169202227Y-89984563D01*
X169200955Y-89984578D01*
X169200447Y-89984585D01*
X163742662Y-90063996D01*
X161816380Y-90092024D01*
X161804387Y-90092698D01*
X161774390Y-90094384D01*
X161753920Y-90096392D01*
X161712346Y-90102220D01*
X161645294Y-90114478D01*
X161645284Y-90114481D01*
X161564250Y-90136381D01*
X161564239Y-90136384D01*
X161525652Y-90150343D01*
X161449345Y-90185361D01*
X161399080Y-90213701D01*
X161399074Y-90213705D01*
X161329638Y-90260853D01*
X161329622Y-90260865D01*
X161297706Y-90286657D01*
X161297702Y-90286660D01*
X161237012Y-90344667D01*
X161191825Y-90395683D01*
X161165295Y-90428269D01*
X161152984Y-90444744D01*
X161129249Y-90479423D01*
X160151710Y-92043488D01*
X159237786Y-93505767D01*
X156395918Y-98052755D01*
X156395917Y-98052754D01*
X156362786Y-98105766D01*
X156362786Y-98105767D01*
X155670409Y-99213568D01*
X155653114Y-99243468D01*
X155645151Y-99258388D01*
X155629942Y-99289389D01*
X155606914Y-99340693D01*
X155583014Y-99405448D01*
X155573505Y-99437877D01*
X155558644Y-99505312D01*
X155558644Y-99505315D01*
X155550322Y-99560932D01*
X155546381Y-99595243D01*
X155545026Y-99612111D01*
X155543437Y-99646628D01*
X155535552Y-100312709D01*
X155471224Y-105745347D01*
X155471224Y-105745353D01*
X155473569Y-105781101D01*
X155458314Y-105849285D01*
X155408617Y-105898398D01*
X155381929Y-105908990D01*
X155185581Y-105961602D01*
X155185579Y-105961602D01*
X155185578Y-105961603D01*
X155185571Y-105961605D01*
X154943309Y-106061953D01*
X154943299Y-106061958D01*
X154716196Y-106193075D01*
X154508148Y-106352718D01*
X154322718Y-106538148D01*
X154163075Y-106746196D01*
X154031958Y-106973299D01*
X154031953Y-106973309D01*
X153931605Y-107215571D01*
X153931602Y-107215581D01*
X153868969Y-107449334D01*
X153863730Y-107468885D01*
X153829500Y-107728872D01*
X153829500Y-107991127D01*
X153855307Y-108187137D01*
X153863730Y-108251116D01*
X153931602Y-108504418D01*
X153931605Y-108504428D01*
X154031953Y-108746690D01*
X154031958Y-108746700D01*
X154134611Y-108924500D01*
X154151084Y-108992400D01*
X154128231Y-109058427D01*
X154073310Y-109101618D01*
X154027224Y-109110500D01*
X144927368Y-109110500D01*
X144834504Y-109128972D01*
X144834499Y-109128973D01*
X144830725Y-109129724D01*
X144734077Y-109148949D01*
X144697939Y-109163918D01*
X144690243Y-109167105D01*
X144690234Y-109167108D01*
X144552005Y-109224364D01*
X144551992Y-109224371D01*
X144388132Y-109333859D01*
X144336492Y-109385500D01*
X144248774Y-109473218D01*
X144248771Y-109473221D01*
X141205507Y-112516484D01*
X141144184Y-112549969D01*
X141074492Y-112544985D01*
X141018559Y-112503113D01*
X141017508Y-112501688D01*
X140970900Y-112437538D01*
X140970895Y-112437532D01*
X140847467Y-112314104D01*
X140847465Y-112314102D01*
X140706243Y-112211498D01*
X140550708Y-112132250D01*
X140550707Y-112132249D01*
X140550706Y-112132249D01*
X140384693Y-112078308D01*
X140269750Y-112060102D01*
X140212280Y-112051000D01*
X140037720Y-112051000D01*
X139980249Y-112060102D01*
X139865307Y-112078308D01*
X139865303Y-112078309D01*
X139838981Y-112086861D01*
X139832613Y-112087042D01*
X139827024Y-112090095D01*
X139798110Y-112088027D01*
X139769140Y-112088854D01*
X139763686Y-112085565D01*
X139757332Y-112085111D01*
X139734125Y-112067738D01*
X139709308Y-112052772D01*
X139706497Y-112047056D01*
X139701399Y-112043239D01*
X139691269Y-112016081D01*
X139678482Y-111990071D01*
X139679208Y-111983743D01*
X139676982Y-111977775D01*
X139683143Y-111949450D01*
X139686448Y-111920657D01*
X139690819Y-111914164D01*
X139691834Y-111909502D01*
X139712982Y-111881251D01*
X139844144Y-111750089D01*
X139905465Y-111716606D01*
X139951220Y-111715299D01*
X140037720Y-111729000D01*
X140037721Y-111729000D01*
X140212279Y-111729000D01*
X140212280Y-111729000D01*
X140384691Y-111701692D01*
X140384694Y-111701691D01*
X140384695Y-111701691D01*
X140437089Y-111684666D01*
X140550708Y-111647750D01*
X140706243Y-111568502D01*
X140847465Y-111465898D01*
X140970898Y-111342465D01*
X141073502Y-111201243D01*
X141152750Y-111045708D01*
X141191043Y-110927853D01*
X141206691Y-110879695D01*
X141206691Y-110879694D01*
X141206692Y-110879691D01*
X141234000Y-110707280D01*
X141234000Y-110532720D01*
X141220299Y-110446221D01*
X141229253Y-110376929D01*
X141255088Y-110339145D01*
X142498506Y-109095728D01*
X142498511Y-109095724D01*
X142508714Y-109085520D01*
X142508716Y-109085520D01*
X142620520Y-108973716D01*
X142699577Y-108836784D01*
X142740500Y-108684057D01*
X142740500Y-103371730D01*
X142760185Y-103304691D01*
X142797866Y-103267808D01*
X142797752Y-103267651D01*
X142798823Y-103266872D01*
X142799715Y-103266000D01*
X142801690Y-103264789D01*
X142801689Y-103264789D01*
X142801694Y-103264787D01*
X142962464Y-103147981D01*
X143102981Y-103007464D01*
X143219787Y-102846694D01*
X143299515Y-102690218D01*
X143347490Y-102639423D01*
X143415311Y-102622628D01*
X143481446Y-102645165D01*
X143520484Y-102690218D01*
X143600213Y-102846694D01*
X143717019Y-103007464D01*
X143857536Y-103147981D01*
X144018306Y-103264787D01*
X144079500Y-103295967D01*
X144195367Y-103355005D01*
X144195370Y-103355006D01*
X144289866Y-103385709D01*
X144384364Y-103416413D01*
X144580639Y-103447500D01*
X144580640Y-103447500D01*
X144779360Y-103447500D01*
X144779361Y-103447500D01*
X144975636Y-103416413D01*
X145164632Y-103355005D01*
X145341694Y-103264787D01*
X145502464Y-103147981D01*
X145642981Y-103007464D01*
X145759787Y-102846694D01*
X145850005Y-102669632D01*
X145911413Y-102480636D01*
X145942500Y-102284361D01*
X145942500Y-102118120D01*
X146712000Y-102118120D01*
X146712000Y-102251880D01*
X146746619Y-102381081D01*
X146813498Y-102496920D01*
X146908080Y-102591502D01*
X147023919Y-102658381D01*
X147153120Y-102693000D01*
X147286880Y-102693000D01*
X147416081Y-102658381D01*
X147531920Y-102591502D01*
X147626502Y-102496920D01*
X147693381Y-102381081D01*
X147728000Y-102251880D01*
X147728000Y-102118120D01*
X147719297Y-102085639D01*
X148497500Y-102085639D01*
X148497500Y-102284361D01*
X148512819Y-102381081D01*
X148528587Y-102480637D01*
X148589993Y-102669629D01*
X148589994Y-102669632D01*
X148612455Y-102713713D01*
X148680213Y-102846694D01*
X148797019Y-103007464D01*
X148937536Y-103147981D01*
X149098306Y-103264787D01*
X149159500Y-103295967D01*
X149275367Y-103355005D01*
X149275370Y-103355006D01*
X149369866Y-103385709D01*
X149464364Y-103416413D01*
X149660639Y-103447500D01*
X149660640Y-103447500D01*
X149859360Y-103447500D01*
X149859361Y-103447500D01*
X150055636Y-103416413D01*
X150244632Y-103355005D01*
X150421694Y-103264787D01*
X150582464Y-103147981D01*
X150722981Y-103007464D01*
X150839787Y-102846694D01*
X150919515Y-102690218D01*
X150967490Y-102639423D01*
X151035311Y-102622628D01*
X151101446Y-102645165D01*
X151140484Y-102690218D01*
X151220213Y-102846694D01*
X151337019Y-103007464D01*
X151477536Y-103147981D01*
X151638306Y-103264787D01*
X151699500Y-103295967D01*
X151815367Y-103355005D01*
X151815370Y-103355006D01*
X151909866Y-103385709D01*
X152004364Y-103416413D01*
X152200639Y-103447500D01*
X152200640Y-103447500D01*
X152399360Y-103447500D01*
X152399361Y-103447500D01*
X152595636Y-103416413D01*
X152784632Y-103355005D01*
X152961694Y-103264787D01*
X153122464Y-103147981D01*
X153262981Y-103007464D01*
X153379787Y-102846694D01*
X153470005Y-102669632D01*
X153531413Y-102480636D01*
X153562500Y-102284361D01*
X153562500Y-102085639D01*
X153531413Y-101889364D01*
X153470005Y-101700368D01*
X153470005Y-101700367D01*
X153424035Y-101610149D01*
X153379787Y-101523306D01*
X153262981Y-101362536D01*
X153122464Y-101222019D01*
X152961694Y-101105213D01*
X152784632Y-101014994D01*
X152784629Y-101014993D01*
X152595637Y-100953587D01*
X152497498Y-100938043D01*
X152399361Y-100922500D01*
X152200639Y-100922500D01*
X152135214Y-100932862D01*
X152004362Y-100953587D01*
X151815370Y-101014993D01*
X151815367Y-101014994D01*
X151638305Y-101105213D01*
X151477533Y-101222021D01*
X151337021Y-101362533D01*
X151220213Y-101523305D01*
X151140485Y-101679780D01*
X151092510Y-101730576D01*
X151024689Y-101747371D01*
X150958554Y-101724833D01*
X150919515Y-101679780D01*
X150900179Y-101641832D01*
X150839787Y-101523306D01*
X150722981Y-101362536D01*
X150582464Y-101222019D01*
X150421694Y-101105213D01*
X150244632Y-101014994D01*
X150244629Y-101014993D01*
X150055637Y-100953587D01*
X149957498Y-100938043D01*
X149859361Y-100922500D01*
X149660639Y-100922500D01*
X149595214Y-100932862D01*
X149464362Y-100953587D01*
X149275370Y-101014993D01*
X149275367Y-101014994D01*
X149098305Y-101105213D01*
X148937533Y-101222021D01*
X148797021Y-101362533D01*
X148680213Y-101523305D01*
X148589994Y-101700367D01*
X148589993Y-101700370D01*
X148528587Y-101889362D01*
X148528587Y-101889364D01*
X148497500Y-102085639D01*
X147719297Y-102085639D01*
X147693381Y-101988919D01*
X147626502Y-101873080D01*
X147531920Y-101778498D01*
X147416081Y-101711619D01*
X147286880Y-101677000D01*
X147153120Y-101677000D01*
X147023919Y-101711619D01*
X146908080Y-101778498D01*
X146813498Y-101873080D01*
X146746619Y-101988919D01*
X146712000Y-102118120D01*
X145942500Y-102118120D01*
X145942500Y-102085639D01*
X145911413Y-101889364D01*
X145850005Y-101700368D01*
X145850005Y-101700367D01*
X145804035Y-101610149D01*
X145759787Y-101523306D01*
X145642981Y-101362536D01*
X145502464Y-101222019D01*
X145341694Y-101105213D01*
X145164632Y-101014994D01*
X145164629Y-101014993D01*
X144975637Y-100953587D01*
X144877498Y-100938043D01*
X144779361Y-100922500D01*
X144580639Y-100922500D01*
X144515214Y-100932862D01*
X144384362Y-100953587D01*
X144195370Y-101014993D01*
X144195367Y-101014994D01*
X144018305Y-101105213D01*
X143857533Y-101222021D01*
X143717021Y-101362533D01*
X143600213Y-101523305D01*
X143520485Y-101679780D01*
X143472510Y-101730576D01*
X143404689Y-101747371D01*
X143338554Y-101724833D01*
X143299515Y-101679780D01*
X143280179Y-101641832D01*
X143219787Y-101523306D01*
X143102981Y-101362536D01*
X142962464Y-101222019D01*
X142801694Y-101105213D01*
X142624632Y-101014994D01*
X142624629Y-101014993D01*
X142435637Y-100953587D01*
X142337498Y-100938043D01*
X142239361Y-100922500D01*
X142040639Y-100922500D01*
X141975214Y-100932862D01*
X141844362Y-100953587D01*
X141655370Y-101014993D01*
X141655367Y-101014994D01*
X141478305Y-101105213D01*
X141317533Y-101222021D01*
X141177021Y-101362533D01*
X141060213Y-101523305D01*
X140980485Y-101679780D01*
X140932510Y-101730576D01*
X140864689Y-101747371D01*
X140798554Y-101724833D01*
X140759515Y-101679780D01*
X140740179Y-101641832D01*
X140679787Y-101523306D01*
X140562981Y-101362536D01*
X140422464Y-101222019D01*
X140261694Y-101105213D01*
X140084632Y-101014994D01*
X140084629Y-101014993D01*
X139895637Y-100953587D01*
X139797498Y-100938043D01*
X139699361Y-100922500D01*
X139500639Y-100922500D01*
X139435214Y-100932862D01*
X139304362Y-100953587D01*
X139115370Y-101014993D01*
X139115367Y-101014994D01*
X138938305Y-101105213D01*
X138777533Y-101222021D01*
X138637021Y-101362533D01*
X138520213Y-101523305D01*
X138440485Y-101679780D01*
X138392510Y-101730576D01*
X138324689Y-101747371D01*
X138258554Y-101724833D01*
X138219515Y-101679780D01*
X138200179Y-101641832D01*
X138139787Y-101523306D01*
X138022981Y-101362536D01*
X137882464Y-101222019D01*
X137721694Y-101105213D01*
X137544632Y-101014994D01*
X137544629Y-101014993D01*
X137355637Y-100953587D01*
X137257498Y-100938043D01*
X137159361Y-100922500D01*
X136960639Y-100922500D01*
X136895214Y-100932862D01*
X136764362Y-100953587D01*
X136575370Y-101014993D01*
X136575367Y-101014994D01*
X136398305Y-101105213D01*
X136237533Y-101222021D01*
X136097021Y-101362533D01*
X135980213Y-101523305D01*
X135900485Y-101679780D01*
X135852510Y-101730576D01*
X135784689Y-101747371D01*
X135718554Y-101724833D01*
X135679515Y-101679780D01*
X135660179Y-101641832D01*
X135599787Y-101523306D01*
X135482981Y-101362536D01*
X135342464Y-101222019D01*
X135181694Y-101105213D01*
X135004632Y-101014994D01*
X135004629Y-101014993D01*
X134815637Y-100953587D01*
X134717498Y-100938043D01*
X134619361Y-100922500D01*
X134420639Y-100922500D01*
X134355214Y-100932862D01*
X134224362Y-100953587D01*
X134035370Y-101014993D01*
X134035367Y-101014994D01*
X133858305Y-101105213D01*
X133697533Y-101222021D01*
X133557021Y-101362533D01*
X133440213Y-101523305D01*
X133360485Y-101679780D01*
X133312510Y-101730576D01*
X133244689Y-101747371D01*
X133178554Y-101724833D01*
X133139515Y-101679780D01*
X133120179Y-101641832D01*
X133059787Y-101523306D01*
X132942981Y-101362536D01*
X132802464Y-101222019D01*
X132641694Y-101105213D01*
X132464632Y-101014994D01*
X132464629Y-101014993D01*
X132275637Y-100953587D01*
X132177498Y-100938043D01*
X132079361Y-100922500D01*
X131880639Y-100922500D01*
X131815214Y-100932862D01*
X131684362Y-100953587D01*
X131495370Y-101014993D01*
X131495367Y-101014994D01*
X131318305Y-101105213D01*
X131157533Y-101222021D01*
X131017021Y-101362533D01*
X130900213Y-101523305D01*
X130820485Y-101679780D01*
X130772510Y-101730576D01*
X130704689Y-101747371D01*
X130638554Y-101724833D01*
X130599515Y-101679780D01*
X130580179Y-101641832D01*
X130519787Y-101523306D01*
X130402981Y-101362536D01*
X130262464Y-101222019D01*
X130101694Y-101105213D01*
X129924632Y-101014994D01*
X129924629Y-101014993D01*
X129735637Y-100953587D01*
X129637498Y-100938043D01*
X129539361Y-100922500D01*
X129340639Y-100922500D01*
X129275214Y-100932862D01*
X129144362Y-100953587D01*
X128955370Y-101014993D01*
X128955367Y-101014994D01*
X128778305Y-101105213D01*
X128617533Y-101222021D01*
X128477021Y-101362533D01*
X128360213Y-101523305D01*
X128280485Y-101679780D01*
X128232510Y-101730576D01*
X128164689Y-101747371D01*
X128098554Y-101724833D01*
X128059515Y-101679780D01*
X128040179Y-101641832D01*
X127979787Y-101523306D01*
X127862981Y-101362536D01*
X127722464Y-101222019D01*
X127561694Y-101105213D01*
X127384632Y-101014994D01*
X127384629Y-101014993D01*
X127195637Y-100953587D01*
X127097498Y-100938043D01*
X126999361Y-100922500D01*
X126800639Y-100922500D01*
X126735214Y-100932862D01*
X126604362Y-100953587D01*
X126415370Y-101014993D01*
X126415367Y-101014994D01*
X126238305Y-101105213D01*
X126077533Y-101222021D01*
X125937021Y-101362533D01*
X125820213Y-101523305D01*
X125740485Y-101679780D01*
X125692510Y-101730576D01*
X125624689Y-101747371D01*
X125558554Y-101724833D01*
X125519515Y-101679780D01*
X125500179Y-101641832D01*
X125439787Y-101523306D01*
X125322981Y-101362536D01*
X125182464Y-101222019D01*
X125021694Y-101105213D01*
X124844632Y-101014994D01*
X124844629Y-101014993D01*
X124655637Y-100953587D01*
X124557498Y-100938043D01*
X124459361Y-100922500D01*
X124260639Y-100922500D01*
X124195214Y-100932862D01*
X124064362Y-100953587D01*
X123875370Y-101014993D01*
X123875367Y-101014994D01*
X123698305Y-101105213D01*
X123537533Y-101222021D01*
X123397021Y-101362533D01*
X123280213Y-101523305D01*
X123200485Y-101679780D01*
X123152510Y-101730576D01*
X123084689Y-101747371D01*
X123018554Y-101724833D01*
X122979515Y-101679780D01*
X122960179Y-101641832D01*
X122899787Y-101523306D01*
X122782981Y-101362536D01*
X122642464Y-101222019D01*
X122481694Y-101105213D01*
X122304632Y-101014994D01*
X122304629Y-101014993D01*
X122115637Y-100953587D01*
X122017498Y-100938043D01*
X121919361Y-100922500D01*
X121720639Y-100922500D01*
X121655214Y-100932862D01*
X121524362Y-100953587D01*
X121335370Y-101014993D01*
X121335367Y-101014994D01*
X121158305Y-101105213D01*
X120997533Y-101222021D01*
X120857021Y-101362533D01*
X120740213Y-101523305D01*
X120660485Y-101679780D01*
X120612510Y-101730576D01*
X120544689Y-101747371D01*
X120478554Y-101724833D01*
X120439515Y-101679780D01*
X120420179Y-101641832D01*
X120359787Y-101523306D01*
X120242981Y-101362536D01*
X120102464Y-101222019D01*
X119941694Y-101105213D01*
X119764632Y-101014994D01*
X119764629Y-101014993D01*
X119575637Y-100953587D01*
X119477498Y-100938043D01*
X119379361Y-100922500D01*
X119180639Y-100922500D01*
X119115214Y-100932862D01*
X118984362Y-100953587D01*
X118795370Y-101014993D01*
X118795367Y-101014994D01*
X118618305Y-101105213D01*
X118457533Y-101222021D01*
X118317021Y-101362533D01*
X118200213Y-101523305D01*
X118120485Y-101679780D01*
X118072510Y-101730576D01*
X118004689Y-101747371D01*
X117938554Y-101724833D01*
X117899515Y-101679780D01*
X117880179Y-101641832D01*
X117819787Y-101523306D01*
X117702981Y-101362536D01*
X117562464Y-101222019D01*
X117401694Y-101105213D01*
X117224632Y-101014994D01*
X117224629Y-101014993D01*
X117035637Y-100953587D01*
X116937498Y-100938043D01*
X116839361Y-100922500D01*
X116640639Y-100922500D01*
X116575214Y-100932862D01*
X116444362Y-100953587D01*
X116255370Y-101014993D01*
X116255367Y-101014994D01*
X116078305Y-101105213D01*
X115917533Y-101222021D01*
X115777021Y-101362533D01*
X115777021Y-101362534D01*
X115777019Y-101362536D01*
X115739772Y-101413802D01*
X115686817Y-101486688D01*
X115631487Y-101529353D01*
X115561873Y-101535332D01*
X115500078Y-101502726D01*
X115465721Y-101441887D01*
X115462499Y-101413802D01*
X115462499Y-101375129D01*
X115462498Y-101375123D01*
X115456091Y-101315516D01*
X115405797Y-101180671D01*
X115405793Y-101180664D01*
X115319547Y-101065455D01*
X115319544Y-101065452D01*
X115204335Y-100979206D01*
X115204328Y-100979202D01*
X115069482Y-100928908D01*
X115069483Y-100928908D01*
X115009883Y-100922501D01*
X115009881Y-100922500D01*
X115009873Y-100922500D01*
X115009864Y-100922500D01*
X113390129Y-100922500D01*
X113390123Y-100922501D01*
X113330516Y-100928908D01*
X113195671Y-100979202D01*
X113195664Y-100979206D01*
X113080455Y-101065452D01*
X113080452Y-101065455D01*
X112994206Y-101180664D01*
X112994202Y-101180671D01*
X112943908Y-101315517D01*
X112937249Y-101377460D01*
X112930882Y-101392829D01*
X112932719Y-101395731D01*
X112937500Y-101429831D01*
X112937500Y-102994870D01*
X112937501Y-102994876D01*
X112943908Y-103054483D01*
X112994202Y-103189328D01*
X112994206Y-103189335D01*
X113080452Y-103304544D01*
X113080453Y-103304545D01*
X113080454Y-103304546D01*
X113149811Y-103356467D01*
X113191682Y-103412398D01*
X113199500Y-103455732D01*
X113199500Y-110608541D01*
X113199500Y-110608543D01*
X113199499Y-110608543D01*
X113237947Y-110801829D01*
X113237950Y-110801839D01*
X113313364Y-110983907D01*
X113313371Y-110983920D01*
X113422860Y-111147781D01*
X113422863Y-111147785D01*
X113566537Y-111291459D01*
X113566559Y-111291479D01*
X114979735Y-112704655D01*
X114979764Y-112704686D01*
X115122214Y-112847136D01*
X115122218Y-112847139D01*
X115286079Y-112956628D01*
X115286092Y-112956635D01*
X115414833Y-113009961D01*
X115457744Y-113027735D01*
X115468164Y-113032051D01*
X115564812Y-113051275D01*
X115613135Y-113060887D01*
X115661458Y-113070500D01*
X115661459Y-113070500D01*
X115661460Y-113070500D01*
X115858540Y-113070500D01*
X118073654Y-113070500D01*
X118140693Y-113090185D01*
X118186448Y-113142989D01*
X118196392Y-113212147D01*
X118191585Y-113232818D01*
X118169263Y-113301515D01*
X118169263Y-113301518D01*
X118136300Y-113509636D01*
X118136300Y-113720363D01*
X118169262Y-113928480D01*
X118234379Y-114128887D01*
X118330043Y-114316635D01*
X118453890Y-114487099D01*
X118602900Y-114636109D01*
X118762415Y-114752001D01*
X118773368Y-114759959D01*
X118893000Y-114820914D01*
X118961112Y-114855620D01*
X118961114Y-114855620D01*
X118961117Y-114855622D01*
X119068538Y-114890525D01*
X119161519Y-114920737D01*
X119369637Y-114953700D01*
X119369642Y-114953700D01*
X119580363Y-114953700D01*
X119788480Y-114920737D01*
X119988883Y-114855622D01*
X120176632Y-114759959D01*
X120272344Y-114690420D01*
X120347099Y-114636109D01*
X120347101Y-114636106D01*
X120347105Y-114636104D01*
X120496104Y-114487105D01*
X120496106Y-114487101D01*
X120496109Y-114487099D01*
X120619956Y-114316636D01*
X120619957Y-114316635D01*
X120619959Y-114316632D01*
X120634515Y-114288063D01*
X120682490Y-114237268D01*
X120750311Y-114220473D01*
X120816446Y-114243010D01*
X120855485Y-114288064D01*
X120870043Y-114316636D01*
X120993890Y-114487099D01*
X121142900Y-114636109D01*
X121302415Y-114752001D01*
X121313368Y-114759959D01*
X121433000Y-114820914D01*
X121501112Y-114855620D01*
X121501114Y-114855620D01*
X121501117Y-114855622D01*
X121608538Y-114890525D01*
X121701519Y-114920737D01*
X121909637Y-114953700D01*
X121909642Y-114953700D01*
X122120363Y-114953700D01*
X122328480Y-114920737D01*
X122528883Y-114855622D01*
X122716632Y-114759959D01*
X122812344Y-114690420D01*
X122887099Y-114636109D01*
X122887101Y-114636106D01*
X122887105Y-114636104D01*
X123036104Y-114487105D01*
X123036106Y-114487101D01*
X123036109Y-114487099D01*
X123159956Y-114316636D01*
X123159957Y-114316635D01*
X123159959Y-114316632D01*
X123174515Y-114288063D01*
X123222490Y-114237268D01*
X123290311Y-114220473D01*
X123356446Y-114243010D01*
X123395485Y-114288064D01*
X123410043Y-114316636D01*
X123533890Y-114487099D01*
X123682900Y-114636109D01*
X123842415Y-114752001D01*
X123853368Y-114759959D01*
X123973000Y-114820914D01*
X124041112Y-114855620D01*
X124041114Y-114855620D01*
X124041117Y-114855622D01*
X124148538Y-114890525D01*
X124241519Y-114920737D01*
X124449637Y-114953700D01*
X124449642Y-114953700D01*
X124660363Y-114953700D01*
X124868480Y-114920737D01*
X125068883Y-114855622D01*
X125256632Y-114759959D01*
X125352344Y-114690420D01*
X125427099Y-114636109D01*
X125427101Y-114636106D01*
X125427105Y-114636104D01*
X125576104Y-114487105D01*
X125576106Y-114487101D01*
X125576109Y-114487099D01*
X125699956Y-114316636D01*
X125699957Y-114316635D01*
X125699959Y-114316632D01*
X125714515Y-114288063D01*
X125762490Y-114237268D01*
X125830311Y-114220473D01*
X125896446Y-114243010D01*
X125935485Y-114288064D01*
X125950043Y-114316636D01*
X126073890Y-114487099D01*
X126222900Y-114636109D01*
X126382415Y-114752001D01*
X126393368Y-114759959D01*
X126513000Y-114820914D01*
X126581112Y-114855620D01*
X126581114Y-114855620D01*
X126581117Y-114855622D01*
X126688538Y-114890525D01*
X126781519Y-114920737D01*
X126989637Y-114953700D01*
X126989642Y-114953700D01*
X127077290Y-114953700D01*
X127144329Y-114973385D01*
X127164971Y-114990019D01*
X127966933Y-115791981D01*
X127966934Y-115791982D01*
X128106291Y-115931339D01*
X128270159Y-116040832D01*
X128376818Y-116085011D01*
X128452237Y-116116251D01*
X128645527Y-116154699D01*
X128645530Y-116154700D01*
X128645532Y-116154700D01*
X140081255Y-116154700D01*
X140112279Y-116148528D01*
X140177901Y-116135475D01*
X140274549Y-116116251D01*
X140327878Y-116094161D01*
X140456627Y-116040832D01*
X140620495Y-115931339D01*
X140759852Y-115791982D01*
X140759853Y-115791979D01*
X140766919Y-115784914D01*
X140766921Y-115784910D01*
X145404014Y-111147819D01*
X145465337Y-111114334D01*
X145491695Y-111111500D01*
X154457219Y-111111500D01*
X154524258Y-111131185D01*
X154570013Y-111183989D01*
X154579957Y-111253147D01*
X154550932Y-111316703D01*
X154532708Y-111333872D01*
X154526956Y-111338287D01*
X154508145Y-111352720D01*
X154508140Y-111352726D01*
X154322718Y-111538148D01*
X154163075Y-111746196D01*
X154031958Y-111973299D01*
X154031954Y-111973309D01*
X153931601Y-112215582D01*
X153917663Y-112267597D01*
X153881297Y-112327256D01*
X153818449Y-112357784D01*
X153797893Y-112359500D01*
X153771974Y-112359500D01*
X153771964Y-112359501D01*
X153652584Y-112370113D01*
X153456954Y-112426089D01*
X153372813Y-112470041D01*
X153276593Y-112520302D01*
X153276591Y-112520303D01*
X153276590Y-112520304D01*
X153118890Y-112648890D01*
X152990304Y-112806590D01*
X152990302Y-112806593D01*
X152969124Y-112847136D01*
X152896089Y-112986954D01*
X152840114Y-113182583D01*
X152840113Y-113182586D01*
X152834362Y-113247278D01*
X152829540Y-113301520D01*
X152829500Y-113301966D01*
X152829500Y-126813028D01*
X152829501Y-126813034D01*
X152840113Y-126932415D01*
X152896089Y-127128045D01*
X152896090Y-127128048D01*
X152896091Y-127128049D01*
X152990302Y-127308407D01*
X152990304Y-127308409D01*
X153118890Y-127466109D01*
X153212803Y-127542684D01*
X153276593Y-127594698D01*
X153456951Y-127688909D01*
X153652582Y-127744886D01*
X153771963Y-127755500D01*
X153797888Y-127755499D01*
X153864926Y-127775181D01*
X153910683Y-127827984D01*
X153917663Y-127847400D01*
X153931602Y-127899419D01*
X153931603Y-127899423D01*
X153931604Y-127899424D01*
X153931605Y-127899428D01*
X154031953Y-128141690D01*
X154031958Y-128141700D01*
X154163075Y-128368803D01*
X154322718Y-128576851D01*
X154322726Y-128576860D01*
X154508140Y-128762274D01*
X154508148Y-128762281D01*
X154716196Y-128921924D01*
X154943299Y-129053041D01*
X154943309Y-129053046D01*
X155010649Y-129080939D01*
X155065052Y-129124780D01*
X155087117Y-129191074D01*
X155069838Y-129258774D01*
X155018700Y-129306384D01*
X154963196Y-129319500D01*
X112618892Y-129319500D01*
X112551853Y-129299815D01*
X112506098Y-129247011D01*
X112494895Y-129194631D01*
X112495692Y-129080939D01*
X112551422Y-121129636D01*
X118136300Y-121129636D01*
X118136300Y-121340363D01*
X118169262Y-121548480D01*
X118234379Y-121748887D01*
X118330043Y-121936635D01*
X118453890Y-122107099D01*
X118602900Y-122256109D01*
X118762415Y-122372001D01*
X118773368Y-122379959D01*
X118893000Y-122440914D01*
X118961112Y-122475620D01*
X118961114Y-122475620D01*
X118961117Y-122475622D01*
X119068538Y-122510525D01*
X119161519Y-122540737D01*
X119369637Y-122573700D01*
X119369642Y-122573700D01*
X119580363Y-122573700D01*
X119788480Y-122540737D01*
X119988883Y-122475622D01*
X120176632Y-122379959D01*
X120272344Y-122310420D01*
X120347099Y-122256109D01*
X120347101Y-122256106D01*
X120347105Y-122256104D01*
X120496104Y-122107105D01*
X120496106Y-122107101D01*
X120496109Y-122107099D01*
X120619956Y-121936636D01*
X120619957Y-121936635D01*
X120619959Y-121936632D01*
X120634515Y-121908063D01*
X120682490Y-121857268D01*
X120750311Y-121840473D01*
X120816446Y-121863010D01*
X120855485Y-121908064D01*
X120870043Y-121936636D01*
X120993890Y-122107099D01*
X121142900Y-122256109D01*
X121302415Y-122372001D01*
X121313368Y-122379959D01*
X121433000Y-122440914D01*
X121501112Y-122475620D01*
X121501114Y-122475620D01*
X121501117Y-122475622D01*
X121608538Y-122510525D01*
X121701519Y-122540737D01*
X121909637Y-122573700D01*
X121909642Y-122573700D01*
X122120363Y-122573700D01*
X122328480Y-122540737D01*
X122528883Y-122475622D01*
X122716632Y-122379959D01*
X122812344Y-122310420D01*
X122887099Y-122256109D01*
X122887101Y-122256106D01*
X122887105Y-122256104D01*
X123036104Y-122107105D01*
X123036106Y-122107101D01*
X123036109Y-122107099D01*
X123159956Y-121936636D01*
X123159957Y-121936635D01*
X123159959Y-121936632D01*
X123174515Y-121908063D01*
X123222490Y-121857268D01*
X123290311Y-121840473D01*
X123356446Y-121863010D01*
X123395485Y-121908064D01*
X123410043Y-121936636D01*
X123533890Y-122107099D01*
X123682900Y-122256109D01*
X123842415Y-122372001D01*
X123853368Y-122379959D01*
X123973000Y-122440914D01*
X124041112Y-122475620D01*
X124041114Y-122475620D01*
X124041117Y-122475622D01*
X124148538Y-122510525D01*
X124241519Y-122540737D01*
X124449637Y-122573700D01*
X124449642Y-122573700D01*
X124660363Y-122573700D01*
X124868480Y-122540737D01*
X125068883Y-122475622D01*
X125256632Y-122379959D01*
X125352344Y-122310420D01*
X125427099Y-122256109D01*
X125427101Y-122256106D01*
X125427105Y-122256104D01*
X125576104Y-122107105D01*
X125576106Y-122107101D01*
X125576109Y-122107099D01*
X125699956Y-121936636D01*
X125699957Y-121936635D01*
X125699959Y-121936632D01*
X125714515Y-121908063D01*
X125762490Y-121857268D01*
X125830311Y-121840473D01*
X125896446Y-121863010D01*
X125935485Y-121908064D01*
X125950043Y-121936636D01*
X126073890Y-122107099D01*
X126222900Y-122256109D01*
X126382415Y-122372001D01*
X126393368Y-122379959D01*
X126513000Y-122440914D01*
X126581112Y-122475620D01*
X126581114Y-122475620D01*
X126581117Y-122475622D01*
X126688538Y-122510525D01*
X126781519Y-122540737D01*
X126989637Y-122573700D01*
X126989642Y-122573700D01*
X127200363Y-122573700D01*
X127408480Y-122540737D01*
X127608883Y-122475622D01*
X127796632Y-122379959D01*
X127892344Y-122310420D01*
X127967099Y-122256109D01*
X127967101Y-122256106D01*
X127967105Y-122256104D01*
X128116104Y-122107105D01*
X128116106Y-122107101D01*
X128116109Y-122107099D01*
X128239956Y-121936636D01*
X128239957Y-121936635D01*
X128239959Y-121936632D01*
X128254515Y-121908063D01*
X128302490Y-121857268D01*
X128370311Y-121840473D01*
X128436446Y-121863010D01*
X128475485Y-121908064D01*
X128490043Y-121936636D01*
X128613890Y-122107099D01*
X128762900Y-122256109D01*
X128922415Y-122372001D01*
X128933368Y-122379959D01*
X129053000Y-122440914D01*
X129121112Y-122475620D01*
X129121114Y-122475620D01*
X129121117Y-122475622D01*
X129228538Y-122510525D01*
X129321519Y-122540737D01*
X129529637Y-122573700D01*
X129529642Y-122573700D01*
X129740363Y-122573700D01*
X129948480Y-122540737D01*
X130148883Y-122475622D01*
X130336632Y-122379959D01*
X130432344Y-122310420D01*
X130507099Y-122256109D01*
X130507101Y-122256106D01*
X130507105Y-122256104D01*
X130656104Y-122107105D01*
X130656106Y-122107101D01*
X130656109Y-122107099D01*
X130779956Y-121936636D01*
X130779957Y-121936635D01*
X130779959Y-121936632D01*
X130794515Y-121908063D01*
X130842490Y-121857268D01*
X130910311Y-121840473D01*
X130976446Y-121863010D01*
X131015485Y-121908064D01*
X131030043Y-121936636D01*
X131153890Y-122107099D01*
X131302900Y-122256109D01*
X131462415Y-122372001D01*
X131473368Y-122379959D01*
X131593000Y-122440914D01*
X131661112Y-122475620D01*
X131661114Y-122475620D01*
X131661117Y-122475622D01*
X131768538Y-122510525D01*
X131861519Y-122540737D01*
X132069637Y-122573700D01*
X132069642Y-122573700D01*
X132280363Y-122573700D01*
X132488480Y-122540737D01*
X132688883Y-122475622D01*
X132876632Y-122379959D01*
X132972344Y-122310420D01*
X133047099Y-122256109D01*
X133047101Y-122256106D01*
X133047105Y-122256104D01*
X133196104Y-122107105D01*
X133196106Y-122107101D01*
X133196109Y-122107099D01*
X133319956Y-121936636D01*
X133319957Y-121936635D01*
X133319959Y-121936632D01*
X133334515Y-121908063D01*
X133382490Y-121857268D01*
X133450311Y-121840473D01*
X133516446Y-121863010D01*
X133555485Y-121908064D01*
X133570043Y-121936636D01*
X133693890Y-122107099D01*
X133842900Y-122256109D01*
X134002415Y-122372001D01*
X134013368Y-122379959D01*
X134133000Y-122440914D01*
X134201112Y-122475620D01*
X134201114Y-122475620D01*
X134201117Y-122475622D01*
X134308538Y-122510525D01*
X134401519Y-122540737D01*
X134609637Y-122573700D01*
X134609642Y-122573700D01*
X134820363Y-122573700D01*
X135028480Y-122540737D01*
X135228883Y-122475622D01*
X135416632Y-122379959D01*
X135512344Y-122310420D01*
X135587099Y-122256109D01*
X135587101Y-122256106D01*
X135587105Y-122256104D01*
X135736104Y-122107105D01*
X135736106Y-122107101D01*
X135736109Y-122107099D01*
X135790420Y-122032344D01*
X135859959Y-121936632D01*
X135955622Y-121748883D01*
X136020737Y-121548480D01*
X136053700Y-121340363D01*
X136053700Y-121129636D01*
X136020737Y-120921519D01*
X135955620Y-120721112D01*
X135897470Y-120606988D01*
X135859959Y-120533368D01*
X135852001Y-120522415D01*
X135736109Y-120362900D01*
X135587099Y-120213890D01*
X135416635Y-120090043D01*
X135416634Y-120090042D01*
X135416632Y-120090041D01*
X135358001Y-120060167D01*
X135228887Y-119994379D01*
X135028480Y-119929262D01*
X134820363Y-119896300D01*
X134820358Y-119896300D01*
X134609642Y-119896300D01*
X134609637Y-119896300D01*
X134401519Y-119929262D01*
X134201112Y-119994379D01*
X134013364Y-120090043D01*
X133842900Y-120213890D01*
X133693890Y-120362900D01*
X133570041Y-120533366D01*
X133555484Y-120561936D01*
X133507509Y-120612732D01*
X133439688Y-120629526D01*
X133373553Y-120606988D01*
X133334516Y-120561936D01*
X133319958Y-120533366D01*
X133196109Y-120362900D01*
X133047099Y-120213890D01*
X132876635Y-120090043D01*
X132876634Y-120090042D01*
X132876632Y-120090041D01*
X132818001Y-120060167D01*
X132688887Y-119994379D01*
X132488480Y-119929262D01*
X132280363Y-119896300D01*
X132280358Y-119896300D01*
X132069642Y-119896300D01*
X132069637Y-119896300D01*
X131861519Y-119929262D01*
X131661112Y-119994379D01*
X131473364Y-120090043D01*
X131302900Y-120213890D01*
X131153890Y-120362900D01*
X131030041Y-120533366D01*
X131015484Y-120561936D01*
X130967509Y-120612732D01*
X130899688Y-120629526D01*
X130833553Y-120606988D01*
X130794516Y-120561936D01*
X130779958Y-120533366D01*
X130656109Y-120362900D01*
X130507099Y-120213890D01*
X130336635Y-120090043D01*
X130336634Y-120090042D01*
X130336632Y-120090041D01*
X130278001Y-120060167D01*
X130148887Y-119994379D01*
X129948480Y-119929262D01*
X129740363Y-119896300D01*
X129740358Y-119896300D01*
X129529642Y-119896300D01*
X129529637Y-119896300D01*
X129321519Y-119929262D01*
X129121112Y-119994379D01*
X128933364Y-120090043D01*
X128762900Y-120213890D01*
X128613890Y-120362900D01*
X128490041Y-120533366D01*
X128475484Y-120561936D01*
X128427509Y-120612732D01*
X128359688Y-120629526D01*
X128293553Y-120606988D01*
X128254516Y-120561936D01*
X128239958Y-120533366D01*
X128116109Y-120362900D01*
X127967099Y-120213890D01*
X127796635Y-120090043D01*
X127796634Y-120090042D01*
X127796632Y-120090041D01*
X127738001Y-120060167D01*
X127608887Y-119994379D01*
X127408480Y-119929262D01*
X127200363Y-119896300D01*
X127200358Y-119896300D01*
X126989642Y-119896300D01*
X126989637Y-119896300D01*
X126781519Y-119929262D01*
X126581112Y-119994379D01*
X126393364Y-120090043D01*
X126222900Y-120213890D01*
X126073890Y-120362900D01*
X125950041Y-120533366D01*
X125935484Y-120561936D01*
X125887509Y-120612732D01*
X125819688Y-120629526D01*
X125753553Y-120606988D01*
X125714516Y-120561936D01*
X125699958Y-120533366D01*
X125576109Y-120362900D01*
X125427099Y-120213890D01*
X125256635Y-120090043D01*
X125256634Y-120090042D01*
X125256632Y-120090041D01*
X125198001Y-120060167D01*
X125068887Y-119994379D01*
X124868480Y-119929262D01*
X124660363Y-119896300D01*
X124660358Y-119896300D01*
X124449642Y-119896300D01*
X124449637Y-119896300D01*
X124241519Y-119929262D01*
X124041112Y-119994379D01*
X123853364Y-120090043D01*
X123682900Y-120213890D01*
X123533890Y-120362900D01*
X123410041Y-120533366D01*
X123395484Y-120561936D01*
X123347509Y-120612732D01*
X123279688Y-120629526D01*
X123213553Y-120606988D01*
X123174516Y-120561936D01*
X123159958Y-120533366D01*
X123036109Y-120362900D01*
X122887099Y-120213890D01*
X122716635Y-120090043D01*
X122716634Y-120090042D01*
X122716632Y-120090041D01*
X122658001Y-120060167D01*
X122528887Y-119994379D01*
X122328480Y-119929262D01*
X122120363Y-119896300D01*
X122120358Y-119896300D01*
X121909642Y-119896300D01*
X121909637Y-119896300D01*
X121701519Y-119929262D01*
X121501112Y-119994379D01*
X121313364Y-120090043D01*
X121142900Y-120213890D01*
X120993890Y-120362900D01*
X120870041Y-120533366D01*
X120855484Y-120561936D01*
X120807509Y-120612732D01*
X120739688Y-120629526D01*
X120673553Y-120606988D01*
X120634516Y-120561936D01*
X120619958Y-120533366D01*
X120496109Y-120362900D01*
X120347099Y-120213890D01*
X120176635Y-120090043D01*
X120176634Y-120090042D01*
X120176632Y-120090041D01*
X120118001Y-120060167D01*
X119988887Y-119994379D01*
X119788480Y-119929262D01*
X119580363Y-119896300D01*
X119580358Y-119896300D01*
X119369642Y-119896300D01*
X119369637Y-119896300D01*
X119161519Y-119929262D01*
X118961112Y-119994379D01*
X118773364Y-120090043D01*
X118602900Y-120213890D01*
X118453890Y-120362900D01*
X118330043Y-120533364D01*
X118234379Y-120721112D01*
X118169262Y-120921519D01*
X118136300Y-121129636D01*
X112551422Y-121129636D01*
X112689503Y-101428961D01*
X112698453Y-101399252D01*
X112691930Y-101386221D01*
X112689963Y-101363336D01*
X112692051Y-101065452D01*
X112794841Y-86399844D01*
X169520001Y-86399844D01*
X169525802Y-86429018D01*
X169547904Y-86462095D01*
X169580983Y-86484198D01*
X169580984Y-86484199D01*
X169610148Y-86489999D01*
X172269999Y-86489999D01*
X174570000Y-86489999D01*
X177229845Y-86489999D01*
X177259018Y-86484197D01*
X177292095Y-86462095D01*
X177314198Y-86429016D01*
X177314199Y-86429015D01*
X177319999Y-86399853D01*
X177320000Y-86399850D01*
X177320000Y-86390000D01*
X174570000Y-86390000D01*
X174570000Y-86489999D01*
X172269999Y-86489999D01*
X172270000Y-86489998D01*
X172270000Y-86390000D01*
X169520001Y-86390000D01*
X169520001Y-86399844D01*
X112794841Y-86399844D01*
X112803419Y-85175981D01*
X170470000Y-85175981D01*
X170470000Y-85304019D01*
X170494979Y-85429598D01*
X170543978Y-85547890D01*
X170615112Y-85654351D01*
X170705649Y-85744888D01*
X170812110Y-85816022D01*
X170930402Y-85865021D01*
X171055981Y-85890000D01*
X171184019Y-85890000D01*
X171309598Y-85865021D01*
X171427890Y-85816022D01*
X171534351Y-85744888D01*
X171624888Y-85654351D01*
X171696022Y-85547890D01*
X171745021Y-85429598D01*
X171770000Y-85304019D01*
X171770000Y-85175981D01*
X175070000Y-85175981D01*
X175070000Y-85304019D01*
X175094979Y-85429598D01*
X175143978Y-85547890D01*
X175215112Y-85654351D01*
X175305649Y-85744888D01*
X175412110Y-85816022D01*
X175530402Y-85865021D01*
X175655981Y-85890000D01*
X175784019Y-85890000D01*
X175909598Y-85865021D01*
X176027890Y-85816022D01*
X176134351Y-85744888D01*
X176224888Y-85654351D01*
X176296022Y-85547890D01*
X176345021Y-85429598D01*
X176370000Y-85304019D01*
X176370000Y-85175981D01*
X176345021Y-85050402D01*
X176296022Y-84932110D01*
X176224888Y-84825649D01*
X176134351Y-84735112D01*
X176027890Y-84663978D01*
X175909598Y-84614979D01*
X175784019Y-84590000D01*
X175655981Y-84590000D01*
X175530402Y-84614979D01*
X175412110Y-84663978D01*
X175305649Y-84735112D01*
X175215112Y-84825649D01*
X175143978Y-84932110D01*
X175094979Y-85050402D01*
X175070000Y-85175981D01*
X171770000Y-85175981D01*
X171745021Y-85050402D01*
X171696022Y-84932110D01*
X171624888Y-84825649D01*
X171534351Y-84735112D01*
X171427890Y-84663978D01*
X171309598Y-84614979D01*
X171184019Y-84590000D01*
X171055981Y-84590000D01*
X170930402Y-84614979D01*
X170812110Y-84663978D01*
X170705649Y-84735112D01*
X170615112Y-84825649D01*
X170543978Y-84932110D01*
X170494979Y-85050402D01*
X170470000Y-85175981D01*
X112803419Y-85175981D01*
X112811099Y-84080146D01*
X169520000Y-84080146D01*
X169520000Y-84090000D01*
X172270000Y-84090000D01*
X174570000Y-84090000D01*
X177319999Y-84090000D01*
X177319999Y-84080155D01*
X177314197Y-84050981D01*
X177292095Y-84017904D01*
X177259016Y-83995801D01*
X177259015Y-83995800D01*
X177229853Y-83990000D01*
X174570000Y-83990000D01*
X174570000Y-84090000D01*
X172270000Y-84090000D01*
X172270000Y-83990000D01*
X169610155Y-83990000D01*
X169580981Y-83995802D01*
X169547904Y-84017904D01*
X169525801Y-84050983D01*
X169525800Y-84050984D01*
X169520000Y-84080146D01*
X112811099Y-84080146D01*
X112815666Y-83428597D01*
X165480000Y-83428597D01*
X165482819Y-83458660D01*
X165482819Y-83458661D01*
X165527126Y-83585285D01*
X165580000Y-83656924D01*
X165580000Y-83656922D01*
X167880000Y-83656922D01*
X167932873Y-83585285D01*
X167977180Y-83458661D01*
X167977180Y-83458660D01*
X167980000Y-83428597D01*
X167980000Y-81070000D01*
X167880000Y-81070000D01*
X167880000Y-83656922D01*
X165580000Y-83656922D01*
X165580000Y-82155981D01*
X166080000Y-82155981D01*
X166080000Y-82284019D01*
X166104979Y-82409598D01*
X166153978Y-82527890D01*
X166225112Y-82634351D01*
X166315649Y-82724888D01*
X166422110Y-82796022D01*
X166540402Y-82845021D01*
X166665981Y-82870000D01*
X166794019Y-82870000D01*
X166919598Y-82845021D01*
X167037890Y-82796022D01*
X167144351Y-82724888D01*
X167234888Y-82634351D01*
X167306022Y-82527890D01*
X167355021Y-82409598D01*
X167380000Y-82284019D01*
X167380000Y-82155981D01*
X167355021Y-82030402D01*
X167306022Y-81912110D01*
X167234888Y-81805649D01*
X167144351Y-81715112D01*
X167037890Y-81643978D01*
X166919598Y-81594979D01*
X166794019Y-81570000D01*
X166665981Y-81570000D01*
X166540402Y-81594979D01*
X166422110Y-81643978D01*
X166315649Y-81715112D01*
X166225112Y-81805649D01*
X166153978Y-81912110D01*
X166104979Y-82030402D01*
X166080000Y-82155981D01*
X165580000Y-82155981D01*
X165580000Y-81070000D01*
X165480000Y-81070000D01*
X165480000Y-83428597D01*
X112815666Y-83428597D01*
X112840030Y-79952425D01*
X112860184Y-79885528D01*
X112913307Y-79840144D01*
X112982534Y-79830686D01*
X113045885Y-79860155D01*
X113074511Y-79897001D01*
X113120211Y-79986692D01*
X113178616Y-80067079D01*
X113237019Y-80147464D01*
X113377536Y-80287981D01*
X113538306Y-80404787D01*
X113625149Y-80449035D01*
X113715367Y-80495005D01*
X113715370Y-80495006D01*
X113809866Y-80525709D01*
X113904364Y-80556413D01*
X114100639Y-80587500D01*
X114100640Y-80587500D01*
X114299360Y-80587500D01*
X114299361Y-80587500D01*
X114495636Y-80556413D01*
X114684632Y-80495005D01*
X114861694Y-80404787D01*
X115022464Y-80287981D01*
X115162981Y-80147464D01*
X115279787Y-79986694D01*
X115359515Y-79830218D01*
X115407490Y-79779423D01*
X115475311Y-79762628D01*
X115541446Y-79785165D01*
X115580484Y-79830218D01*
X115660213Y-79986694D01*
X115777019Y-80147464D01*
X115917536Y-80287981D01*
X116078306Y-80404787D01*
X116165149Y-80449035D01*
X116255367Y-80495005D01*
X116255370Y-80495006D01*
X116349866Y-80525709D01*
X116444364Y-80556413D01*
X116640639Y-80587500D01*
X116640640Y-80587500D01*
X116839360Y-80587500D01*
X116839361Y-80587500D01*
X117035636Y-80556413D01*
X117224632Y-80495005D01*
X117401694Y-80404787D01*
X117562464Y-80287981D01*
X117702981Y-80147464D01*
X117819787Y-79986694D01*
X117899515Y-79830218D01*
X117947490Y-79779423D01*
X118015311Y-79762628D01*
X118081446Y-79785165D01*
X118120484Y-79830218D01*
X118200213Y-79986694D01*
X118317019Y-80147464D01*
X118457536Y-80287981D01*
X118618306Y-80404787D01*
X118705149Y-80449035D01*
X118795367Y-80495005D01*
X118795370Y-80495006D01*
X118889866Y-80525709D01*
X118984364Y-80556413D01*
X119180639Y-80587500D01*
X119180640Y-80587500D01*
X119379360Y-80587500D01*
X119379361Y-80587500D01*
X119575636Y-80556413D01*
X119764632Y-80495005D01*
X119941694Y-80404787D01*
X120102464Y-80287981D01*
X120242981Y-80147464D01*
X120359787Y-79986694D01*
X120439515Y-79830218D01*
X120487490Y-79779423D01*
X120555311Y-79762628D01*
X120621446Y-79785165D01*
X120660484Y-79830218D01*
X120740213Y-79986694D01*
X120857019Y-80147464D01*
X120997536Y-80287981D01*
X121158306Y-80404787D01*
X121245149Y-80449035D01*
X121335367Y-80495005D01*
X121335370Y-80495006D01*
X121429866Y-80525709D01*
X121524364Y-80556413D01*
X121720639Y-80587500D01*
X121720640Y-80587500D01*
X121919360Y-80587500D01*
X121919361Y-80587500D01*
X122115636Y-80556413D01*
X122304632Y-80495005D01*
X122481694Y-80404787D01*
X122642464Y-80287981D01*
X122782981Y-80147464D01*
X122899787Y-79986694D01*
X122979515Y-79830218D01*
X123027490Y-79779423D01*
X123095311Y-79762628D01*
X123161446Y-79785165D01*
X123200484Y-79830218D01*
X123280213Y-79986694D01*
X123397019Y-80147464D01*
X123537536Y-80287981D01*
X123698306Y-80404787D01*
X123785149Y-80449035D01*
X123875367Y-80495005D01*
X123875370Y-80495006D01*
X123969866Y-80525709D01*
X124064364Y-80556413D01*
X124260639Y-80587500D01*
X124260640Y-80587500D01*
X124459360Y-80587500D01*
X124459361Y-80587500D01*
X124655636Y-80556413D01*
X124844632Y-80495005D01*
X125021694Y-80404787D01*
X125182464Y-80287981D01*
X125322981Y-80147464D01*
X125439787Y-79986694D01*
X125519515Y-79830218D01*
X125567490Y-79779423D01*
X125635311Y-79762628D01*
X125701446Y-79785165D01*
X125740484Y-79830218D01*
X125820213Y-79986694D01*
X125937019Y-80147464D01*
X126077536Y-80287981D01*
X126238306Y-80404787D01*
X126325149Y-80449035D01*
X126415367Y-80495005D01*
X126415370Y-80495006D01*
X126509866Y-80525709D01*
X126604364Y-80556413D01*
X126800639Y-80587500D01*
X126800640Y-80587500D01*
X126999360Y-80587500D01*
X126999361Y-80587500D01*
X127195636Y-80556413D01*
X127384632Y-80495005D01*
X127561694Y-80404787D01*
X127722464Y-80287981D01*
X127862981Y-80147464D01*
X127979787Y-79986694D01*
X128059515Y-79830218D01*
X128107490Y-79779423D01*
X128175311Y-79762628D01*
X128241446Y-79785165D01*
X128280484Y-79830218D01*
X128360213Y-79986694D01*
X128477019Y-80147464D01*
X128617536Y-80287981D01*
X128778306Y-80404787D01*
X128865149Y-80449035D01*
X128955367Y-80495005D01*
X128955370Y-80495006D01*
X129049866Y-80525709D01*
X129144364Y-80556413D01*
X129340639Y-80587500D01*
X129340640Y-80587500D01*
X129539360Y-80587500D01*
X129539361Y-80587500D01*
X129735636Y-80556413D01*
X129924632Y-80495005D01*
X130101694Y-80404787D01*
X130262464Y-80287981D01*
X130402981Y-80147464D01*
X130519787Y-79986694D01*
X130599515Y-79830218D01*
X130647490Y-79779423D01*
X130715311Y-79762628D01*
X130781446Y-79785165D01*
X130820484Y-79830218D01*
X130900213Y-79986694D01*
X131017019Y-80147464D01*
X131157536Y-80287981D01*
X131318306Y-80404787D01*
X131405149Y-80449035D01*
X131495367Y-80495005D01*
X131495370Y-80495006D01*
X131589866Y-80525709D01*
X131684364Y-80556413D01*
X131880639Y-80587500D01*
X131880640Y-80587500D01*
X132079360Y-80587500D01*
X132079361Y-80587500D01*
X132275636Y-80556413D01*
X132464632Y-80495005D01*
X132641694Y-80404787D01*
X132802464Y-80287981D01*
X132942981Y-80147464D01*
X133059787Y-79986694D01*
X133139515Y-79830218D01*
X133187490Y-79779423D01*
X133255311Y-79762628D01*
X133321446Y-79785165D01*
X133360484Y-79830218D01*
X133440213Y-79986694D01*
X133557019Y-80147464D01*
X133697536Y-80287981D01*
X133858306Y-80404787D01*
X133945149Y-80449035D01*
X134035367Y-80495005D01*
X134035370Y-80495006D01*
X134129866Y-80525709D01*
X134224364Y-80556413D01*
X134420639Y-80587500D01*
X134420640Y-80587500D01*
X134619360Y-80587500D01*
X134619361Y-80587500D01*
X134815636Y-80556413D01*
X135004632Y-80495005D01*
X135181694Y-80404787D01*
X135342464Y-80287981D01*
X135482981Y-80147464D01*
X135599787Y-79986694D01*
X135679515Y-79830218D01*
X135727490Y-79779423D01*
X135795311Y-79762628D01*
X135861446Y-79785165D01*
X135900484Y-79830218D01*
X135980213Y-79986694D01*
X136097019Y-80147464D01*
X136237536Y-80287981D01*
X136398306Y-80404787D01*
X136485149Y-80449035D01*
X136575367Y-80495005D01*
X136575370Y-80495006D01*
X136669866Y-80525709D01*
X136764364Y-80556413D01*
X136960639Y-80587500D01*
X136960640Y-80587500D01*
X137159360Y-80587500D01*
X137159361Y-80587500D01*
X137355636Y-80556413D01*
X137544632Y-80495005D01*
X137721694Y-80404787D01*
X137882464Y-80287981D01*
X138022981Y-80147464D01*
X138139787Y-79986694D01*
X138219515Y-79830218D01*
X138267490Y-79779423D01*
X138335311Y-79762628D01*
X138401446Y-79785165D01*
X138440484Y-79830218D01*
X138520213Y-79986694D01*
X138637019Y-80147464D01*
X138777536Y-80287981D01*
X138938306Y-80404787D01*
X139025149Y-80449035D01*
X139115367Y-80495005D01*
X139115370Y-80495006D01*
X139209866Y-80525709D01*
X139304364Y-80556413D01*
X139500639Y-80587500D01*
X139500640Y-80587500D01*
X139699360Y-80587500D01*
X139699361Y-80587500D01*
X139895636Y-80556413D01*
X140084632Y-80495005D01*
X140261694Y-80404787D01*
X140422464Y-80287981D01*
X140562981Y-80147464D01*
X140679787Y-79986694D01*
X140759515Y-79830218D01*
X140807490Y-79779423D01*
X140875311Y-79762628D01*
X140941446Y-79785165D01*
X140980484Y-79830218D01*
X141060213Y-79986694D01*
X141177019Y-80147464D01*
X141317536Y-80287981D01*
X141478306Y-80404787D01*
X141565149Y-80449035D01*
X141655367Y-80495005D01*
X141655370Y-80495006D01*
X141749866Y-80525709D01*
X141844364Y-80556413D01*
X142040639Y-80587500D01*
X142040640Y-80587500D01*
X142239360Y-80587500D01*
X142239361Y-80587500D01*
X142435636Y-80556413D01*
X142624632Y-80495005D01*
X142801694Y-80404787D01*
X142962464Y-80287981D01*
X143102981Y-80147464D01*
X143219787Y-79986694D01*
X143299515Y-79830218D01*
X143347490Y-79779423D01*
X143415311Y-79762628D01*
X143481446Y-79785165D01*
X143520484Y-79830218D01*
X143600213Y-79986694D01*
X143717019Y-80147464D01*
X143857536Y-80287981D01*
X144018306Y-80404787D01*
X144105149Y-80449035D01*
X144195367Y-80495005D01*
X144195370Y-80495006D01*
X144289866Y-80525709D01*
X144384364Y-80556413D01*
X144580639Y-80587500D01*
X144580640Y-80587500D01*
X144779360Y-80587500D01*
X144779361Y-80587500D01*
X144975636Y-80556413D01*
X145164632Y-80495005D01*
X145341694Y-80404787D01*
X145502464Y-80287981D01*
X145642981Y-80147464D01*
X145759787Y-79986694D01*
X145839515Y-79830218D01*
X145887490Y-79779423D01*
X145955311Y-79762628D01*
X146021446Y-79785165D01*
X146060484Y-79830218D01*
X146140213Y-79986694D01*
X146257019Y-80147464D01*
X146397536Y-80287981D01*
X146558306Y-80404787D01*
X146645149Y-80449035D01*
X146735367Y-80495005D01*
X146735370Y-80495006D01*
X146829866Y-80525709D01*
X146924364Y-80556413D01*
X147120639Y-80587500D01*
X147120640Y-80587500D01*
X147319360Y-80587500D01*
X147319361Y-80587500D01*
X147515636Y-80556413D01*
X147704632Y-80495005D01*
X147881694Y-80404787D01*
X148042464Y-80287981D01*
X148182981Y-80147464D01*
X148299787Y-79986694D01*
X148379515Y-79830218D01*
X148427490Y-79779423D01*
X148495311Y-79762628D01*
X148561446Y-79785165D01*
X148600484Y-79830218D01*
X148680213Y-79986694D01*
X148797019Y-80147464D01*
X148937536Y-80287981D01*
X149098306Y-80404787D01*
X149185149Y-80449035D01*
X149275367Y-80495005D01*
X149275370Y-80495006D01*
X149369866Y-80525709D01*
X149464364Y-80556413D01*
X149660639Y-80587500D01*
X149660640Y-80587500D01*
X149859360Y-80587500D01*
X149859361Y-80587500D01*
X150055636Y-80556413D01*
X150244632Y-80495005D01*
X150421694Y-80404787D01*
X150582464Y-80287981D01*
X150722981Y-80147464D01*
X150839787Y-79986694D01*
X150919515Y-79830218D01*
X150967490Y-79779423D01*
X151035311Y-79762628D01*
X151101446Y-79785165D01*
X151140484Y-79830218D01*
X151220213Y-79986694D01*
X151337019Y-80147464D01*
X151477536Y-80287981D01*
X151638306Y-80404787D01*
X151725149Y-80449035D01*
X151815367Y-80495005D01*
X151815370Y-80495006D01*
X151909866Y-80525709D01*
X152004364Y-80556413D01*
X152200639Y-80587500D01*
X152200640Y-80587500D01*
X152399360Y-80587500D01*
X152399361Y-80587500D01*
X152595636Y-80556413D01*
X152784632Y-80495005D01*
X152961694Y-80404787D01*
X153122464Y-80287981D01*
X153262981Y-80147464D01*
X153379787Y-79986694D01*
X153470005Y-79809632D01*
X153531413Y-79620636D01*
X153562500Y-79424361D01*
X153562500Y-79225639D01*
X153531413Y-79029364D01*
X153470005Y-78840368D01*
X153470005Y-78840367D01*
X153424035Y-78750149D01*
X153379787Y-78663306D01*
X153262981Y-78502536D01*
X153122464Y-78362019D01*
X152961694Y-78245213D01*
X152961317Y-78245021D01*
X152784632Y-78154994D01*
X152784629Y-78154993D01*
X152595637Y-78093587D01*
X152497498Y-78078043D01*
X152399361Y-78062500D01*
X152200639Y-78062500D01*
X152135214Y-78072862D01*
X152004362Y-78093587D01*
X151815370Y-78154993D01*
X151815367Y-78154994D01*
X151638305Y-78245213D01*
X151477533Y-78362021D01*
X151337021Y-78502533D01*
X151220213Y-78663305D01*
X151140485Y-78819780D01*
X151092510Y-78870576D01*
X151024689Y-78887371D01*
X150958554Y-78864833D01*
X150919515Y-78819780D01*
X150894151Y-78770000D01*
X150839787Y-78663306D01*
X150722981Y-78502536D01*
X150582464Y-78362019D01*
X150421694Y-78245213D01*
X150421317Y-78245021D01*
X150244632Y-78154994D01*
X150244629Y-78154993D01*
X150055637Y-78093587D01*
X149957498Y-78078043D01*
X149859361Y-78062500D01*
X149660639Y-78062500D01*
X149595214Y-78072862D01*
X149464362Y-78093587D01*
X149275370Y-78154993D01*
X149275367Y-78154994D01*
X149098305Y-78245213D01*
X148937533Y-78362021D01*
X148797021Y-78502533D01*
X148680213Y-78663305D01*
X148600485Y-78819780D01*
X148552510Y-78870576D01*
X148484689Y-78887371D01*
X148418554Y-78864833D01*
X148379515Y-78819780D01*
X148354151Y-78770000D01*
X148299787Y-78663306D01*
X148182981Y-78502536D01*
X148042464Y-78362019D01*
X147881694Y-78245213D01*
X147881317Y-78245021D01*
X147704632Y-78154994D01*
X147704629Y-78154993D01*
X147515637Y-78093587D01*
X147417498Y-78078043D01*
X147319361Y-78062500D01*
X147120639Y-78062500D01*
X147055214Y-78072862D01*
X146924362Y-78093587D01*
X146735370Y-78154993D01*
X146735367Y-78154994D01*
X146558305Y-78245213D01*
X146397533Y-78362021D01*
X146257021Y-78502533D01*
X146140213Y-78663305D01*
X146060485Y-78819780D01*
X146012510Y-78870576D01*
X145944689Y-78887371D01*
X145878554Y-78864833D01*
X145839515Y-78819780D01*
X145814151Y-78770000D01*
X145759787Y-78663306D01*
X145642981Y-78502536D01*
X145502464Y-78362019D01*
X145341694Y-78245213D01*
X145341317Y-78245021D01*
X145164632Y-78154994D01*
X145164629Y-78154993D01*
X144975637Y-78093587D01*
X144877498Y-78078043D01*
X144779361Y-78062500D01*
X144580639Y-78062500D01*
X144515214Y-78072862D01*
X144384362Y-78093587D01*
X144195370Y-78154993D01*
X144195367Y-78154994D01*
X144018305Y-78245213D01*
X143857533Y-78362021D01*
X143717021Y-78502533D01*
X143600213Y-78663305D01*
X143520485Y-78819780D01*
X143472510Y-78870576D01*
X143404689Y-78887371D01*
X143338554Y-78864833D01*
X143299515Y-78819780D01*
X143274151Y-78770000D01*
X143219787Y-78663306D01*
X143102981Y-78502536D01*
X142962464Y-78362019D01*
X142801694Y-78245213D01*
X142801317Y-78245021D01*
X142624632Y-78154994D01*
X142624629Y-78154993D01*
X142435637Y-78093587D01*
X142337498Y-78078043D01*
X142239361Y-78062500D01*
X142040639Y-78062500D01*
X141975214Y-78072862D01*
X141844362Y-78093587D01*
X141655370Y-78154993D01*
X141655367Y-78154994D01*
X141478305Y-78245213D01*
X141317533Y-78362021D01*
X141177021Y-78502533D01*
X141060213Y-78663305D01*
X140980485Y-78819780D01*
X140932510Y-78870576D01*
X140864689Y-78887371D01*
X140798554Y-78864833D01*
X140759515Y-78819780D01*
X140734151Y-78770000D01*
X140679787Y-78663306D01*
X140562981Y-78502536D01*
X140422464Y-78362019D01*
X140261694Y-78245213D01*
X140261317Y-78245021D01*
X140084632Y-78154994D01*
X140084629Y-78154993D01*
X139895637Y-78093587D01*
X139797498Y-78078043D01*
X139699361Y-78062500D01*
X139500639Y-78062500D01*
X139435214Y-78072862D01*
X139304362Y-78093587D01*
X139115370Y-78154993D01*
X139115367Y-78154994D01*
X138938305Y-78245213D01*
X138777533Y-78362021D01*
X138637021Y-78502533D01*
X138520213Y-78663305D01*
X138440485Y-78819780D01*
X138392510Y-78870576D01*
X138324689Y-78887371D01*
X138258554Y-78864833D01*
X138219515Y-78819780D01*
X138194151Y-78770000D01*
X138139787Y-78663306D01*
X138022981Y-78502536D01*
X137882464Y-78362019D01*
X137721694Y-78245213D01*
X137721317Y-78245021D01*
X137544632Y-78154994D01*
X137544629Y-78154993D01*
X137355637Y-78093587D01*
X137257498Y-78078043D01*
X137159361Y-78062500D01*
X136960639Y-78062500D01*
X136895214Y-78072862D01*
X136764362Y-78093587D01*
X136575370Y-78154993D01*
X136575367Y-78154994D01*
X136398305Y-78245213D01*
X136237533Y-78362021D01*
X136097021Y-78502533D01*
X135980213Y-78663305D01*
X135900485Y-78819780D01*
X135852510Y-78870576D01*
X135784689Y-78887371D01*
X135718554Y-78864833D01*
X135679515Y-78819780D01*
X135654151Y-78770000D01*
X135599787Y-78663306D01*
X135482981Y-78502536D01*
X135342464Y-78362019D01*
X135181694Y-78245213D01*
X135181317Y-78245021D01*
X135004632Y-78154994D01*
X135004629Y-78154993D01*
X134815637Y-78093587D01*
X134717498Y-78078043D01*
X134619361Y-78062500D01*
X134420639Y-78062500D01*
X134355214Y-78072862D01*
X134224362Y-78093587D01*
X134035370Y-78154993D01*
X134035367Y-78154994D01*
X133858305Y-78245213D01*
X133697533Y-78362021D01*
X133557021Y-78502533D01*
X133440213Y-78663305D01*
X133360485Y-78819780D01*
X133312510Y-78870576D01*
X133244689Y-78887371D01*
X133178554Y-78864833D01*
X133139515Y-78819780D01*
X133114151Y-78770000D01*
X133059787Y-78663306D01*
X132942981Y-78502536D01*
X132802464Y-78362019D01*
X132641694Y-78245213D01*
X132641317Y-78245021D01*
X132464632Y-78154994D01*
X132464629Y-78154993D01*
X132275637Y-78093587D01*
X132177498Y-78078043D01*
X132079361Y-78062500D01*
X131880639Y-78062500D01*
X131815214Y-78072862D01*
X131684362Y-78093587D01*
X131495370Y-78154993D01*
X131495367Y-78154994D01*
X131318305Y-78245213D01*
X131157533Y-78362021D01*
X131017021Y-78502533D01*
X130900213Y-78663305D01*
X130820485Y-78819780D01*
X130772510Y-78870576D01*
X130704689Y-78887371D01*
X130638554Y-78864833D01*
X130599515Y-78819780D01*
X130574151Y-78770000D01*
X130519787Y-78663306D01*
X130402981Y-78502536D01*
X130262464Y-78362019D01*
X130101694Y-78245213D01*
X130101317Y-78245021D01*
X129924632Y-78154994D01*
X129924629Y-78154993D01*
X129735637Y-78093587D01*
X129637498Y-78078043D01*
X129539361Y-78062500D01*
X129340639Y-78062500D01*
X129275214Y-78072862D01*
X129144362Y-78093587D01*
X128955370Y-78154993D01*
X128955367Y-78154994D01*
X128778305Y-78245213D01*
X128617533Y-78362021D01*
X128477021Y-78502533D01*
X128360213Y-78663305D01*
X128280485Y-78819780D01*
X128232510Y-78870576D01*
X128164689Y-78887371D01*
X128098554Y-78864833D01*
X128059515Y-78819780D01*
X128034151Y-78770000D01*
X127979787Y-78663306D01*
X127862981Y-78502536D01*
X127722464Y-78362019D01*
X127561694Y-78245213D01*
X127561317Y-78245021D01*
X127384632Y-78154994D01*
X127384629Y-78154993D01*
X127195637Y-78093587D01*
X127097498Y-78078043D01*
X126999361Y-78062500D01*
X126800639Y-78062500D01*
X126735214Y-78072862D01*
X126604362Y-78093587D01*
X126415370Y-78154993D01*
X126415367Y-78154994D01*
X126238305Y-78245213D01*
X126077533Y-78362021D01*
X125937021Y-78502533D01*
X125820213Y-78663305D01*
X125740485Y-78819780D01*
X125692510Y-78870576D01*
X125624689Y-78887371D01*
X125558554Y-78864833D01*
X125519515Y-78819780D01*
X125494151Y-78770000D01*
X125439787Y-78663306D01*
X125322981Y-78502536D01*
X125182464Y-78362019D01*
X125021694Y-78245213D01*
X125021317Y-78245021D01*
X124844632Y-78154994D01*
X124844629Y-78154993D01*
X124655637Y-78093587D01*
X124557498Y-78078043D01*
X124459361Y-78062500D01*
X124260639Y-78062500D01*
X124195214Y-78072862D01*
X124064362Y-78093587D01*
X123875370Y-78154993D01*
X123875367Y-78154994D01*
X123698305Y-78245213D01*
X123537533Y-78362021D01*
X123397021Y-78502533D01*
X123280213Y-78663305D01*
X123200485Y-78819780D01*
X123152510Y-78870576D01*
X123084689Y-78887371D01*
X123018554Y-78864833D01*
X122979515Y-78819780D01*
X122954151Y-78770000D01*
X122899787Y-78663306D01*
X122782981Y-78502536D01*
X122642464Y-78362019D01*
X122481694Y-78245213D01*
X122481317Y-78245021D01*
X122304632Y-78154994D01*
X122304629Y-78154993D01*
X122115637Y-78093587D01*
X122017498Y-78078043D01*
X121919361Y-78062500D01*
X121720639Y-78062500D01*
X121655214Y-78072862D01*
X121524362Y-78093587D01*
X121335370Y-78154993D01*
X121335367Y-78154994D01*
X121158305Y-78245213D01*
X120997533Y-78362021D01*
X120857021Y-78502533D01*
X120740213Y-78663305D01*
X120660485Y-78819780D01*
X120612510Y-78870576D01*
X120544689Y-78887371D01*
X120478554Y-78864833D01*
X120439515Y-78819780D01*
X120414151Y-78770000D01*
X120359787Y-78663306D01*
X120242981Y-78502536D01*
X120102464Y-78362019D01*
X119941694Y-78245213D01*
X119941317Y-78245021D01*
X119764632Y-78154994D01*
X119764629Y-78154993D01*
X119575637Y-78093587D01*
X119477498Y-78078043D01*
X119379361Y-78062500D01*
X119180639Y-78062500D01*
X119115214Y-78072862D01*
X118984362Y-78093587D01*
X118795370Y-78154993D01*
X118795367Y-78154994D01*
X118618305Y-78245213D01*
X118457533Y-78362021D01*
X118317021Y-78502533D01*
X118200213Y-78663305D01*
X118120485Y-78819780D01*
X118072510Y-78870576D01*
X118004689Y-78887371D01*
X117938554Y-78864833D01*
X117899515Y-78819780D01*
X117874151Y-78770000D01*
X117819787Y-78663306D01*
X117702981Y-78502536D01*
X117562464Y-78362019D01*
X117401694Y-78245213D01*
X117401317Y-78245021D01*
X117224632Y-78154994D01*
X117224629Y-78154993D01*
X117035637Y-78093587D01*
X116937498Y-78078043D01*
X116839361Y-78062500D01*
X116640639Y-78062500D01*
X116575214Y-78072862D01*
X116444362Y-78093587D01*
X116255370Y-78154993D01*
X116255367Y-78154994D01*
X116078305Y-78245213D01*
X115917533Y-78362021D01*
X115777021Y-78502533D01*
X115660213Y-78663305D01*
X115580485Y-78819780D01*
X115532510Y-78870576D01*
X115464689Y-78887371D01*
X115398554Y-78864833D01*
X115359515Y-78819780D01*
X115334151Y-78770000D01*
X115279787Y-78663306D01*
X115162981Y-78502536D01*
X115022464Y-78362019D01*
X114861694Y-78245213D01*
X114861317Y-78245021D01*
X114684632Y-78154994D01*
X114684629Y-78154993D01*
X114495637Y-78093587D01*
X114397498Y-78078043D01*
X114299361Y-78062500D01*
X114100639Y-78062500D01*
X114035214Y-78072862D01*
X113904362Y-78093587D01*
X113715370Y-78154993D01*
X113715367Y-78154994D01*
X113538305Y-78245213D01*
X113377533Y-78362021D01*
X113237021Y-78502533D01*
X113120213Y-78663305D01*
X113083441Y-78735472D01*
X113035466Y-78786267D01*
X112967644Y-78803061D01*
X112901510Y-78780522D01*
X112858059Y-78725806D01*
X112848960Y-78678310D01*
X112864849Y-76411402D01*
X165480000Y-76411402D01*
X165480000Y-78770000D01*
X165580000Y-78770000D01*
X167880000Y-78770000D01*
X167980000Y-78770000D01*
X167980000Y-76411402D01*
X167977180Y-76381339D01*
X167977180Y-76381335D01*
X167932875Y-76254717D01*
X167880000Y-76183074D01*
X167880000Y-78770000D01*
X165580000Y-78770000D01*
X165580000Y-77555981D01*
X166080000Y-77555981D01*
X166080000Y-77684019D01*
X166104979Y-77809598D01*
X166153978Y-77927890D01*
X166225112Y-78034351D01*
X166315649Y-78124888D01*
X166422110Y-78196022D01*
X166540402Y-78245021D01*
X166665981Y-78270000D01*
X166794019Y-78270000D01*
X166919598Y-78245021D01*
X167037890Y-78196022D01*
X167144351Y-78124888D01*
X167234888Y-78034351D01*
X167306022Y-77927890D01*
X167355021Y-77809598D01*
X167380000Y-77684019D01*
X167380000Y-77555981D01*
X167355021Y-77430402D01*
X167306022Y-77312110D01*
X167234888Y-77205649D01*
X167144351Y-77115112D01*
X167037890Y-77043978D01*
X166919598Y-76994979D01*
X166794019Y-76970000D01*
X166665981Y-76970000D01*
X166540402Y-76994979D01*
X166422110Y-77043978D01*
X166315649Y-77115112D01*
X166225112Y-77205649D01*
X166153978Y-77312110D01*
X166104979Y-77430402D01*
X166080000Y-77555981D01*
X165580000Y-77555981D01*
X165580000Y-76183074D01*
X165579999Y-76183074D01*
X165527124Y-76254717D01*
X165482819Y-76381335D01*
X165482819Y-76381339D01*
X165480000Y-76411402D01*
X112864849Y-76411402D01*
X112871142Y-75513631D01*
X112891296Y-75446731D01*
X112944419Y-75401347D01*
X112995139Y-75390500D01*
X171782593Y-75390500D01*
X171849632Y-75410185D01*
G37*
%TD.AperFunction*%
%TD*%
%TA.AperFunction,Conductor*%
%TO.N,Net-(B1-+Vout)*%
G36*
X174431971Y-90492381D02*
G01*
X174510618Y-90508024D01*
X174555308Y-90526535D01*
X174611626Y-90564166D01*
X174617519Y-90570059D01*
X174622251Y-90572119D01*
X174645832Y-90598371D01*
X174683024Y-90654033D01*
X174683462Y-90654688D01*
X174701976Y-90699387D01*
X174711516Y-90747350D01*
X174717617Y-90778019D01*
X174720000Y-90802210D01*
X174720000Y-91186760D01*
X174700315Y-91253799D01*
X174647511Y-91299554D01*
X174615398Y-91309233D01*
X174403760Y-91342753D01*
X174201585Y-91408444D01*
X174012179Y-91504951D01*
X173840213Y-91629890D01*
X173689890Y-91780213D01*
X173564951Y-91952179D01*
X173468444Y-92141585D01*
X173402753Y-92343760D01*
X173369500Y-92553713D01*
X173369500Y-92766286D01*
X173397643Y-92943978D01*
X173402754Y-92976243D01*
X173415383Y-93015112D01*
X173468444Y-93178414D01*
X173564951Y-93367820D01*
X173689890Y-93539786D01*
X173840213Y-93690109D01*
X174012182Y-93815050D01*
X174020946Y-93819516D01*
X174071742Y-93867491D01*
X174088536Y-93935312D01*
X174065998Y-94001447D01*
X174020946Y-94040484D01*
X174012182Y-94044949D01*
X173840213Y-94169890D01*
X173689890Y-94320213D01*
X173564951Y-94492179D01*
X173468444Y-94681585D01*
X173402753Y-94883760D01*
X173375071Y-95058540D01*
X173369500Y-95093713D01*
X173369500Y-95306287D01*
X173402754Y-95516243D01*
X173429247Y-95597781D01*
X173468444Y-95718414D01*
X173564951Y-95907820D01*
X173689890Y-96079786D01*
X173840213Y-96230109D01*
X174012182Y-96355050D01*
X174020946Y-96359516D01*
X174071742Y-96407491D01*
X174088536Y-96475312D01*
X174065998Y-96541447D01*
X174020946Y-96580484D01*
X174012182Y-96584949D01*
X173840213Y-96709890D01*
X173689890Y-96860213D01*
X173564951Y-97032179D01*
X173468444Y-97221585D01*
X173402753Y-97423760D01*
X173368738Y-97638525D01*
X173367684Y-97638358D01*
X173344621Y-97698850D01*
X173333576Y-97711503D01*
X172861060Y-98184019D01*
X172531221Y-98513858D01*
X172531218Y-98513861D01*
X172461538Y-98583540D01*
X172391859Y-98653219D01*
X172282371Y-98817079D01*
X172282364Y-98817092D01*
X172206950Y-98999160D01*
X172206947Y-98999170D01*
X172168500Y-99192456D01*
X172168500Y-99760961D01*
X172148815Y-99828000D01*
X172132181Y-99848642D01*
X165141680Y-106839142D01*
X165080357Y-106872627D01*
X165010665Y-106867643D01*
X164954732Y-106825771D01*
X164930315Y-106760307D01*
X164929999Y-106751461D01*
X164930000Y-105360000D01*
X164830000Y-105360000D01*
X164830000Y-107099462D01*
X164810315Y-107166501D01*
X164793681Y-107187143D01*
X163797485Y-108183338D01*
X163830000Y-107978053D01*
X163830000Y-107741947D01*
X163793065Y-107508749D01*
X163720104Y-107284200D01*
X163612915Y-107073829D01*
X163474136Y-106882816D01*
X163307184Y-106715864D01*
X163116171Y-106577085D01*
X162905800Y-106469896D01*
X162681251Y-106396935D01*
X162448053Y-106360000D01*
X162211947Y-106360000D01*
X161978749Y-106396935D01*
X161754200Y-106469896D01*
X161543829Y-106577085D01*
X161352816Y-106715864D01*
X161185864Y-106882816D01*
X161047085Y-107073829D01*
X160939896Y-107284200D01*
X160866935Y-107508749D01*
X160830000Y-107741947D01*
X160830000Y-107978053D01*
X160866935Y-108211251D01*
X160939896Y-108435800D01*
X161047085Y-108646171D01*
X161185864Y-108837184D01*
X161352816Y-109004136D01*
X161499214Y-109110500D01*
X157632776Y-109110500D01*
X157565737Y-109090815D01*
X157519982Y-109038011D01*
X157510038Y-108968853D01*
X157525389Y-108924500D01*
X157542570Y-108894740D01*
X157628043Y-108746697D01*
X157728398Y-108504419D01*
X157796270Y-108251116D01*
X157830500Y-107991120D01*
X157830500Y-107728880D01*
X157796270Y-107468884D01*
X157777632Y-107399324D01*
X159730001Y-107399324D01*
X159745442Y-107516628D01*
X159745444Y-107516633D01*
X159805899Y-107662587D01*
X159805901Y-107662590D01*
X159830000Y-107693995D01*
X159830000Y-105360000D01*
X159730001Y-105360000D01*
X159730001Y-107399324D01*
X157777632Y-107399324D01*
X157728398Y-107215581D01*
X157716619Y-107187143D01*
X157628046Y-106973309D01*
X157628041Y-106973299D01*
X157496924Y-106746196D01*
X157337281Y-106538148D01*
X157337274Y-106538140D01*
X157151860Y-106352726D01*
X157151851Y-106352718D01*
X156943803Y-106193075D01*
X156716700Y-106061958D01*
X156716690Y-106061953D01*
X156474428Y-105961605D01*
X156474421Y-105961603D01*
X156474419Y-105961602D01*
X156221116Y-105893730D01*
X156201381Y-105891131D01*
X156084493Y-105875742D01*
X156020597Y-105847475D01*
X155982127Y-105789150D01*
X155976690Y-105751342D01*
X156041017Y-100318694D01*
X156048903Y-99652597D01*
X156050258Y-99635731D01*
X156058579Y-99580120D01*
X156068087Y-99547696D01*
X156091112Y-99496399D01*
X156099074Y-99481481D01*
X156824581Y-98320669D01*
X159730000Y-98320669D01*
X159730000Y-100360000D01*
X159830000Y-100360000D01*
X164830000Y-100360000D01*
X164929999Y-100360000D01*
X164929999Y-99328597D01*
X165480000Y-99328597D01*
X165482819Y-99358660D01*
X165482819Y-99358661D01*
X165527126Y-99485285D01*
X165580000Y-99556924D01*
X165580000Y-99556922D01*
X167880000Y-99556922D01*
X167932873Y-99485285D01*
X167977180Y-99358661D01*
X167977180Y-99358660D01*
X167980000Y-99328597D01*
X167980000Y-96970000D01*
X167880000Y-96970000D01*
X167880000Y-99556922D01*
X165580000Y-99556922D01*
X165580000Y-98055981D01*
X166080000Y-98055981D01*
X166080000Y-98184019D01*
X166104979Y-98309598D01*
X166153978Y-98427890D01*
X166225112Y-98534351D01*
X166315649Y-98624888D01*
X166422110Y-98696022D01*
X166540402Y-98745021D01*
X166665981Y-98770000D01*
X166794019Y-98770000D01*
X166919598Y-98745021D01*
X167037890Y-98696022D01*
X167144351Y-98624888D01*
X167234888Y-98534351D01*
X167306022Y-98427890D01*
X167355021Y-98309598D01*
X167380000Y-98184019D01*
X167380000Y-98055981D01*
X167355021Y-97930402D01*
X167306022Y-97812110D01*
X167234888Y-97705649D01*
X167144351Y-97615112D01*
X167037890Y-97543978D01*
X166919598Y-97494979D01*
X166794019Y-97470000D01*
X166665981Y-97470000D01*
X166540402Y-97494979D01*
X166422110Y-97543978D01*
X166315649Y-97615112D01*
X166225112Y-97705649D01*
X166153978Y-97812110D01*
X166104979Y-97930402D01*
X166080000Y-98055981D01*
X165580000Y-98055981D01*
X165580000Y-96970000D01*
X165480000Y-96970000D01*
X165480000Y-99328597D01*
X164929999Y-99328597D01*
X164929999Y-98320675D01*
X164914557Y-98203371D01*
X164914555Y-98203366D01*
X164854099Y-98057410D01*
X164830000Y-98026004D01*
X164830000Y-100360000D01*
X159830000Y-100360000D01*
X159830000Y-98026004D01*
X159829999Y-98026004D01*
X159805900Y-98057410D01*
X159745445Y-98203365D01*
X159745444Y-98203369D01*
X159730000Y-98320669D01*
X156824581Y-98320669D01*
X160580373Y-92311402D01*
X165480000Y-92311402D01*
X165480000Y-94670000D01*
X165580000Y-94670000D01*
X167880000Y-94670000D01*
X167980000Y-94670000D01*
X167980000Y-92311402D01*
X167977180Y-92281339D01*
X167977180Y-92281335D01*
X167932875Y-92154717D01*
X167880000Y-92083074D01*
X167880000Y-94670000D01*
X165580000Y-94670000D01*
X165580000Y-93455981D01*
X166080000Y-93455981D01*
X166080000Y-93584019D01*
X166104979Y-93709598D01*
X166153978Y-93827890D01*
X166225112Y-93934351D01*
X166315649Y-94024888D01*
X166422110Y-94096022D01*
X166540402Y-94145021D01*
X166665981Y-94170000D01*
X166794019Y-94170000D01*
X166919598Y-94145021D01*
X167037890Y-94096022D01*
X167144351Y-94024888D01*
X167234888Y-93934351D01*
X167306022Y-93827890D01*
X167355021Y-93709598D01*
X167380000Y-93584019D01*
X167380000Y-93455981D01*
X167355021Y-93330402D01*
X167306022Y-93212110D01*
X167234888Y-93105649D01*
X167144351Y-93015112D01*
X167037890Y-92943978D01*
X166919598Y-92894979D01*
X166794019Y-92870000D01*
X166665981Y-92870000D01*
X166540402Y-92894979D01*
X166422110Y-92943978D01*
X166315649Y-93015112D01*
X166225112Y-93105649D01*
X166153978Y-93212110D01*
X166104979Y-93330402D01*
X166080000Y-93455981D01*
X165580000Y-93455981D01*
X165580000Y-92083074D01*
X165579999Y-92083074D01*
X165527124Y-92154717D01*
X165482819Y-92281335D01*
X165482819Y-92281339D01*
X165480000Y-92311402D01*
X160580373Y-92311402D01*
X161557909Y-90747344D01*
X161570228Y-90730859D01*
X161615426Y-90679830D01*
X161647349Y-90654033D01*
X161697606Y-90625698D01*
X161736195Y-90611739D01*
X161803255Y-90599479D01*
X161823734Y-90597471D01*
X165529974Y-90543545D01*
X169207818Y-90490032D01*
X169209807Y-90490010D01*
X169210322Y-90490006D01*
X169211494Y-90490002D01*
X169211951Y-90490001D01*
X169212364Y-90490000D01*
X174407789Y-90490000D01*
X174431971Y-90492381D01*
G37*
%TD.AperFunction*%
%TD*%
M02*
